ISO-10303-21;
HEADER;
/* Generated by software containing ST-Developer
 * from STEP Tools, Inc. (www.steptools.com) 
 */
/* OPTION: using custom renumber hook */

FILE_DESCRIPTION(
/* description */ ('STEP AP242 Edition 2',
'CAx-IF Rec.Pracs.---Representation and Presentation of Product Manufa
cturing Information (PMI)---4.0---2014-10-13',
'CAx-IF Rec.Pracs.---3D Tessellated Geometry---0.4---2014-09-14','2;1',
'CAx-IF Rec.Pracs.---User Defined Attributes---1.5---2016-08-15'),
/* implementation_level */ '2;1');

FILE_NAME(
/* name */ 'battery - battery',
/* time_stamp */ '2026-09-27T03:11:10Z',
/* author */ (''),
/* organization */ (''),
/* preprocessor_version */ 'ST-DEVELOPER v20',
/* originating_system */ 'ONSHAPE BY PTC INC, 1.221',
/* authorisation */ '  ');

FILE_SCHEMA (('AP242_MANAGED_MODEL_BASED_3D_ENGINEERING_MIM_LF { 1 0 10303 442 3 1 4 }'));
ENDSEC;

DATA;
#10=SHAPE_REPRESENTATION_RELATIONSHIP('','',#111,#11);
#11=ADVANCED_BREP_SHAPE_REPRESENTATION('',(#109),#181);
#12=CIRCLE('',#115,0.0095);
#13=CIRCLE('',#116,0.0095);
#14=CIRCLE('',#119,0.0095);
#15=CIRCLE('',#120,0.0095);
#16=CYLINDRICAL_SURFACE('',#114,0.0095);
#17=CYLINDRICAL_SURFACE('',#118,0.0095);
#18=ORIENTED_EDGE('',*,*,#42,.F.);
#19=ORIENTED_EDGE('',*,*,#43,.F.);
#20=ORIENTED_EDGE('',*,*,#44,.T.);
#21=ORIENTED_EDGE('',*,*,#45,.T.);
#22=ORIENTED_EDGE('',*,*,#46,.F.);
#23=ORIENTED_EDGE('',*,*,#47,.F.);
#24=ORIENTED_EDGE('',*,*,#48,.T.);
#25=ORIENTED_EDGE('',*,*,#43,.T.);
#26=ORIENTED_EDGE('',*,*,#49,.T.);
#27=ORIENTED_EDGE('',*,*,#50,.F.);
#28=ORIENTED_EDGE('',*,*,#51,.F.);
#29=ORIENTED_EDGE('',*,*,#47,.T.);
#30=ORIENTED_EDGE('',*,*,#52,.F.);
#31=ORIENTED_EDGE('',*,*,#45,.F.);
#32=ORIENTED_EDGE('',*,*,#53,.T.);
#33=ORIENTED_EDGE('',*,*,#50,.T.);
#34=ORIENTED_EDGE('',*,*,#44,.F.);
#35=ORIENTED_EDGE('',*,*,#48,.F.);
#36=ORIENTED_EDGE('',*,*,#51,.T.);
#37=ORIENTED_EDGE('',*,*,#53,.F.);
#38=ORIENTED_EDGE('',*,*,#42,.T.);
#39=ORIENTED_EDGE('',*,*,#52,.T.);
#40=ORIENTED_EDGE('',*,*,#49,.F.);
#41=ORIENTED_EDGE('',*,*,#46,.T.);
#42=EDGE_CURVE('',#54,#55,#62,.T.);
#43=EDGE_CURVE('',#56,#54,#63,.T.);
#44=EDGE_CURVE('',#56,#57,#64,.T.);
#45=EDGE_CURVE('',#57,#55,#65,.T.);
#46=EDGE_CURVE('',#58,#54,#12,.T.);
#47=EDGE_CURVE('',#59,#58,#66,.T.);
#48=EDGE_CURVE('',#59,#56,#13,.T.);
#49=EDGE_CURVE('',#58,#60,#67,.T.);
#50=EDGE_CURVE('',#61,#60,#68,.T.);
#51=EDGE_CURVE('',#59,#61,#69,.T.);
#52=EDGE_CURVE('',#55,#60,#14,.T.);
#53=EDGE_CURVE('',#57,#61,#15,.T.);
#54=VERTEX_POINT('',#156);
#55=VERTEX_POINT('',#157);
#56=VERTEX_POINT('',#159);
#57=VERTEX_POINT('',#161);
#58=VERTEX_POINT('',#165);
#59=VERTEX_POINT('',#167);
#60=VERTEX_POINT('',#171);
#61=VERTEX_POINT('',#173);
#62=LINE('',#155,#70);
#63=LINE('',#158,#71);
#64=LINE('',#160,#72);
#65=LINE('',#162,#73);
#66=LINE('',#166,#74);
#67=LINE('',#170,#75);
#68=LINE('',#172,#76);
#69=LINE('',#174,#77);
#70=VECTOR('',#127,1.);
#71=VECTOR('',#128,1.);
#72=VECTOR('',#129,1.);
#73=VECTOR('',#130,1.);
#74=VECTOR('',#135,1.);
#75=VECTOR('',#140,1.);
#76=VECTOR('',#141,1.);
#77=VECTOR('',#142,1.);
#78=EDGE_LOOP('',(#18,#19,#20,#21));
#79=EDGE_LOOP('',(#22,#23,#24,#25));
#80=EDGE_LOOP('',(#26,#27,#28,#29));
#81=EDGE_LOOP('',(#30,#31,#32,#33));
#82=EDGE_LOOP('',(#34,#35,#36,#37));
#83=EDGE_LOOP('',(#38,#39,#40,#41));
#84=FACE_BOUND('',#78,.T.);
#85=FACE_BOUND('',#79,.T.);
#86=FACE_BOUND('',#80,.T.);
#87=FACE_BOUND('',#81,.T.);
#88=FACE_BOUND('',#82,.T.);
#89=FACE_BOUND('',#83,.T.);
#90=PLANE('',#113);
#91=PLANE('',#117);
#92=PLANE('',#121);
#93=PLANE('',#122);
#94=ADVANCED_FACE('',(#84),#90,.T.);
#95=ADVANCED_FACE('',(#85),#16,.T.);
#96=ADVANCED_FACE('',(#86),#91,.F.);
#97=ADVANCED_FACE('',(#87),#17,.T.);
#98=ADVANCED_FACE('',(#88),#92,.T.);
#99=ADVANCED_FACE('',(#89),#93,.F.);
#100=CLOSED_SHELL('',(#94,#95,#96,#97,#98,#99));
#101=STYLED_ITEM('',(#102),#109);
#102=PRESENTATION_STYLE_ASSIGNMENT((#103));
#103=SURFACE_STYLE_USAGE(.BOTH.,#104);
#104=SURFACE_SIDE_STYLE('',(#105));
#105=SURFACE_STYLE_FILL_AREA(#106);
#106=FILL_AREA_STYLE('',(#107));
#107=FILL_AREA_STYLE_COLOUR('',#108);
#108=COLOUR_RGB('',0.615686274509804,0.811764705882353,0.929411764705882);
#109=MANIFOLD_SOLID_BREP('battery',#100);
#110=SHAPE_DEFINITION_REPRESENTATION(#186,#111);
#111=SHAPE_REPRESENTATION('battery',(#112),#181);
#112=AXIS2_PLACEMENT_3D('',#153,#123,#124);
#113=AXIS2_PLACEMENT_3D('',#154,#125,#126);
#114=AXIS2_PLACEMENT_3D('',#163,#131,#132);
#115=AXIS2_PLACEMENT_3D('',#164,#133,#134);
#116=AXIS2_PLACEMENT_3D('',#168,#136,#137);
#117=AXIS2_PLACEMENT_3D('',#169,#138,#139);
#118=AXIS2_PLACEMENT_3D('',#175,#143,#144);
#119=AXIS2_PLACEMENT_3D('',#176,#145,#146);
#120=AXIS2_PLACEMENT_3D('',#177,#147,#148);
#121=AXIS2_PLACEMENT_3D('',#178,#149,#150);
#122=AXIS2_PLACEMENT_3D('',#179,#151,#152);
#123=DIRECTION('',(0.,0.,1.));
#124=DIRECTION('',(1.,0.,0.));
#125=DIRECTION('',(0.,0.,1.));
#126=DIRECTION('',(1.,0.,0.));
#127=DIRECTION('',(1.,0.,0.));
#128=DIRECTION('',(0.,1.,0.));
#129=DIRECTION('',(1.,0.,0.));
#130=DIRECTION('',(0.,1.,0.));
#131=DIRECTION('',(0.,1.,0.));
#132=DIRECTION('',(0.,0.,1.));
#133=DIRECTION('',(0.,1.,0.));
#134=DIRECTION('',(0.,0.,-1.));
#135=DIRECTION('',(0.,1.,0.));
#136=DIRECTION('',(0.,1.,0.));
#137=DIRECTION('',(0.,0.,-1.));
#138=DIRECTION('',(0.,0.,1.));
#139=DIRECTION('',(1.,0.,0.));
#140=DIRECTION('',(1.,0.,0.));
#141=DIRECTION('',(0.,1.,0.));
#142=DIRECTION('',(1.,0.,0.));
#143=DIRECTION('',(0.,1.,0.));
#144=DIRECTION('',(0.,0.,1.));
#145=DIRECTION('',(0.,1.,0.));
#146=DIRECTION('',(0.,0.,-1.));
#147=DIRECTION('',(0.,1.,0.));
#148=DIRECTION('',(0.,0.,-1.));
#149=DIRECTION('',(0.,-1.,0.));
#150=DIRECTION('',(1.,0.,0.));
#151=DIRECTION('',(0.,-1.,0.));
#152=DIRECTION('',(1.,0.,0.));
#153=CARTESIAN_POINT('',(0.,0.,0.));
#154=CARTESIAN_POINT('',(0.00895,-0.066,0.0095));
#155=CARTESIAN_POINT('',(0.00895,0.,0.0095));
#156=CARTESIAN_POINT('',(5.81707229594993E-19,0.,0.0095));
#157=CARTESIAN_POINT('',(0.0179,0.,0.0095));
#158=CARTESIAN_POINT('',(5.81707229594993E-19,-0.066,0.0095));
#159=CARTESIAN_POINT('',(5.81707229594993E-19,-0.066,0.0095));
#160=CARTESIAN_POINT('',(0.00895,-0.066,0.0095));
#161=CARTESIAN_POINT('',(0.0179,-0.066,0.0095));
#162=CARTESIAN_POINT('',(0.0179,-0.066,0.0095));
#163=CARTESIAN_POINT('',(-5.81707229594993E-19,-0.066,0.));
#164=CARTESIAN_POINT('',(-5.81707229594993E-19,0.,0.));
#165=CARTESIAN_POINT('',(0.,0.,-0.0095));
#166=CARTESIAN_POINT('',(0.,-0.066,-0.0095));
#167=CARTESIAN_POINT('',(0.,-0.066,-0.0095));
#168=CARTESIAN_POINT('',(-5.81707229594993E-19,-0.066,0.));
#169=CARTESIAN_POINT('',(0.00895,-0.066,-0.0095));
#170=CARTESIAN_POINT('',(0.00895,0.,-0.0095));
#171=CARTESIAN_POINT('',(0.0179,0.,-0.0095));
#172=CARTESIAN_POINT('',(0.0179,-0.066,-0.0095));
#173=CARTESIAN_POINT('',(0.0179,-0.066,-0.0095));
#174=CARTESIAN_POINT('',(0.00895,-0.066,-0.0095));
#175=CARTESIAN_POINT('',(0.0179,-0.066,0.));
#176=CARTESIAN_POINT('',(0.0179,0.,0.));
#177=CARTESIAN_POINT('',(0.0179,-0.066,0.));
#178=CARTESIAN_POINT('',(0.00895,-0.066,0.));
#179=CARTESIAN_POINT('',(0.00895,0.,0.));
#180=MECHANICAL_DESIGN_GEOMETRIC_PRESENTATION_REPRESENTATION('',(#101),
#181);
#181=(
GEOMETRIC_REPRESENTATION_CONTEXT(3)
GLOBAL_UNCERTAINTY_ASSIGNED_CONTEXT((#182))
GLOBAL_UNIT_ASSIGNED_CONTEXT((#185,#184,#183))
REPRESENTATION_CONTEXT('battery','TOP_LEVEL_ASSEMBLY_PART')
);
#182=UNCERTAINTY_MEASURE_WITH_UNIT(LENGTH_MEASURE(1.E-8),#185,
'DISTANCE_ACCURACY_VALUE','Maximum Tolerance applied to model');
#183=(
NAMED_UNIT(*)
SI_UNIT($,.STERADIAN.)
SOLID_ANGLE_UNIT()
);
#184=(
NAMED_UNIT(*)
PLANE_ANGLE_UNIT()
SI_UNIT($,.RADIAN.)
);
#185=(
LENGTH_UNIT()
NAMED_UNIT(*)
SI_UNIT($,.METRE.)
);
#186=PRODUCT_DEFINITION_SHAPE('','',#187);
#187=PRODUCT_DEFINITION('','',#189,#188);
#188=PRODUCT_DEFINITION_CONTEXT('',#195,'design');
#189=PRODUCT_DEFINITION_FORMATION_WITH_SPECIFIED_SOURCE('','',#191,
 .NOT_KNOWN.);
#190=PRODUCT_RELATED_PRODUCT_CATEGORY('','',(#191));
#191=PRODUCT('battery','battery','battery',(#193));
#192=PRODUCT_CATEGORY('','');
#193=PRODUCT_CONTEXT('',#195,'mechanical');
#194=APPLICATION_PROTOCOL_DEFINITION('international standard',
'ap242_managed_model_based_3d_engineering',2020,#195);
#195=APPLICATION_CONTEXT('managed model based 3d engineering');
ENDSEC;
END-ISO-10303-21;
