ISO-10303-21;
HEADER;
/* Generated by software containing ST-Developer
 * from STEP Tools, Inc. (www.steptools.com) 
 */
/* OPTION: using custom renumber hook */

FILE_DESCRIPTION(
/* description */ ('STEP AP242 Edition 2',
'CAx-IF Rec.Pracs.---Representation and Presentation of Product Manufa
cturing Information (PMI)---4.0---2014-10-13',
'CAx-IF Rec.Pracs.---3D Tessellated Geometry---0.4---2014-09-14','2;1',
'CAx-IF Rec.Pracs.---User Defined Attributes---1.5---2016-08-15'),
/* implementation_level */ '2;1');

FILE_NAME(
/* name */ 'IMU - IMU',
/* time_stamp */ '2026-09-27T03:10:47Z',
/* author */ (''),
/* organization */ (''),
/* preprocessor_version */ 'ST-DEVELOPER v20',
/* originating_system */ 'ONSHAPE BY PTC INC, 1.221',
/* authorisation */ '  ');

FILE_SCHEMA (('AP242_MANAGED_MODEL_BASED_3D_ENGINEERING_MIM_LF { 1 0 10303 442 3 1 4 }'));
ENDSEC;

DATA;
#10=SHAPE_REPRESENTATION_RELATIONSHIP('','',#1156,#11);
#11=ADVANCED_BREP_SHAPE_REPRESENTATION('',(#1154),#1662);
#12=OVER_RIDING_STYLED_ITEM('',(#907),#864,#905);
#13=OVER_RIDING_STYLED_ITEM('',(#908),#865,#905);
#14=OVER_RIDING_STYLED_ITEM('',(#909),#866,#905);
#15=OVER_RIDING_STYLED_ITEM('',(#910),#867,#905);
#16=OVER_RIDING_STYLED_ITEM('',(#911),#868,#905);
#17=OVER_RIDING_STYLED_ITEM('',(#912),#869,#905);
#18=OVER_RIDING_STYLED_ITEM('',(#913),#870,#905);
#19=OVER_RIDING_STYLED_ITEM('',(#914),#871,#905);
#20=OVER_RIDING_STYLED_ITEM('',(#915),#872,#905);
#21=OVER_RIDING_STYLED_ITEM('',(#916),#873,#905);
#22=OVER_RIDING_STYLED_ITEM('',(#917),#874,#905);
#23=OVER_RIDING_STYLED_ITEM('',(#918),#875,#905);
#24=OVER_RIDING_STYLED_ITEM('',(#919),#876,#905);
#25=OVER_RIDING_STYLED_ITEM('',(#920),#877,#905);
#26=OVER_RIDING_STYLED_ITEM('',(#921),#878,#905);
#27=OVER_RIDING_STYLED_ITEM('',(#922),#879,#905);
#28=OVER_RIDING_STYLED_ITEM('',(#923),#880,#905);
#29=OVER_RIDING_STYLED_ITEM('',(#924),#881,#905);
#30=OVER_RIDING_STYLED_ITEM('',(#925),#882,#905);
#31=OVER_RIDING_STYLED_ITEM('',(#926),#883,#905);
#32=OVER_RIDING_STYLED_ITEM('',(#927),#884,#905);
#33=OVER_RIDING_STYLED_ITEM('',(#928),#885,#905);
#34=OVER_RIDING_STYLED_ITEM('',(#929),#886,#905);
#35=OVER_RIDING_STYLED_ITEM('',(#930),#887,#905);
#36=OVER_RIDING_STYLED_ITEM('',(#931),#888,#905);
#37=OVER_RIDING_STYLED_ITEM('',(#932),#889,#905);
#38=OVER_RIDING_STYLED_ITEM('',(#933),#890,#905);
#39=OVER_RIDING_STYLED_ITEM('',(#934),#891,#905);
#40=OVER_RIDING_STYLED_ITEM('',(#935),#892,#905);
#41=OVER_RIDING_STYLED_ITEM('',(#936),#893,#905);
#42=OVER_RIDING_STYLED_ITEM('',(#937),#894,#905);
#43=OVER_RIDING_STYLED_ITEM('',(#938),#895,#905);
#44=OVER_RIDING_STYLED_ITEM('',(#939),#896,#905);
#45=OVER_RIDING_STYLED_ITEM('',(#940),#897,#905);
#46=OVER_RIDING_STYLED_ITEM('',(#941),#898,#905);
#47=OVER_RIDING_STYLED_ITEM('',(#942),#899,#905);
#48=OVER_RIDING_STYLED_ITEM('',(#943),#900,#905);
#49=OVER_RIDING_STYLED_ITEM('',(#944),#901,#905);
#50=OVER_RIDING_STYLED_ITEM('',(#945),#902,#905);
#51=OVER_RIDING_STYLED_ITEM('',(#946),#903,#905);
#52=CYLINDRICAL_SURFACE('',#1164,0.001625);
#53=CYLINDRICAL_SURFACE('',#1167,0.001625);
#54=CIRCLE('',#1159,0.001625);
#55=CIRCLE('',#1160,0.001625);
#56=CIRCLE('',#1165,0.001625);
#57=CIRCLE('',#1168,0.001625);
#58=ORIENTED_EDGE('',*,*,#282,.F.);
#59=ORIENTED_EDGE('',*,*,#283,.T.);
#60=ORIENTED_EDGE('',*,*,#284,.T.);
#61=ORIENTED_EDGE('',*,*,#285,.F.);
#62=ORIENTED_EDGE('',*,*,#286,.F.);
#63=ORIENTED_EDGE('',*,*,#287,.F.);
#64=ORIENTED_EDGE('',*,*,#288,.T.);
#65=ORIENTED_EDGE('',*,*,#289,.T.);
#66=ORIENTED_EDGE('',*,*,#290,.F.);
#67=ORIENTED_EDGE('',*,*,#291,.F.);
#68=ORIENTED_EDGE('',*,*,#292,.T.);
#69=ORIENTED_EDGE('',*,*,#293,.T.);
#70=ORIENTED_EDGE('',*,*,#294,.F.);
#71=ORIENTED_EDGE('',*,*,#295,.F.);
#72=ORIENTED_EDGE('',*,*,#296,.T.);
#73=ORIENTED_EDGE('',*,*,#297,.T.);
#74=ORIENTED_EDGE('',*,*,#298,.F.);
#75=ORIENTED_EDGE('',*,*,#299,.F.);
#76=ORIENTED_EDGE('',*,*,#300,.T.);
#77=ORIENTED_EDGE('',*,*,#301,.T.);
#78=ORIENTED_EDGE('',*,*,#302,.F.);
#79=ORIENTED_EDGE('',*,*,#303,.F.);
#80=ORIENTED_EDGE('',*,*,#304,.T.);
#81=ORIENTED_EDGE('',*,*,#305,.T.);
#82=ORIENTED_EDGE('',*,*,#306,.F.);
#83=ORIENTED_EDGE('',*,*,#307,.F.);
#84=ORIENTED_EDGE('',*,*,#308,.T.);
#85=ORIENTED_EDGE('',*,*,#309,.T.);
#86=ORIENTED_EDGE('',*,*,#310,.F.);
#87=ORIENTED_EDGE('',*,*,#311,.F.);
#88=ORIENTED_EDGE('',*,*,#312,.T.);
#89=ORIENTED_EDGE('',*,*,#313,.T.);
#90=ORIENTED_EDGE('',*,*,#314,.F.);
#91=ORIENTED_EDGE('',*,*,#315,.F.);
#92=ORIENTED_EDGE('',*,*,#316,.F.);
#93=ORIENTED_EDGE('',*,*,#317,.T.);
#94=ORIENTED_EDGE('',*,*,#318,.T.);
#95=ORIENTED_EDGE('',*,*,#319,.F.);
#96=ORIENTED_EDGE('',*,*,#320,.F.);
#97=ORIENTED_EDGE('',*,*,#321,.F.);
#98=ORIENTED_EDGE('',*,*,#282,.T.);
#99=ORIENTED_EDGE('',*,*,#322,.T.);
#100=ORIENTED_EDGE('',*,*,#323,.T.);
#101=ORIENTED_EDGE('',*,*,#324,.F.);
#102=ORIENTED_EDGE('',*,*,#283,.F.);
#103=ORIENTED_EDGE('',*,*,#321,.T.);
#104=ORIENTED_EDGE('',*,*,#325,.T.);
#105=ORIENTED_EDGE('',*,*,#326,.F.);
#106=ORIENTED_EDGE('',*,*,#284,.F.);
#107=ORIENTED_EDGE('',*,*,#324,.T.);
#108=ORIENTED_EDGE('',*,*,#286,.T.);
#109=ORIENTED_EDGE('',*,*,#327,.F.);
#110=ORIENTED_EDGE('',*,*,#328,.F.);
#111=ORIENTED_EDGE('',*,*,#322,.F.);
#112=ORIENTED_EDGE('',*,*,#285,.T.);
#113=ORIENTED_EDGE('',*,*,#326,.T.);
#114=ORIENTED_EDGE('',*,*,#287,.T.);
#115=ORIENTED_EDGE('',*,*,#329,.F.);
#116=ORIENTED_EDGE('',*,*,#320,.T.);
#117=ORIENTED_EDGE('',*,*,#328,.T.);
#118=ORIENTED_EDGE('',*,*,#325,.F.);
#119=ORIENTED_EDGE('',*,*,#323,.F.);
#120=ORIENTED_EDGE('',*,*,#327,.T.);
#121=ORIENTED_EDGE('',*,*,#329,.T.);
#122=ORIENTED_EDGE('',*,*,#289,.F.);
#123=ORIENTED_EDGE('',*,*,#330,.F.);
#124=ORIENTED_EDGE('',*,*,#331,.T.);
#125=ORIENTED_EDGE('',*,*,#332,.T.);
#126=ORIENTED_EDGE('',*,*,#288,.F.);
#127=ORIENTED_EDGE('',*,*,#333,.F.);
#128=ORIENTED_EDGE('',*,*,#334,.T.);
#129=ORIENTED_EDGE('',*,*,#330,.T.);
#130=ORIENTED_EDGE('',*,*,#291,.T.);
#131=ORIENTED_EDGE('',*,*,#335,.F.);
#132=ORIENTED_EDGE('',*,*,#336,.F.);
#133=ORIENTED_EDGE('',*,*,#333,.T.);
#134=ORIENTED_EDGE('',*,*,#290,.T.);
#135=ORIENTED_EDGE('',*,*,#332,.F.);
#136=ORIENTED_EDGE('',*,*,#337,.F.);
#137=ORIENTED_EDGE('',*,*,#335,.T.);
#138=ORIENTED_EDGE('',*,*,#331,.F.);
#139=ORIENTED_EDGE('',*,*,#334,.F.);
#140=ORIENTED_EDGE('',*,*,#336,.T.);
#141=ORIENTED_EDGE('',*,*,#337,.T.);
#142=ORIENTED_EDGE('',*,*,#293,.F.);
#143=ORIENTED_EDGE('',*,*,#338,.F.);
#144=ORIENTED_EDGE('',*,*,#339,.T.);
#145=ORIENTED_EDGE('',*,*,#340,.T.);
#146=ORIENTED_EDGE('',*,*,#292,.F.);
#147=ORIENTED_EDGE('',*,*,#341,.F.);
#148=ORIENTED_EDGE('',*,*,#342,.T.);
#149=ORIENTED_EDGE('',*,*,#338,.T.);
#150=ORIENTED_EDGE('',*,*,#295,.T.);
#151=ORIENTED_EDGE('',*,*,#343,.F.);
#152=ORIENTED_EDGE('',*,*,#344,.F.);
#153=ORIENTED_EDGE('',*,*,#341,.T.);
#154=ORIENTED_EDGE('',*,*,#294,.T.);
#155=ORIENTED_EDGE('',*,*,#340,.F.);
#156=ORIENTED_EDGE('',*,*,#345,.F.);
#157=ORIENTED_EDGE('',*,*,#343,.T.);
#158=ORIENTED_EDGE('',*,*,#339,.F.);
#159=ORIENTED_EDGE('',*,*,#342,.F.);
#160=ORIENTED_EDGE('',*,*,#344,.T.);
#161=ORIENTED_EDGE('',*,*,#345,.T.);
#162=ORIENTED_EDGE('',*,*,#297,.F.);
#163=ORIENTED_EDGE('',*,*,#346,.F.);
#164=ORIENTED_EDGE('',*,*,#347,.T.);
#165=ORIENTED_EDGE('',*,*,#348,.T.);
#166=ORIENTED_EDGE('',*,*,#296,.F.);
#167=ORIENTED_EDGE('',*,*,#349,.F.);
#168=ORIENTED_EDGE('',*,*,#350,.T.);
#169=ORIENTED_EDGE('',*,*,#346,.T.);
#170=ORIENTED_EDGE('',*,*,#299,.T.);
#171=ORIENTED_EDGE('',*,*,#351,.F.);
#172=ORIENTED_EDGE('',*,*,#352,.F.);
#173=ORIENTED_EDGE('',*,*,#349,.T.);
#174=ORIENTED_EDGE('',*,*,#298,.T.);
#175=ORIENTED_EDGE('',*,*,#348,.F.);
#176=ORIENTED_EDGE('',*,*,#353,.F.);
#177=ORIENTED_EDGE('',*,*,#351,.T.);
#178=ORIENTED_EDGE('',*,*,#347,.F.);
#179=ORIENTED_EDGE('',*,*,#350,.F.);
#180=ORIENTED_EDGE('',*,*,#352,.T.);
#181=ORIENTED_EDGE('',*,*,#353,.T.);
#182=ORIENTED_EDGE('',*,*,#301,.F.);
#183=ORIENTED_EDGE('',*,*,#354,.F.);
#184=ORIENTED_EDGE('',*,*,#355,.T.);
#185=ORIENTED_EDGE('',*,*,#356,.T.);
#186=ORIENTED_EDGE('',*,*,#300,.F.);
#187=ORIENTED_EDGE('',*,*,#357,.F.);
#188=ORIENTED_EDGE('',*,*,#358,.T.);
#189=ORIENTED_EDGE('',*,*,#354,.T.);
#190=ORIENTED_EDGE('',*,*,#303,.T.);
#191=ORIENTED_EDGE('',*,*,#359,.F.);
#192=ORIENTED_EDGE('',*,*,#360,.F.);
#193=ORIENTED_EDGE('',*,*,#357,.T.);
#194=ORIENTED_EDGE('',*,*,#302,.T.);
#195=ORIENTED_EDGE('',*,*,#356,.F.);
#196=ORIENTED_EDGE('',*,*,#361,.F.);
#197=ORIENTED_EDGE('',*,*,#359,.T.);
#198=ORIENTED_EDGE('',*,*,#355,.F.);
#199=ORIENTED_EDGE('',*,*,#358,.F.);
#200=ORIENTED_EDGE('',*,*,#360,.T.);
#201=ORIENTED_EDGE('',*,*,#361,.T.);
#202=ORIENTED_EDGE('',*,*,#305,.F.);
#203=ORIENTED_EDGE('',*,*,#362,.F.);
#204=ORIENTED_EDGE('',*,*,#363,.T.);
#205=ORIENTED_EDGE('',*,*,#364,.T.);
#206=ORIENTED_EDGE('',*,*,#304,.F.);
#207=ORIENTED_EDGE('',*,*,#365,.F.);
#208=ORIENTED_EDGE('',*,*,#366,.T.);
#209=ORIENTED_EDGE('',*,*,#362,.T.);
#210=ORIENTED_EDGE('',*,*,#307,.T.);
#211=ORIENTED_EDGE('',*,*,#367,.F.);
#212=ORIENTED_EDGE('',*,*,#368,.F.);
#213=ORIENTED_EDGE('',*,*,#365,.T.);
#214=ORIENTED_EDGE('',*,*,#306,.T.);
#215=ORIENTED_EDGE('',*,*,#364,.F.);
#216=ORIENTED_EDGE('',*,*,#369,.F.);
#217=ORIENTED_EDGE('',*,*,#367,.T.);
#218=ORIENTED_EDGE('',*,*,#363,.F.);
#219=ORIENTED_EDGE('',*,*,#366,.F.);
#220=ORIENTED_EDGE('',*,*,#368,.T.);
#221=ORIENTED_EDGE('',*,*,#369,.T.);
#222=ORIENTED_EDGE('',*,*,#309,.F.);
#223=ORIENTED_EDGE('',*,*,#370,.F.);
#224=ORIENTED_EDGE('',*,*,#371,.T.);
#225=ORIENTED_EDGE('',*,*,#372,.T.);
#226=ORIENTED_EDGE('',*,*,#308,.F.);
#227=ORIENTED_EDGE('',*,*,#373,.F.);
#228=ORIENTED_EDGE('',*,*,#374,.T.);
#229=ORIENTED_EDGE('',*,*,#370,.T.);
#230=ORIENTED_EDGE('',*,*,#311,.T.);
#231=ORIENTED_EDGE('',*,*,#375,.F.);
#232=ORIENTED_EDGE('',*,*,#376,.F.);
#233=ORIENTED_EDGE('',*,*,#373,.T.);
#234=ORIENTED_EDGE('',*,*,#310,.T.);
#235=ORIENTED_EDGE('',*,*,#372,.F.);
#236=ORIENTED_EDGE('',*,*,#377,.F.);
#237=ORIENTED_EDGE('',*,*,#375,.T.);
#238=ORIENTED_EDGE('',*,*,#371,.F.);
#239=ORIENTED_EDGE('',*,*,#374,.F.);
#240=ORIENTED_EDGE('',*,*,#376,.T.);
#241=ORIENTED_EDGE('',*,*,#377,.T.);
#242=ORIENTED_EDGE('',*,*,#313,.F.);
#243=ORIENTED_EDGE('',*,*,#378,.F.);
#244=ORIENTED_EDGE('',*,*,#379,.T.);
#245=ORIENTED_EDGE('',*,*,#380,.T.);
#246=ORIENTED_EDGE('',*,*,#312,.F.);
#247=ORIENTED_EDGE('',*,*,#381,.F.);
#248=ORIENTED_EDGE('',*,*,#382,.T.);
#249=ORIENTED_EDGE('',*,*,#378,.T.);
#250=ORIENTED_EDGE('',*,*,#315,.T.);
#251=ORIENTED_EDGE('',*,*,#383,.F.);
#252=ORIENTED_EDGE('',*,*,#384,.F.);
#253=ORIENTED_EDGE('',*,*,#381,.T.);
#254=ORIENTED_EDGE('',*,*,#314,.T.);
#255=ORIENTED_EDGE('',*,*,#380,.F.);
#256=ORIENTED_EDGE('',*,*,#385,.F.);
#257=ORIENTED_EDGE('',*,*,#383,.T.);
#258=ORIENTED_EDGE('',*,*,#379,.F.);
#259=ORIENTED_EDGE('',*,*,#382,.F.);
#260=ORIENTED_EDGE('',*,*,#384,.T.);
#261=ORIENTED_EDGE('',*,*,#385,.T.);
#262=ORIENTED_EDGE('',*,*,#317,.F.);
#263=ORIENTED_EDGE('',*,*,#386,.F.);
#264=ORIENTED_EDGE('',*,*,#387,.T.);
#265=ORIENTED_EDGE('',*,*,#388,.T.);
#266=ORIENTED_EDGE('',*,*,#316,.T.);
#267=ORIENTED_EDGE('',*,*,#389,.F.);
#268=ORIENTED_EDGE('',*,*,#390,.F.);
#269=ORIENTED_EDGE('',*,*,#386,.T.);
#270=ORIENTED_EDGE('',*,*,#319,.T.);
#271=ORIENTED_EDGE('',*,*,#391,.F.);
#272=ORIENTED_EDGE('',*,*,#392,.F.);
#273=ORIENTED_EDGE('',*,*,#389,.T.);
#274=ORIENTED_EDGE('',*,*,#318,.F.);
#275=ORIENTED_EDGE('',*,*,#388,.F.);
#276=ORIENTED_EDGE('',*,*,#393,.T.);
#277=ORIENTED_EDGE('',*,*,#391,.T.);
#278=ORIENTED_EDGE('',*,*,#387,.F.);
#279=ORIENTED_EDGE('',*,*,#390,.T.);
#280=ORIENTED_EDGE('',*,*,#392,.T.);
#281=ORIENTED_EDGE('',*,*,#393,.F.);
#282=EDGE_CURVE('',#394,#395,#470,.T.);
#283=EDGE_CURVE('',#394,#396,#471,.T.);
#284=EDGE_CURVE('',#396,#397,#472,.T.);
#285=EDGE_CURVE('',#395,#397,#473,.T.);
#286=EDGE_CURVE('',#398,#398,#54,.T.);
#287=EDGE_CURVE('',#399,#399,#55,.T.);
#288=EDGE_CURVE('',#400,#401,#474,.T.);
#289=EDGE_CURVE('',#401,#402,#475,.T.);
#290=EDGE_CURVE('',#403,#402,#476,.T.);
#291=EDGE_CURVE('',#400,#403,#477,.T.);
#292=EDGE_CURVE('',#404,#405,#478,.T.);
#293=EDGE_CURVE('',#405,#406,#479,.T.);
#294=EDGE_CURVE('',#407,#406,#480,.T.);
#295=EDGE_CURVE('',#404,#407,#481,.T.);
#296=EDGE_CURVE('',#408,#409,#482,.T.);
#297=EDGE_CURVE('',#409,#410,#483,.T.);
#298=EDGE_CURVE('',#411,#410,#484,.T.);
#299=EDGE_CURVE('',#408,#411,#485,.T.);
#300=EDGE_CURVE('',#412,#413,#486,.T.);
#301=EDGE_CURVE('',#413,#414,#487,.T.);
#302=EDGE_CURVE('',#415,#414,#488,.T.);
#303=EDGE_CURVE('',#412,#415,#489,.T.);
#304=EDGE_CURVE('',#416,#417,#490,.T.);
#305=EDGE_CURVE('',#417,#418,#491,.T.);
#306=EDGE_CURVE('',#419,#418,#492,.T.);
#307=EDGE_CURVE('',#416,#419,#493,.T.);
#308=EDGE_CURVE('',#420,#421,#494,.T.);
#309=EDGE_CURVE('',#421,#422,#495,.T.);
#310=EDGE_CURVE('',#423,#422,#496,.T.);
#311=EDGE_CURVE('',#420,#423,#497,.T.);
#312=EDGE_CURVE('',#424,#425,#498,.T.);
#313=EDGE_CURVE('',#425,#426,#499,.T.);
#314=EDGE_CURVE('',#427,#426,#500,.T.);
#315=EDGE_CURVE('',#424,#427,#501,.T.);
#316=EDGE_CURVE('',#428,#429,#502,.T.);
#317=EDGE_CURVE('',#428,#430,#503,.T.);
#318=EDGE_CURVE('',#430,#431,#504,.T.);
#319=EDGE_CURVE('',#429,#431,#505,.T.);
#320=EDGE_CURVE('',#432,#433,#506,.T.);
#321=EDGE_CURVE('',#394,#432,#507,.T.);
#322=EDGE_CURVE('',#395,#433,#508,.T.);
#323=EDGE_CURVE('',#432,#434,#509,.T.);
#324=EDGE_CURVE('',#396,#434,#510,.T.);
#325=EDGE_CURVE('',#434,#435,#511,.T.);
#326=EDGE_CURVE('',#397,#435,#512,.T.);
#327=EDGE_CURVE('',#436,#436,#56,.T.);
#328=EDGE_CURVE('',#433,#435,#513,.T.);
#329=EDGE_CURVE('',#437,#437,#57,.T.);
#330=EDGE_CURVE('',#438,#401,#514,.T.);
#331=EDGE_CURVE('',#438,#439,#515,.T.);
#332=EDGE_CURVE('',#439,#402,#516,.T.);
#333=EDGE_CURVE('',#440,#400,#517,.T.);
#334=EDGE_CURVE('',#440,#438,#518,.T.);
#335=EDGE_CURVE('',#441,#403,#519,.T.);
#336=EDGE_CURVE('',#440,#441,#520,.T.);
#337=EDGE_CURVE('',#441,#439,#521,.T.);
#338=EDGE_CURVE('',#442,#405,#522,.T.);
#339=EDGE_CURVE('',#442,#443,#523,.T.);
#340=EDGE_CURVE('',#443,#406,#524,.T.);
#341=EDGE_CURVE('',#444,#404,#525,.T.);
#342=EDGE_CURVE('',#444,#442,#526,.T.);
#343=EDGE_CURVE('',#445,#407,#527,.T.);
#344=EDGE_CURVE('',#444,#445,#528,.T.);
#345=EDGE_CURVE('',#445,#443,#529,.T.);
#346=EDGE_CURVE('',#446,#409,#530,.T.);
#347=EDGE_CURVE('',#446,#447,#531,.T.);
#348=EDGE_CURVE('',#447,#410,#532,.T.);
#349=EDGE_CURVE('',#448,#408,#533,.T.);
#350=EDGE_CURVE('',#448,#446,#534,.T.);
#351=EDGE_CURVE('',#449,#411,#535,.T.);
#352=EDGE_CURVE('',#448,#449,#536,.T.);
#353=EDGE_CURVE('',#449,#447,#537,.T.);
#354=EDGE_CURVE('',#450,#413,#538,.T.);
#355=EDGE_CURVE('',#450,#451,#539,.T.);
#356=EDGE_CURVE('',#451,#414,#540,.T.);
#357=EDGE_CURVE('',#452,#412,#541,.T.);
#358=EDGE_CURVE('',#452,#450,#542,.T.);
#359=EDGE_CURVE('',#453,#415,#543,.T.);
#360=EDGE_CURVE('',#452,#453,#544,.T.);
#361=EDGE_CURVE('',#453,#451,#545,.T.);
#362=EDGE_CURVE('',#454,#417,#546,.T.);
#363=EDGE_CURVE('',#454,#455,#547,.T.);
#364=EDGE_CURVE('',#455,#418,#548,.T.);
#365=EDGE_CURVE('',#456,#416,#549,.T.);
#366=EDGE_CURVE('',#456,#454,#550,.T.);
#367=EDGE_CURVE('',#457,#419,#551,.T.);
#368=EDGE_CURVE('',#456,#457,#552,.T.);
#369=EDGE_CURVE('',#457,#455,#553,.T.);
#370=EDGE_CURVE('',#458,#421,#554,.T.);
#371=EDGE_CURVE('',#458,#459,#555,.T.);
#372=EDGE_CURVE('',#459,#422,#556,.T.);
#373=EDGE_CURVE('',#460,#420,#557,.T.);
#374=EDGE_CURVE('',#460,#458,#558,.T.);
#375=EDGE_CURVE('',#461,#423,#559,.T.);
#376=EDGE_CURVE('',#460,#461,#560,.T.);
#377=EDGE_CURVE('',#461,#459,#561,.T.);
#378=EDGE_CURVE('',#462,#425,#562,.T.);
#379=EDGE_CURVE('',#462,#463,#563,.T.);
#380=EDGE_CURVE('',#463,#426,#564,.T.);
#381=EDGE_CURVE('',#464,#424,#565,.T.);
#382=EDGE_CURVE('',#464,#462,#566,.T.);
#383=EDGE_CURVE('',#465,#427,#567,.T.);
#384=EDGE_CURVE('',#464,#465,#568,.T.);
#385=EDGE_CURVE('',#465,#463,#569,.T.);
#386=EDGE_CURVE('',#466,#428,#570,.T.);
#387=EDGE_CURVE('',#466,#467,#571,.T.);
#388=EDGE_CURVE('',#467,#430,#572,.T.);
#389=EDGE_CURVE('',#468,#429,#573,.T.);
#390=EDGE_CURVE('',#466,#468,#574,.T.);
#391=EDGE_CURVE('',#469,#431,#575,.T.);
#392=EDGE_CURVE('',#468,#469,#576,.T.);
#393=EDGE_CURVE('',#467,#469,#577,.T.);
#394=VERTEX_POINT('',#1427);
#395=VERTEX_POINT('',#1428);
#396=VERTEX_POINT('',#1430);
#397=VERTEX_POINT('',#1432);
#398=VERTEX_POINT('',#1435);
#399=VERTEX_POINT('',#1437);
#400=VERTEX_POINT('',#1439);
#401=VERTEX_POINT('',#1440);
#402=VERTEX_POINT('',#1442);
#403=VERTEX_POINT('',#1444);
#404=VERTEX_POINT('',#1447);
#405=VERTEX_POINT('',#1448);
#406=VERTEX_POINT('',#1450);
#407=VERTEX_POINT('',#1452);
#408=VERTEX_POINT('',#1455);
#409=VERTEX_POINT('',#1456);
#410=VERTEX_POINT('',#1458);
#411=VERTEX_POINT('',#1460);
#412=VERTEX_POINT('',#1463);
#413=VERTEX_POINT('',#1464);
#414=VERTEX_POINT('',#1466);
#415=VERTEX_POINT('',#1468);
#416=VERTEX_POINT('',#1471);
#417=VERTEX_POINT('',#1472);
#418=VERTEX_POINT('',#1474);
#419=VERTEX_POINT('',#1476);
#420=VERTEX_POINT('',#1479);
#421=VERTEX_POINT('',#1480);
#422=VERTEX_POINT('',#1482);
#423=VERTEX_POINT('',#1484);
#424=VERTEX_POINT('',#1487);
#425=VERTEX_POINT('',#1488);
#426=VERTEX_POINT('',#1490);
#427=VERTEX_POINT('',#1492);
#428=VERTEX_POINT('',#1495);
#429=VERTEX_POINT('',#1496);
#430=VERTEX_POINT('',#1498);
#431=VERTEX_POINT('',#1500);
#432=VERTEX_POINT('',#1504);
#433=VERTEX_POINT('',#1505);
#434=VERTEX_POINT('',#1510);
#435=VERTEX_POINT('',#1514);
#436=VERTEX_POINT('',#1518);
#437=VERTEX_POINT('',#1523);
#438=VERTEX_POINT('',#1527);
#439=VERTEX_POINT('',#1529);
#440=VERTEX_POINT('',#1533);
#441=VERTEX_POINT('',#1537);
#442=VERTEX_POINT('',#1544);
#443=VERTEX_POINT('',#1546);
#444=VERTEX_POINT('',#1550);
#445=VERTEX_POINT('',#1554);
#446=VERTEX_POINT('',#1561);
#447=VERTEX_POINT('',#1563);
#448=VERTEX_POINT('',#1567);
#449=VERTEX_POINT('',#1571);
#450=VERTEX_POINT('',#1578);
#451=VERTEX_POINT('',#1580);
#452=VERTEX_POINT('',#1584);
#453=VERTEX_POINT('',#1588);
#454=VERTEX_POINT('',#1595);
#455=VERTEX_POINT('',#1597);
#456=VERTEX_POINT('',#1601);
#457=VERTEX_POINT('',#1605);
#458=VERTEX_POINT('',#1612);
#459=VERTEX_POINT('',#1614);
#460=VERTEX_POINT('',#1618);
#461=VERTEX_POINT('',#1622);
#462=VERTEX_POINT('',#1629);
#463=VERTEX_POINT('',#1631);
#464=VERTEX_POINT('',#1635);
#465=VERTEX_POINT('',#1639);
#466=VERTEX_POINT('',#1646);
#467=VERTEX_POINT('',#1648);
#468=VERTEX_POINT('',#1652);
#469=VERTEX_POINT('',#1656);
#470=LINE('',#1426,#578);
#471=LINE('',#1429,#579);
#472=LINE('',#1431,#580);
#473=LINE('',#1433,#581);
#474=LINE('',#1438,#582);
#475=LINE('',#1441,#583);
#476=LINE('',#1443,#584);
#477=LINE('',#1445,#585);
#478=LINE('',#1446,#586);
#479=LINE('',#1449,#587);
#480=LINE('',#1451,#588);
#481=LINE('',#1453,#589);
#482=LINE('',#1454,#590);
#483=LINE('',#1457,#591);
#484=LINE('',#1459,#592);
#485=LINE('',#1461,#593);
#486=LINE('',#1462,#594);
#487=LINE('',#1465,#595);
#488=LINE('',#1467,#596);
#489=LINE('',#1469,#597);
#490=LINE('',#1470,#598);
#491=LINE('',#1473,#599);
#492=LINE('',#1475,#600);
#493=LINE('',#1477,#601);
#494=LINE('',#1478,#602);
#495=LINE('',#1481,#603);
#496=LINE('',#1483,#604);
#497=LINE('',#1485,#605);
#498=LINE('',#1486,#606);
#499=LINE('',#1489,#607);
#500=LINE('',#1491,#608);
#501=LINE('',#1493,#609);
#502=LINE('',#1494,#610);
#503=LINE('',#1497,#611);
#504=LINE('',#1499,#612);
#505=LINE('',#1501,#613);
#506=LINE('',#1503,#614);
#507=LINE('',#1506,#615);
#508=LINE('',#1507,#616);
#509=LINE('',#1509,#617);
#510=LINE('',#1511,#618);
#511=LINE('',#1513,#619);
#512=LINE('',#1515,#620);
#513=LINE('',#1520,#621);
#514=LINE('',#1526,#622);
#515=LINE('',#1528,#623);
#516=LINE('',#1530,#624);
#517=LINE('',#1532,#625);
#518=LINE('',#1534,#626);
#519=LINE('',#1536,#627);
#520=LINE('',#1538,#628);
#521=LINE('',#1540,#629);
#522=LINE('',#1543,#630);
#523=LINE('',#1545,#631);
#524=LINE('',#1547,#632);
#525=LINE('',#1549,#633);
#526=LINE('',#1551,#634);
#527=LINE('',#1553,#635);
#528=LINE('',#1555,#636);
#529=LINE('',#1557,#637);
#530=LINE('',#1560,#638);
#531=LINE('',#1562,#639);
#532=LINE('',#1564,#640);
#533=LINE('',#1566,#641);
#534=LINE('',#1568,#642);
#535=LINE('',#1570,#643);
#536=LINE('',#1572,#644);
#537=LINE('',#1574,#645);
#538=LINE('',#1577,#646);
#539=LINE('',#1579,#647);
#540=LINE('',#1581,#648);
#541=LINE('',#1583,#649);
#542=LINE('',#1585,#650);
#543=LINE('',#1587,#651);
#544=LINE('',#1589,#652);
#545=LINE('',#1591,#653);
#546=LINE('',#1594,#654);
#547=LINE('',#1596,#655);
#548=LINE('',#1598,#656);
#549=LINE('',#1600,#657);
#550=LINE('',#1602,#658);
#551=LINE('',#1604,#659);
#552=LINE('',#1606,#660);
#553=LINE('',#1608,#661);
#554=LINE('',#1611,#662);
#555=LINE('',#1613,#663);
#556=LINE('',#1615,#664);
#557=LINE('',#1617,#665);
#558=LINE('',#1619,#666);
#559=LINE('',#1621,#667);
#560=LINE('',#1623,#668);
#561=LINE('',#1625,#669);
#562=LINE('',#1628,#670);
#563=LINE('',#1630,#671);
#564=LINE('',#1632,#672);
#565=LINE('',#1634,#673);
#566=LINE('',#1636,#674);
#567=LINE('',#1638,#675);
#568=LINE('',#1640,#676);
#569=LINE('',#1642,#677);
#570=LINE('',#1645,#678);
#571=LINE('',#1647,#679);
#572=LINE('',#1649,#680);
#573=LINE('',#1651,#681);
#574=LINE('',#1653,#682);
#575=LINE('',#1655,#683);
#576=LINE('',#1657,#684);
#577=LINE('',#1659,#685);
#578=VECTOR('',#1214,1.);
#579=VECTOR('',#1215,1.);
#580=VECTOR('',#1216,1.);
#581=VECTOR('',#1217,1.);
#582=VECTOR('',#1222,1.);
#583=VECTOR('',#1223,1.);
#584=VECTOR('',#1224,1.);
#585=VECTOR('',#1225,1.);
#586=VECTOR('',#1226,1.);
#587=VECTOR('',#1227,1.);
#588=VECTOR('',#1228,1.);
#589=VECTOR('',#1229,1.);
#590=VECTOR('',#1230,1.);
#591=VECTOR('',#1231,1.);
#592=VECTOR('',#1232,1.);
#593=VECTOR('',#1233,1.);
#594=VECTOR('',#1234,1.);
#595=VECTOR('',#1235,1.);
#596=VECTOR('',#1236,1.);
#597=VECTOR('',#1237,1.);
#598=VECTOR('',#1238,1.);
#599=VECTOR('',#1239,1.);
#600=VECTOR('',#1240,1.);
#601=VECTOR('',#1241,1.);
#602=VECTOR('',#1242,1.);
#603=VECTOR('',#1243,1.);
#604=VECTOR('',#1244,1.);
#605=VECTOR('',#1245,1.);
#606=VECTOR('',#1246,1.);
#607=VECTOR('',#1247,1.);
#608=VECTOR('',#1248,1.);
#609=VECTOR('',#1249,1.);
#610=VECTOR('',#1250,1.);
#611=VECTOR('',#1251,1.);
#612=VECTOR('',#1252,1.);
#613=VECTOR('',#1253,1.);
#614=VECTOR('',#1256,1.);
#615=VECTOR('',#1257,1.);
#616=VECTOR('',#1258,1.);
#617=VECTOR('',#1261,1.);
#618=VECTOR('',#1262,1.);
#619=VECTOR('',#1265,1.);
#620=VECTOR('',#1266,1.);
#621=VECTOR('',#1273,1.);
#622=VECTOR('',#1282,1.);
#623=VECTOR('',#1283,1.);
#624=VECTOR('',#1284,1.);
#625=VECTOR('',#1287,1.);
#626=VECTOR('',#1288,1.);
#627=VECTOR('',#1291,1.);
#628=VECTOR('',#1292,1.);
#629=VECTOR('',#1295,1.);
#630=VECTOR('',#1300,1.);
#631=VECTOR('',#1301,1.);
#632=VECTOR('',#1302,1.);
#633=VECTOR('',#1305,1.);
#634=VECTOR('',#1306,1.);
#635=VECTOR('',#1309,1.);
#636=VECTOR('',#1310,1.);
#637=VECTOR('',#1313,1.);
#638=VECTOR('',#1318,1.);
#639=VECTOR('',#1319,1.);
#640=VECTOR('',#1320,1.);
#641=VECTOR('',#1323,1.);
#642=VECTOR('',#1324,1.);
#643=VECTOR('',#1327,1.);
#644=VECTOR('',#1328,1.);
#645=VECTOR('',#1331,1.);
#646=VECTOR('',#1336,1.);
#647=VECTOR('',#1337,1.);
#648=VECTOR('',#1338,1.);
#649=VECTOR('',#1341,1.);
#650=VECTOR('',#1342,1.);
#651=VECTOR('',#1345,1.);
#652=VECTOR('',#1346,1.);
#653=VECTOR('',#1349,1.);
#654=VECTOR('',#1354,1.);
#655=VECTOR('',#1355,1.);
#656=VECTOR('',#1356,1.);
#657=VECTOR('',#1359,1.);
#658=VECTOR('',#1360,1.);
#659=VECTOR('',#1363,1.);
#660=VECTOR('',#1364,1.);
#661=VECTOR('',#1367,1.);
#662=VECTOR('',#1372,1.);
#663=VECTOR('',#1373,1.);
#664=VECTOR('',#1374,1.);
#665=VECTOR('',#1377,1.);
#666=VECTOR('',#1378,1.);
#667=VECTOR('',#1381,1.);
#668=VECTOR('',#1382,1.);
#669=VECTOR('',#1385,1.);
#670=VECTOR('',#1390,1.);
#671=VECTOR('',#1391,1.);
#672=VECTOR('',#1392,1.);
#673=VECTOR('',#1395,1.);
#674=VECTOR('',#1396,1.);
#675=VECTOR('',#1399,1.);
#676=VECTOR('',#1400,1.);
#677=VECTOR('',#1403,1.);
#678=VECTOR('',#1408,1.);
#679=VECTOR('',#1409,1.);
#680=VECTOR('',#1410,1.);
#681=VECTOR('',#1413,1.);
#682=VECTOR('',#1414,1.);
#683=VECTOR('',#1417,1.);
#684=VECTOR('',#1418,1.);
#685=VECTOR('',#1421,1.);
#686=EDGE_LOOP('',(#58,#59,#60,#61));
#687=EDGE_LOOP('',(#62));
#688=EDGE_LOOP('',(#63));
#689=EDGE_LOOP('',(#64,#65,#66,#67));
#690=EDGE_LOOP('',(#68,#69,#70,#71));
#691=EDGE_LOOP('',(#72,#73,#74,#75));
#692=EDGE_LOOP('',(#76,#77,#78,#79));
#693=EDGE_LOOP('',(#80,#81,#82,#83));
#694=EDGE_LOOP('',(#84,#85,#86,#87));
#695=EDGE_LOOP('',(#88,#89,#90,#91));
#696=EDGE_LOOP('',(#92,#93,#94,#95));
#697=EDGE_LOOP('',(#96,#97,#98,#99));
#698=EDGE_LOOP('',(#100,#101,#102,#103));
#699=EDGE_LOOP('',(#104,#105,#106,#107));
#700=EDGE_LOOP('',(#108));
#701=EDGE_LOOP('',(#109));
#702=EDGE_LOOP('',(#110,#111,#112,#113));
#703=EDGE_LOOP('',(#114));
#704=EDGE_LOOP('',(#115));
#705=EDGE_LOOP('',(#116,#117,#118,#119));
#706=EDGE_LOOP('',(#120));
#707=EDGE_LOOP('',(#121));
#708=EDGE_LOOP('',(#122,#123,#124,#125));
#709=EDGE_LOOP('',(#126,#127,#128,#129));
#710=EDGE_LOOP('',(#130,#131,#132,#133));
#711=EDGE_LOOP('',(#134,#135,#136,#137));
#712=EDGE_LOOP('',(#138,#139,#140,#141));
#713=EDGE_LOOP('',(#142,#143,#144,#145));
#714=EDGE_LOOP('',(#146,#147,#148,#149));
#715=EDGE_LOOP('',(#150,#151,#152,#153));
#716=EDGE_LOOP('',(#154,#155,#156,#157));
#717=EDGE_LOOP('',(#158,#159,#160,#161));
#718=EDGE_LOOP('',(#162,#163,#164,#165));
#719=EDGE_LOOP('',(#166,#167,#168,#169));
#720=EDGE_LOOP('',(#170,#171,#172,#173));
#721=EDGE_LOOP('',(#174,#175,#176,#177));
#722=EDGE_LOOP('',(#178,#179,#180,#181));
#723=EDGE_LOOP('',(#182,#183,#184,#185));
#724=EDGE_LOOP('',(#186,#187,#188,#189));
#725=EDGE_LOOP('',(#190,#191,#192,#193));
#726=EDGE_LOOP('',(#194,#195,#196,#197));
#727=EDGE_LOOP('',(#198,#199,#200,#201));
#728=EDGE_LOOP('',(#202,#203,#204,#205));
#729=EDGE_LOOP('',(#206,#207,#208,#209));
#730=EDGE_LOOP('',(#210,#211,#212,#213));
#731=EDGE_LOOP('',(#214,#215,#216,#217));
#732=EDGE_LOOP('',(#218,#219,#220,#221));
#733=EDGE_LOOP('',(#222,#223,#224,#225));
#734=EDGE_LOOP('',(#226,#227,#228,#229));
#735=EDGE_LOOP('',(#230,#231,#232,#233));
#736=EDGE_LOOP('',(#234,#235,#236,#237));
#737=EDGE_LOOP('',(#238,#239,#240,#241));
#738=EDGE_LOOP('',(#242,#243,#244,#245));
#739=EDGE_LOOP('',(#246,#247,#248,#249));
#740=EDGE_LOOP('',(#250,#251,#252,#253));
#741=EDGE_LOOP('',(#254,#255,#256,#257));
#742=EDGE_LOOP('',(#258,#259,#260,#261));
#743=EDGE_LOOP('',(#262,#263,#264,#265));
#744=EDGE_LOOP('',(#266,#267,#268,#269));
#745=EDGE_LOOP('',(#270,#271,#272,#273));
#746=EDGE_LOOP('',(#274,#275,#276,#277));
#747=EDGE_LOOP('',(#278,#279,#280,#281));
#748=FACE_BOUND('',#686,.T.);
#749=FACE_BOUND('',#687,.T.);
#750=FACE_BOUND('',#688,.T.);
#751=FACE_BOUND('',#689,.T.);
#752=FACE_BOUND('',#690,.T.);
#753=FACE_BOUND('',#691,.T.);
#754=FACE_BOUND('',#692,.T.);
#755=FACE_BOUND('',#693,.T.);
#756=FACE_BOUND('',#694,.T.);
#757=FACE_BOUND('',#695,.T.);
#758=FACE_BOUND('',#696,.T.);
#759=FACE_BOUND('',#697,.T.);
#760=FACE_BOUND('',#698,.T.);
#761=FACE_BOUND('',#699,.T.);
#762=FACE_BOUND('',#700,.T.);
#763=FACE_BOUND('',#701,.T.);
#764=FACE_BOUND('',#702,.T.);
#765=FACE_BOUND('',#703,.T.);
#766=FACE_BOUND('',#704,.T.);
#767=FACE_BOUND('',#705,.T.);
#768=FACE_BOUND('',#706,.T.);
#769=FACE_BOUND('',#707,.T.);
#770=FACE_BOUND('',#708,.T.);
#771=FACE_BOUND('',#709,.T.);
#772=FACE_BOUND('',#710,.T.);
#773=FACE_BOUND('',#711,.T.);
#774=FACE_BOUND('',#712,.T.);
#775=FACE_BOUND('',#713,.T.);
#776=FACE_BOUND('',#714,.T.);
#777=FACE_BOUND('',#715,.T.);
#778=FACE_BOUND('',#716,.T.);
#779=FACE_BOUND('',#717,.T.);
#780=FACE_BOUND('',#718,.T.);
#781=FACE_BOUND('',#719,.T.);
#782=FACE_BOUND('',#720,.T.);
#783=FACE_BOUND('',#721,.T.);
#784=FACE_BOUND('',#722,.T.);
#785=FACE_BOUND('',#723,.T.);
#786=FACE_BOUND('',#724,.T.);
#787=FACE_BOUND('',#725,.T.);
#788=FACE_BOUND('',#726,.T.);
#789=FACE_BOUND('',#727,.T.);
#790=FACE_BOUND('',#728,.T.);
#791=FACE_BOUND('',#729,.T.);
#792=FACE_BOUND('',#730,.T.);
#793=FACE_BOUND('',#731,.T.);
#794=FACE_BOUND('',#732,.T.);
#795=FACE_BOUND('',#733,.T.);
#796=FACE_BOUND('',#734,.T.);
#797=FACE_BOUND('',#735,.T.);
#798=FACE_BOUND('',#736,.T.);
#799=FACE_BOUND('',#737,.T.);
#800=FACE_BOUND('',#738,.T.);
#801=FACE_BOUND('',#739,.T.);
#802=FACE_BOUND('',#740,.T.);
#803=FACE_BOUND('',#741,.T.);
#804=FACE_BOUND('',#742,.T.);
#805=FACE_BOUND('',#743,.T.);
#806=FACE_BOUND('',#744,.T.);
#807=FACE_BOUND('',#745,.T.);
#808=FACE_BOUND('',#746,.T.);
#809=FACE_BOUND('',#747,.T.);
#810=PLANE('',#1158);
#811=PLANE('',#1161);
#812=PLANE('',#1162);
#813=PLANE('',#1163);
#814=PLANE('',#1166);
#815=PLANE('',#1169);
#816=PLANE('',#1170);
#817=PLANE('',#1171);
#818=PLANE('',#1172);
#819=PLANE('',#1173);
#820=PLANE('',#1174);
#821=PLANE('',#1175);
#822=PLANE('',#1176);
#823=PLANE('',#1177);
#824=PLANE('',#1178);
#825=PLANE('',#1179);
#826=PLANE('',#1180);
#827=PLANE('',#1181);
#828=PLANE('',#1182);
#829=PLANE('',#1183);
#830=PLANE('',#1184);
#831=PLANE('',#1185);
#832=PLANE('',#1186);
#833=PLANE('',#1187);
#834=PLANE('',#1188);
#835=PLANE('',#1189);
#836=PLANE('',#1190);
#837=PLANE('',#1191);
#838=PLANE('',#1192);
#839=PLANE('',#1193);
#840=PLANE('',#1194);
#841=PLANE('',#1195);
#842=PLANE('',#1196);
#843=PLANE('',#1197);
#844=PLANE('',#1198);
#845=PLANE('',#1199);
#846=PLANE('',#1200);
#847=PLANE('',#1201);
#848=PLANE('',#1202);
#849=PLANE('',#1203);
#850=PLANE('',#1204);
#851=PLANE('',#1205);
#852=PLANE('',#1206);
#853=PLANE('',#1207);
#854=PLANE('',#1208);
#855=PLANE('',#1209);
#856=ADVANCED_FACE('',(#748,#749,#750,#751,#752,#753,#754,#755,#756,#757,
#758),#810,.T.);
#857=ADVANCED_FACE('',(#759),#811,.T.);
#858=ADVANCED_FACE('',(#760),#812,.F.);
#859=ADVANCED_FACE('',(#761),#813,.F.);
#860=ADVANCED_FACE('',(#762,#763),#52,.F.);
#861=ADVANCED_FACE('',(#764),#814,.T.);
#862=ADVANCED_FACE('',(#765,#766),#53,.F.);
#863=ADVANCED_FACE('',(#767,#768,#769),#815,.F.);
#864=ADVANCED_FACE('Face appearance 1',(#770),#816,.T.);
#865=ADVANCED_FACE('Face appearance 1',(#771),#817,.T.);
#866=ADVANCED_FACE('Face appearance 1',(#772),#818,.F.);
#867=ADVANCED_FACE('Face appearance 1',(#773),#819,.F.);
#868=ADVANCED_FACE('Face appearance 1',(#774),#820,.T.);
#869=ADVANCED_FACE('Face appearance 1',(#775),#821,.T.);
#870=ADVANCED_FACE('Face appearance 1',(#776),#822,.T.);
#871=ADVANCED_FACE('Face appearance 1',(#777),#823,.F.);
#872=ADVANCED_FACE('Face appearance 1',(#778),#824,.F.);
#873=ADVANCED_FACE('Face appearance 1',(#779),#825,.T.);
#874=ADVANCED_FACE('Face appearance 1',(#780),#826,.T.);
#875=ADVANCED_FACE('Face appearance 1',(#781),#827,.T.);
#876=ADVANCED_FACE('Face appearance 1',(#782),#828,.F.);
#877=ADVANCED_FACE('Face appearance 1',(#783),#829,.F.);
#878=ADVANCED_FACE('Face appearance 1',(#784),#830,.T.);
#879=ADVANCED_FACE('Face appearance 1',(#785),#831,.T.);
#880=ADVANCED_FACE('Face appearance 1',(#786),#832,.T.);
#881=ADVANCED_FACE('Face appearance 1',(#787),#833,.F.);
#882=ADVANCED_FACE('Face appearance 1',(#788),#834,.F.);
#883=ADVANCED_FACE('Face appearance 1',(#789),#835,.T.);
#884=ADVANCED_FACE('Face appearance 1',(#790),#836,.T.);
#885=ADVANCED_FACE('Face appearance 1',(#791),#837,.T.);
#886=ADVANCED_FACE('Face appearance 1',(#792),#838,.F.);
#887=ADVANCED_FACE('Face appearance 1',(#793),#839,.F.);
#888=ADVANCED_FACE('Face appearance 1',(#794),#840,.T.);
#889=ADVANCED_FACE('Face appearance 1',(#795),#841,.T.);
#890=ADVANCED_FACE('Face appearance 1',(#796),#842,.T.);
#891=ADVANCED_FACE('Face appearance 1',(#797),#843,.F.);
#892=ADVANCED_FACE('Face appearance 1',(#798),#844,.F.);
#893=ADVANCED_FACE('Face appearance 1',(#799),#845,.T.);
#894=ADVANCED_FACE('Face appearance 1',(#800),#846,.T.);
#895=ADVANCED_FACE('Face appearance 1',(#801),#847,.T.);
#896=ADVANCED_FACE('Face appearance 1',(#802),#848,.F.);
#897=ADVANCED_FACE('Face appearance 1',(#803),#849,.F.);
#898=ADVANCED_FACE('Face appearance 1',(#804),#850,.T.);
#899=ADVANCED_FACE('Face appearance 1',(#805),#851,.T.);
#900=ADVANCED_FACE('Face appearance 1',(#806),#852,.F.);
#901=ADVANCED_FACE('Face appearance 1',(#807),#853,.F.);
#902=ADVANCED_FACE('Face appearance 1',(#808),#854,.T.);
#903=ADVANCED_FACE('Face appearance 1',(#809),#855,.T.);
#904=CLOSED_SHELL('',(#856,#857,#858,#859,#860,#861,#862,#863,#864,#865,
#866,#867,#868,#869,#870,#871,#872,#873,#874,#875,#876,#877,#878,#879,#880,
#881,#882,#883,#884,#885,#886,#887,#888,#889,#890,#891,#892,#893,#894,#895,
#896,#897,#898,#899,#900,#901,#902,#903));
#905=STYLED_ITEM('',(#906),#1154);
#906=PRESENTATION_STYLE_ASSIGNMENT((#947));
#907=PRESENTATION_STYLE_ASSIGNMENT((#948));
#908=PRESENTATION_STYLE_ASSIGNMENT((#949));
#909=PRESENTATION_STYLE_ASSIGNMENT((#950));
#910=PRESENTATION_STYLE_ASSIGNMENT((#951));
#911=PRESENTATION_STYLE_ASSIGNMENT((#952));
#912=PRESENTATION_STYLE_ASSIGNMENT((#953));
#913=PRESENTATION_STYLE_ASSIGNMENT((#954));
#914=PRESENTATION_STYLE_ASSIGNMENT((#955));
#915=PRESENTATION_STYLE_ASSIGNMENT((#956));
#916=PRESENTATION_STYLE_ASSIGNMENT((#957));
#917=PRESENTATION_STYLE_ASSIGNMENT((#958));
#918=PRESENTATION_STYLE_ASSIGNMENT((#959));
#919=PRESENTATION_STYLE_ASSIGNMENT((#960));
#920=PRESENTATION_STYLE_ASSIGNMENT((#961));
#921=PRESENTATION_STYLE_ASSIGNMENT((#962));
#922=PRESENTATION_STYLE_ASSIGNMENT((#963));
#923=PRESENTATION_STYLE_ASSIGNMENT((#964));
#924=PRESENTATION_STYLE_ASSIGNMENT((#965));
#925=PRESENTATION_STYLE_ASSIGNMENT((#966));
#926=PRESENTATION_STYLE_ASSIGNMENT((#967));
#927=PRESENTATION_STYLE_ASSIGNMENT((#968));
#928=PRESENTATION_STYLE_ASSIGNMENT((#969));
#929=PRESENTATION_STYLE_ASSIGNMENT((#970));
#930=PRESENTATION_STYLE_ASSIGNMENT((#971));
#931=PRESENTATION_STYLE_ASSIGNMENT((#972));
#932=PRESENTATION_STYLE_ASSIGNMENT((#973));
#933=PRESENTATION_STYLE_ASSIGNMENT((#974));
#934=PRESENTATION_STYLE_ASSIGNMENT((#975));
#935=PRESENTATION_STYLE_ASSIGNMENT((#976));
#936=PRESENTATION_STYLE_ASSIGNMENT((#977));
#937=PRESENTATION_STYLE_ASSIGNMENT((#978));
#938=PRESENTATION_STYLE_ASSIGNMENT((#979));
#939=PRESENTATION_STYLE_ASSIGNMENT((#980));
#940=PRESENTATION_STYLE_ASSIGNMENT((#981));
#941=PRESENTATION_STYLE_ASSIGNMENT((#982));
#942=PRESENTATION_STYLE_ASSIGNMENT((#983));
#943=PRESENTATION_STYLE_ASSIGNMENT((#984));
#944=PRESENTATION_STYLE_ASSIGNMENT((#985));
#945=PRESENTATION_STYLE_ASSIGNMENT((#986));
#946=PRESENTATION_STYLE_ASSIGNMENT((#987));
#947=SURFACE_STYLE_USAGE(.BOTH.,#988);
#948=SURFACE_STYLE_USAGE(.BOTH.,#989);
#949=SURFACE_STYLE_USAGE(.BOTH.,#990);
#950=SURFACE_STYLE_USAGE(.BOTH.,#991);
#951=SURFACE_STYLE_USAGE(.BOTH.,#992);
#952=SURFACE_STYLE_USAGE(.BOTH.,#993);
#953=SURFACE_STYLE_USAGE(.BOTH.,#994);
#954=SURFACE_STYLE_USAGE(.BOTH.,#995);
#955=SURFACE_STYLE_USAGE(.BOTH.,#996);
#956=SURFACE_STYLE_USAGE(.BOTH.,#997);
#957=SURFACE_STYLE_USAGE(.BOTH.,#998);
#958=SURFACE_STYLE_USAGE(.BOTH.,#999);
#959=SURFACE_STYLE_USAGE(.BOTH.,#1000);
#960=SURFACE_STYLE_USAGE(.BOTH.,#1001);
#961=SURFACE_STYLE_USAGE(.BOTH.,#1002);
#962=SURFACE_STYLE_USAGE(.BOTH.,#1003);
#963=SURFACE_STYLE_USAGE(.BOTH.,#1004);
#964=SURFACE_STYLE_USAGE(.BOTH.,#1005);
#965=SURFACE_STYLE_USAGE(.BOTH.,#1006);
#966=SURFACE_STYLE_USAGE(.BOTH.,#1007);
#967=SURFACE_STYLE_USAGE(.BOTH.,#1008);
#968=SURFACE_STYLE_USAGE(.BOTH.,#1009);
#969=SURFACE_STYLE_USAGE(.BOTH.,#1010);
#970=SURFACE_STYLE_USAGE(.BOTH.,#1011);
#971=SURFACE_STYLE_USAGE(.BOTH.,#1012);
#972=SURFACE_STYLE_USAGE(.BOTH.,#1013);
#973=SURFACE_STYLE_USAGE(.BOTH.,#1014);
#974=SURFACE_STYLE_USAGE(.BOTH.,#1015);
#975=SURFACE_STYLE_USAGE(.BOTH.,#1016);
#976=SURFACE_STYLE_USAGE(.BOTH.,#1017);
#977=SURFACE_STYLE_USAGE(.BOTH.,#1018);
#978=SURFACE_STYLE_USAGE(.BOTH.,#1019);
#979=SURFACE_STYLE_USAGE(.BOTH.,#1020);
#980=SURFACE_STYLE_USAGE(.BOTH.,#1021);
#981=SURFACE_STYLE_USAGE(.BOTH.,#1022);
#982=SURFACE_STYLE_USAGE(.BOTH.,#1023);
#983=SURFACE_STYLE_USAGE(.BOTH.,#1024);
#984=SURFACE_STYLE_USAGE(.BOTH.,#1025);
#985=SURFACE_STYLE_USAGE(.BOTH.,#1026);
#986=SURFACE_STYLE_USAGE(.BOTH.,#1027);
#987=SURFACE_STYLE_USAGE(.BOTH.,#1028);
#988=SURFACE_SIDE_STYLE('',(#1029));
#989=SURFACE_SIDE_STYLE('',(#1030));
#990=SURFACE_SIDE_STYLE('',(#1031));
#991=SURFACE_SIDE_STYLE('',(#1032));
#992=SURFACE_SIDE_STYLE('',(#1033));
#993=SURFACE_SIDE_STYLE('',(#1034));
#994=SURFACE_SIDE_STYLE('',(#1035));
#995=SURFACE_SIDE_STYLE('',(#1036));
#996=SURFACE_SIDE_STYLE('',(#1037));
#997=SURFACE_SIDE_STYLE('',(#1038));
#998=SURFACE_SIDE_STYLE('',(#1039));
#999=SURFACE_SIDE_STYLE('',(#1040));
#1000=SURFACE_SIDE_STYLE('',(#1041));
#1001=SURFACE_SIDE_STYLE('',(#1042));
#1002=SURFACE_SIDE_STYLE('',(#1043));
#1003=SURFACE_SIDE_STYLE('',(#1044));
#1004=SURFACE_SIDE_STYLE('',(#1045));
#1005=SURFACE_SIDE_STYLE('',(#1046));
#1006=SURFACE_SIDE_STYLE('',(#1047));
#1007=SURFACE_SIDE_STYLE('',(#1048));
#1008=SURFACE_SIDE_STYLE('',(#1049));
#1009=SURFACE_SIDE_STYLE('',(#1050));
#1010=SURFACE_SIDE_STYLE('',(#1051));
#1011=SURFACE_SIDE_STYLE('',(#1052));
#1012=SURFACE_SIDE_STYLE('',(#1053));
#1013=SURFACE_SIDE_STYLE('',(#1054));
#1014=SURFACE_SIDE_STYLE('',(#1055));
#1015=SURFACE_SIDE_STYLE('',(#1056));
#1016=SURFACE_SIDE_STYLE('',(#1057));
#1017=SURFACE_SIDE_STYLE('',(#1058));
#1018=SURFACE_SIDE_STYLE('',(#1059));
#1019=SURFACE_SIDE_STYLE('',(#1060));
#1020=SURFACE_SIDE_STYLE('',(#1061));
#1021=SURFACE_SIDE_STYLE('',(#1062));
#1022=SURFACE_SIDE_STYLE('',(#1063));
#1023=SURFACE_SIDE_STYLE('',(#1064));
#1024=SURFACE_SIDE_STYLE('',(#1065));
#1025=SURFACE_SIDE_STYLE('',(#1066));
#1026=SURFACE_SIDE_STYLE('',(#1067));
#1027=SURFACE_SIDE_STYLE('',(#1068));
#1028=SURFACE_SIDE_STYLE('',(#1069));
#1029=SURFACE_STYLE_FILL_AREA(#1070);
#1030=SURFACE_STYLE_FILL_AREA(#1071);
#1031=SURFACE_STYLE_FILL_AREA(#1072);
#1032=SURFACE_STYLE_FILL_AREA(#1073);
#1033=SURFACE_STYLE_FILL_AREA(#1074);
#1034=SURFACE_STYLE_FILL_AREA(#1075);
#1035=SURFACE_STYLE_FILL_AREA(#1076);
#1036=SURFACE_STYLE_FILL_AREA(#1077);
#1037=SURFACE_STYLE_FILL_AREA(#1078);
#1038=SURFACE_STYLE_FILL_AREA(#1079);
#1039=SURFACE_STYLE_FILL_AREA(#1080);
#1040=SURFACE_STYLE_FILL_AREA(#1081);
#1041=SURFACE_STYLE_FILL_AREA(#1082);
#1042=SURFACE_STYLE_FILL_AREA(#1083);
#1043=SURFACE_STYLE_FILL_AREA(#1084);
#1044=SURFACE_STYLE_FILL_AREA(#1085);
#1045=SURFACE_STYLE_FILL_AREA(#1086);
#1046=SURFACE_STYLE_FILL_AREA(#1087);
#1047=SURFACE_STYLE_FILL_AREA(#1088);
#1048=SURFACE_STYLE_FILL_AREA(#1089);
#1049=SURFACE_STYLE_FILL_AREA(#1090);
#1050=SURFACE_STYLE_FILL_AREA(#1091);
#1051=SURFACE_STYLE_FILL_AREA(#1092);
#1052=SURFACE_STYLE_FILL_AREA(#1093);
#1053=SURFACE_STYLE_FILL_AREA(#1094);
#1054=SURFACE_STYLE_FILL_AREA(#1095);
#1055=SURFACE_STYLE_FILL_AREA(#1096);
#1056=SURFACE_STYLE_FILL_AREA(#1097);
#1057=SURFACE_STYLE_FILL_AREA(#1098);
#1058=SURFACE_STYLE_FILL_AREA(#1099);
#1059=SURFACE_STYLE_FILL_AREA(#1100);
#1060=SURFACE_STYLE_FILL_AREA(#1101);
#1061=SURFACE_STYLE_FILL_AREA(#1102);
#1062=SURFACE_STYLE_FILL_AREA(#1103);
#1063=SURFACE_STYLE_FILL_AREA(#1104);
#1064=SURFACE_STYLE_FILL_AREA(#1105);
#1065=SURFACE_STYLE_FILL_AREA(#1106);
#1066=SURFACE_STYLE_FILL_AREA(#1107);
#1067=SURFACE_STYLE_FILL_AREA(#1108);
#1068=SURFACE_STYLE_FILL_AREA(#1109);
#1069=SURFACE_STYLE_FILL_AREA(#1110);
#1070=FILL_AREA_STYLE('',(#1111));
#1071=FILL_AREA_STYLE('',(#1112));
#1072=FILL_AREA_STYLE('',(#1113));
#1073=FILL_AREA_STYLE('',(#1114));
#1074=FILL_AREA_STYLE('',(#1115));
#1075=FILL_AREA_STYLE('',(#1116));
#1076=FILL_AREA_STYLE('',(#1117));
#1077=FILL_AREA_STYLE('',(#1118));
#1078=FILL_AREA_STYLE('',(#1119));
#1079=FILL_AREA_STYLE('',(#1120));
#1080=FILL_AREA_STYLE('',(#1121));
#1081=FILL_AREA_STYLE('',(#1122));
#1082=FILL_AREA_STYLE('',(#1123));
#1083=FILL_AREA_STYLE('',(#1124));
#1084=FILL_AREA_STYLE('',(#1125));
#1085=FILL_AREA_STYLE('',(#1126));
#1086=FILL_AREA_STYLE('',(#1127));
#1087=FILL_AREA_STYLE('',(#1128));
#1088=FILL_AREA_STYLE('',(#1129));
#1089=FILL_AREA_STYLE('',(#1130));
#1090=FILL_AREA_STYLE('',(#1131));
#1091=FILL_AREA_STYLE('',(#1132));
#1092=FILL_AREA_STYLE('',(#1133));
#1093=FILL_AREA_STYLE('',(#1134));
#1094=FILL_AREA_STYLE('',(#1135));
#1095=FILL_AREA_STYLE('',(#1136));
#1096=FILL_AREA_STYLE('',(#1137));
#1097=FILL_AREA_STYLE('',(#1138));
#1098=FILL_AREA_STYLE('',(#1139));
#1099=FILL_AREA_STYLE('',(#1140));
#1100=FILL_AREA_STYLE('',(#1141));
#1101=FILL_AREA_STYLE('',(#1142));
#1102=FILL_AREA_STYLE('',(#1143));
#1103=FILL_AREA_STYLE('',(#1144));
#1104=FILL_AREA_STYLE('',(#1145));
#1105=FILL_AREA_STYLE('',(#1146));
#1106=FILL_AREA_STYLE('',(#1147));
#1107=FILL_AREA_STYLE('',(#1148));
#1108=FILL_AREA_STYLE('',(#1149));
#1109=FILL_AREA_STYLE('',(#1150));
#1110=FILL_AREA_STYLE('',(#1151));
#1111=FILL_AREA_STYLE_COLOUR('',#1152);
#1112=FILL_AREA_STYLE_COLOUR('',#1153);
#1113=FILL_AREA_STYLE_COLOUR('',#1153);
#1114=FILL_AREA_STYLE_COLOUR('',#1153);
#1115=FILL_AREA_STYLE_COLOUR('',#1153);
#1116=FILL_AREA_STYLE_COLOUR('',#1153);
#1117=FILL_AREA_STYLE_COLOUR('',#1153);
#1118=FILL_AREA_STYLE_COLOUR('',#1153);
#1119=FILL_AREA_STYLE_COLOUR('',#1153);
#1120=FILL_AREA_STYLE_COLOUR('',#1153);
#1121=FILL_AREA_STYLE_COLOUR('',#1153);
#1122=FILL_AREA_STYLE_COLOUR('',#1153);
#1123=FILL_AREA_STYLE_COLOUR('',#1153);
#1124=FILL_AREA_STYLE_COLOUR('',#1153);
#1125=FILL_AREA_STYLE_COLOUR('',#1153);
#1126=FILL_AREA_STYLE_COLOUR('',#1153);
#1127=FILL_AREA_STYLE_COLOUR('',#1153);
#1128=FILL_AREA_STYLE_COLOUR('',#1153);
#1129=FILL_AREA_STYLE_COLOUR('',#1153);
#1130=FILL_AREA_STYLE_COLOUR('',#1153);
#1131=FILL_AREA_STYLE_COLOUR('',#1153);
#1132=FILL_AREA_STYLE_COLOUR('',#1153);
#1133=FILL_AREA_STYLE_COLOUR('',#1153);
#1134=FILL_AREA_STYLE_COLOUR('',#1153);
#1135=FILL_AREA_STYLE_COLOUR('',#1153);
#1136=FILL_AREA_STYLE_COLOUR('',#1153);
#1137=FILL_AREA_STYLE_COLOUR('',#1153);
#1138=FILL_AREA_STYLE_COLOUR('',#1153);
#1139=FILL_AREA_STYLE_COLOUR('',#1153);
#1140=FILL_AREA_STYLE_COLOUR('',#1153);
#1141=FILL_AREA_STYLE_COLOUR('',#1153);
#1142=FILL_AREA_STYLE_COLOUR('',#1153);
#1143=FILL_AREA_STYLE_COLOUR('',#1153);
#1144=FILL_AREA_STYLE_COLOUR('',#1153);
#1145=FILL_AREA_STYLE_COLOUR('',#1153);
#1146=FILL_AREA_STYLE_COLOUR('',#1153);
#1147=FILL_AREA_STYLE_COLOUR('',#1153);
#1148=FILL_AREA_STYLE_COLOUR('',#1153);
#1149=FILL_AREA_STYLE_COLOUR('',#1153);
#1150=FILL_AREA_STYLE_COLOUR('',#1153);
#1151=FILL_AREA_STYLE_COLOUR('',#1153);
#1152=COLOUR_RGB('',0.141176470588235,0.0352941176470589,0.396078431372549);
#1153=COLOUR_RGB('',0.647058823529412,0.647058823529412,0.647058823529412);
#1154=MANIFOLD_SOLID_BREP('IMU',#904);
#1155=SHAPE_DEFINITION_REPRESENTATION(#1667,#1156);
#1156=SHAPE_REPRESENTATION('IMU',(#1157),#1662);
#1157=AXIS2_PLACEMENT_3D('',#1424,#1210,#1211);
#1158=AXIS2_PLACEMENT_3D('',#1425,#1212,#1213);
#1159=AXIS2_PLACEMENT_3D('',#1434,#1218,#1219);
#1160=AXIS2_PLACEMENT_3D('',#1436,#1220,#1221);
#1161=AXIS2_PLACEMENT_3D('',#1502,#1254,#1255);
#1162=AXIS2_PLACEMENT_3D('',#1508,#1259,#1260);
#1163=AXIS2_PLACEMENT_3D('',#1512,#1263,#1264);
#1164=AXIS2_PLACEMENT_3D('',#1516,#1267,#1268);
#1165=AXIS2_PLACEMENT_3D('',#1517,#1269,#1270);
#1166=AXIS2_PLACEMENT_3D('',#1519,#1271,#1272);
#1167=AXIS2_PLACEMENT_3D('',#1521,#1274,#1275);
#1168=AXIS2_PLACEMENT_3D('',#1522,#1276,#1277);
#1169=AXIS2_PLACEMENT_3D('',#1524,#1278,#1279);
#1170=AXIS2_PLACEMENT_3D('',#1525,#1280,#1281);
#1171=AXIS2_PLACEMENT_3D('',#1531,#1285,#1286);
#1172=AXIS2_PLACEMENT_3D('',#1535,#1289,#1290);
#1173=AXIS2_PLACEMENT_3D('',#1539,#1293,#1294);
#1174=AXIS2_PLACEMENT_3D('',#1541,#1296,#1297);
#1175=AXIS2_PLACEMENT_3D('',#1542,#1298,#1299);
#1176=AXIS2_PLACEMENT_3D('',#1548,#1303,#1304);
#1177=AXIS2_PLACEMENT_3D('',#1552,#1307,#1308);
#1178=AXIS2_PLACEMENT_3D('',#1556,#1311,#1312);
#1179=AXIS2_PLACEMENT_3D('',#1558,#1314,#1315);
#1180=AXIS2_PLACEMENT_3D('',#1559,#1316,#1317);
#1181=AXIS2_PLACEMENT_3D('',#1565,#1321,#1322);
#1182=AXIS2_PLACEMENT_3D('',#1569,#1325,#1326);
#1183=AXIS2_PLACEMENT_3D('',#1573,#1329,#1330);
#1184=AXIS2_PLACEMENT_3D('',#1575,#1332,#1333);
#1185=AXIS2_PLACEMENT_3D('',#1576,#1334,#1335);
#1186=AXIS2_PLACEMENT_3D('',#1582,#1339,#1340);
#1187=AXIS2_PLACEMENT_3D('',#1586,#1343,#1344);
#1188=AXIS2_PLACEMENT_3D('',#1590,#1347,#1348);
#1189=AXIS2_PLACEMENT_3D('',#1592,#1350,#1351);
#1190=AXIS2_PLACEMENT_3D('',#1593,#1352,#1353);
#1191=AXIS2_PLACEMENT_3D('',#1599,#1357,#1358);
#1192=AXIS2_PLACEMENT_3D('',#1603,#1361,#1362);
#1193=AXIS2_PLACEMENT_3D('',#1607,#1365,#1366);
#1194=AXIS2_PLACEMENT_3D('',#1609,#1368,#1369);
#1195=AXIS2_PLACEMENT_3D('',#1610,#1370,#1371);
#1196=AXIS2_PLACEMENT_3D('',#1616,#1375,#1376);
#1197=AXIS2_PLACEMENT_3D('',#1620,#1379,#1380);
#1198=AXIS2_PLACEMENT_3D('',#1624,#1383,#1384);
#1199=AXIS2_PLACEMENT_3D('',#1626,#1386,#1387);
#1200=AXIS2_PLACEMENT_3D('',#1627,#1388,#1389);
#1201=AXIS2_PLACEMENT_3D('',#1633,#1393,#1394);
#1202=AXIS2_PLACEMENT_3D('',#1637,#1397,#1398);
#1203=AXIS2_PLACEMENT_3D('',#1641,#1401,#1402);
#1204=AXIS2_PLACEMENT_3D('',#1643,#1404,#1405);
#1205=AXIS2_PLACEMENT_3D('',#1644,#1406,#1407);
#1206=AXIS2_PLACEMENT_3D('',#1650,#1411,#1412);
#1207=AXIS2_PLACEMENT_3D('',#1654,#1415,#1416);
#1208=AXIS2_PLACEMENT_3D('',#1658,#1419,#1420);
#1209=AXIS2_PLACEMENT_3D('',#1660,#1422,#1423);
#1210=DIRECTION('',(0.,0.,1.));
#1211=DIRECTION('',(1.,0.,0.));
#1212=DIRECTION('',(0.,0.,1.));
#1213=DIRECTION('',(1.,0.,0.));
#1214=DIRECTION('',(0.,1.,0.));
#1215=DIRECTION('',(1.,0.,0.));
#1216=DIRECTION('',(0.,1.,0.));
#1217=DIRECTION('',(1.,0.,0.));
#1218=DIRECTION('',(0.,0.,1.));
#1219=DIRECTION('',(1.,0.,0.));
#1220=DIRECTION('',(0.,0.,1.));
#1221=DIRECTION('',(1.,0.,0.));
#1222=DIRECTION('',(1.,0.,0.));
#1223=DIRECTION('',(0.,-1.,0.));
#1224=DIRECTION('',(1.,0.,0.));
#1225=DIRECTION('',(0.,-1.,0.));
#1226=DIRECTION('',(1.,0.,0.));
#1227=DIRECTION('',(0.,-1.,0.));
#1228=DIRECTION('',(1.,0.,0.));
#1229=DIRECTION('',(0.,-1.,0.));
#1230=DIRECTION('',(1.,0.,0.));
#1231=DIRECTION('',(0.,-1.,0.));
#1232=DIRECTION('',(1.,0.,0.));
#1233=DIRECTION('',(0.,-1.,0.));
#1234=DIRECTION('',(1.,0.,0.));
#1235=DIRECTION('',(0.,-1.,0.));
#1236=DIRECTION('',(1.,0.,0.));
#1237=DIRECTION('',(0.,-1.,0.));
#1238=DIRECTION('',(1.,0.,0.));
#1239=DIRECTION('',(0.,-1.,0.));
#1240=DIRECTION('',(1.,0.,0.));
#1241=DIRECTION('',(0.,-1.,0.));
#1242=DIRECTION('',(1.,0.,0.));
#1243=DIRECTION('',(0.,-1.,0.));
#1244=DIRECTION('',(1.,0.,0.));
#1245=DIRECTION('',(0.,-1.,0.));
#1246=DIRECTION('',(1.,0.,0.));
#1247=DIRECTION('',(0.,-1.,0.));
#1248=DIRECTION('',(1.,0.,0.));
#1249=DIRECTION('',(0.,-1.,0.));
#1250=DIRECTION('',(0.,-1.,0.));
#1251=DIRECTION('',(1.,0.,0.));
#1252=DIRECTION('',(0.,-1.,0.));
#1253=DIRECTION('',(1.,0.,0.));
#1254=DIRECTION('',(-1.,0.,0.));
#1255=DIRECTION('',(0.,0.,1.));
#1256=DIRECTION('',(0.,1.,0.));
#1257=DIRECTION('',(0.,0.,-1.));
#1258=DIRECTION('',(0.,0.,-1.));
#1259=DIRECTION('',(0.,1.,0.));
#1260=DIRECTION('',(0.,0.,1.));
#1261=DIRECTION('',(1.,0.,0.));
#1262=DIRECTION('',(0.,0.,-1.));
#1263=DIRECTION('',(-1.,0.,0.));
#1264=DIRECTION('',(0.,0.,1.));
#1265=DIRECTION('',(0.,1.,0.));
#1266=DIRECTION('',(0.,0.,-1.));
#1267=DIRECTION('',(0.,0.,-1.));
#1268=DIRECTION('',(-1.,0.,0.));
#1269=DIRECTION('',(0.,0.,1.));
#1270=DIRECTION('',(1.,0.,0.));
#1271=DIRECTION('',(0.,1.,0.));
#1272=DIRECTION('',(0.,0.,1.));
#1273=DIRECTION('',(1.,0.,0.));
#1274=DIRECTION('',(0.,0.,-1.));
#1275=DIRECTION('',(-1.,0.,0.));
#1276=DIRECTION('',(0.,0.,1.));
#1277=DIRECTION('',(1.,0.,0.));
#1278=DIRECTION('',(0.,0.,1.));
#1279=DIRECTION('',(1.,0.,0.));
#1280=DIRECTION('',(1.,0.,0.));
#1281=DIRECTION('',(0.,0.,-1.));
#1282=DIRECTION('',(0.,0.,-1.));
#1283=DIRECTION('',(0.,-1.,0.));
#1284=DIRECTION('',(0.,0.,-1.));
#1285=DIRECTION('',(0.,1.,0.));
#1286=DIRECTION('',(0.,0.,1.));
#1287=DIRECTION('',(0.,0.,-1.));
#1288=DIRECTION('',(1.,0.,0.));
#1289=DIRECTION('',(1.,0.,0.));
#1290=DIRECTION('',(0.,0.,-1.));
#1291=DIRECTION('',(0.,0.,-1.));
#1292=DIRECTION('',(0.,-1.,0.));
#1293=DIRECTION('',(0.,1.,0.));
#1294=DIRECTION('',(0.,0.,1.));
#1295=DIRECTION('',(1.,0.,0.));
#1296=DIRECTION('',(0.,0.,1.));
#1297=DIRECTION('',(1.,0.,0.));
#1298=DIRECTION('',(1.,0.,0.));
#1299=DIRECTION('',(0.,0.,-1.));
#1300=DIRECTION('',(0.,0.,-1.));
#1301=DIRECTION('',(0.,-1.,0.));
#1302=DIRECTION('',(0.,0.,-1.));
#1303=DIRECTION('',(0.,1.,0.));
#1304=DIRECTION('',(0.,0.,1.));
#1305=DIRECTION('',(0.,0.,-1.));
#1306=DIRECTION('',(1.,0.,0.));
#1307=DIRECTION('',(1.,0.,0.));
#1308=DIRECTION('',(0.,0.,-1.));
#1309=DIRECTION('',(0.,0.,-1.));
#1310=DIRECTION('',(0.,-1.,0.));
#1311=DIRECTION('',(0.,1.,0.));
#1312=DIRECTION('',(0.,0.,1.));
#1313=DIRECTION('',(1.,0.,0.));
#1314=DIRECTION('',(0.,0.,1.));
#1315=DIRECTION('',(1.,0.,0.));
#1316=DIRECTION('',(1.,0.,0.));
#1317=DIRECTION('',(0.,0.,-1.));
#1318=DIRECTION('',(0.,0.,-1.));
#1319=DIRECTION('',(0.,-1.,0.));
#1320=DIRECTION('',(0.,0.,-1.));
#1321=DIRECTION('',(0.,1.,0.));
#1322=DIRECTION('',(0.,0.,1.));
#1323=DIRECTION('',(0.,0.,-1.));
#1324=DIRECTION('',(1.,0.,0.));
#1325=DIRECTION('',(1.,0.,0.));
#1326=DIRECTION('',(0.,0.,-1.));
#1327=DIRECTION('',(0.,0.,-1.));
#1328=DIRECTION('',(0.,-1.,0.));
#1329=DIRECTION('',(0.,1.,0.));
#1330=DIRECTION('',(0.,0.,1.));
#1331=DIRECTION('',(1.,0.,0.));
#1332=DIRECTION('',(0.,0.,1.));
#1333=DIRECTION('',(1.,0.,0.));
#1334=DIRECTION('',(1.,0.,0.));
#1335=DIRECTION('',(0.,0.,-1.));
#1336=DIRECTION('',(0.,0.,-1.));
#1337=DIRECTION('',(0.,-1.,0.));
#1338=DIRECTION('',(0.,0.,-1.));
#1339=DIRECTION('',(0.,1.,0.));
#1340=DIRECTION('',(0.,0.,1.));
#1341=DIRECTION('',(0.,0.,-1.));
#1342=DIRECTION('',(1.,0.,0.));
#1343=DIRECTION('',(1.,0.,0.));
#1344=DIRECTION('',(0.,0.,-1.));
#1345=DIRECTION('',(0.,0.,-1.));
#1346=DIRECTION('',(0.,-1.,0.));
#1347=DIRECTION('',(0.,1.,0.));
#1348=DIRECTION('',(0.,0.,1.));
#1349=DIRECTION('',(1.,0.,0.));
#1350=DIRECTION('',(0.,0.,1.));
#1351=DIRECTION('',(1.,0.,0.));
#1352=DIRECTION('',(1.,0.,0.));
#1353=DIRECTION('',(0.,0.,-1.));
#1354=DIRECTION('',(0.,0.,-1.));
#1355=DIRECTION('',(0.,-1.,0.));
#1356=DIRECTION('',(0.,0.,-1.));
#1357=DIRECTION('',(0.,1.,0.));
#1358=DIRECTION('',(0.,0.,1.));
#1359=DIRECTION('',(0.,0.,-1.));
#1360=DIRECTION('',(1.,0.,0.));
#1361=DIRECTION('',(1.,0.,0.));
#1362=DIRECTION('',(0.,0.,-1.));
#1363=DIRECTION('',(0.,0.,-1.));
#1364=DIRECTION('',(0.,-1.,0.));
#1365=DIRECTION('',(0.,1.,0.));
#1366=DIRECTION('',(0.,0.,1.));
#1367=DIRECTION('',(1.,0.,0.));
#1368=DIRECTION('',(0.,0.,1.));
#1369=DIRECTION('',(1.,0.,0.));
#1370=DIRECTION('',(1.,0.,0.));
#1371=DIRECTION('',(0.,0.,-1.));
#1372=DIRECTION('',(0.,0.,-1.));
#1373=DIRECTION('',(0.,-1.,0.));
#1374=DIRECTION('',(0.,0.,-1.));
#1375=DIRECTION('',(0.,1.,0.));
#1376=DIRECTION('',(0.,0.,1.));
#1377=DIRECTION('',(0.,0.,-1.));
#1378=DIRECTION('',(1.,0.,0.));
#1379=DIRECTION('',(1.,0.,0.));
#1380=DIRECTION('',(0.,0.,-1.));
#1381=DIRECTION('',(0.,0.,-1.));
#1382=DIRECTION('',(0.,-1.,0.));
#1383=DIRECTION('',(0.,1.,0.));
#1384=DIRECTION('',(0.,0.,1.));
#1385=DIRECTION('',(1.,0.,0.));
#1386=DIRECTION('',(0.,0.,1.));
#1387=DIRECTION('',(1.,0.,0.));
#1388=DIRECTION('',(1.,0.,0.));
#1389=DIRECTION('',(0.,0.,-1.));
#1390=DIRECTION('',(0.,0.,-1.));
#1391=DIRECTION('',(0.,-1.,0.));
#1392=DIRECTION('',(0.,0.,-1.));
#1393=DIRECTION('',(0.,1.,0.));
#1394=DIRECTION('',(0.,0.,1.));
#1395=DIRECTION('',(0.,0.,-1.));
#1396=DIRECTION('',(1.,0.,0.));
#1397=DIRECTION('',(1.,0.,0.));
#1398=DIRECTION('',(0.,0.,-1.));
#1399=DIRECTION('',(0.,0.,-1.));
#1400=DIRECTION('',(0.,-1.,0.));
#1401=DIRECTION('',(0.,1.,0.));
#1402=DIRECTION('',(0.,0.,1.));
#1403=DIRECTION('',(1.,0.,0.));
#1404=DIRECTION('',(0.,0.,1.));
#1405=DIRECTION('',(1.,0.,0.));
#1406=DIRECTION('',(0.,1.,0.));
#1407=DIRECTION('',(0.,0.,1.));
#1408=DIRECTION('',(0.,0.,-1.));
#1409=DIRECTION('',(1.,0.,0.));
#1410=DIRECTION('',(0.,0.,-1.));
#1411=DIRECTION('',(1.,0.,0.));
#1412=DIRECTION('',(0.,0.,-1.));
#1413=DIRECTION('',(0.,0.,-1.));
#1414=DIRECTION('',(0.,-1.,0.));
#1415=DIRECTION('',(0.,1.,0.));
#1416=DIRECTION('',(0.,0.,1.));
#1417=DIRECTION('',(0.,0.,-1.));
#1418=DIRECTION('',(1.,0.,0.));
#1419=DIRECTION('',(1.,0.,0.));
#1420=DIRECTION('',(0.,0.,-1.));
#1421=DIRECTION('',(0.,-1.,0.));
#1422=DIRECTION('',(0.,0.,1.));
#1423=DIRECTION('',(1.,0.,0.));
#1424=CARTESIAN_POINT('',(0.,0.,0.));
#1425=CARTESIAN_POINT('',(0.0103,0.0082,0.0026));
#1426=CARTESIAN_POINT('',(0.,0.0082,0.0026));
#1427=CARTESIAN_POINT('',(0.,0.,0.0026));
#1428=CARTESIAN_POINT('',(-3.46944695195361E-18,0.0164,0.0026));
#1429=CARTESIAN_POINT('',(0.0103,0.,0.0026));
#1430=CARTESIAN_POINT('',(0.0206,0.,0.0026));
#1431=CARTESIAN_POINT('',(0.0206,0.0082,0.0026));
#1432=CARTESIAN_POINT('',(0.0206,0.0164,0.0026));
#1433=CARTESIAN_POINT('',(0.0103,0.0164,0.0026));
#1434=CARTESIAN_POINT('',(0.00275,0.00282851583324373,0.0026));
#1435=CARTESIAN_POINT('',(0.004375,0.00282851583324373,0.0026));
#1436=CARTESIAN_POINT('',(0.01785,0.00282851583324373,0.0026));
#1437=CARTESIAN_POINT('',(0.019475,0.00282851583324373,0.0026));
#1438=CARTESIAN_POINT('',(0.01875,0.0154,0.0026));
#1439=CARTESIAN_POINT('',(0.0185,0.0154,0.0026));
#1440=CARTESIAN_POINT('',(0.019,0.0154,0.0026));
#1441=CARTESIAN_POINT('',(0.019,0.01515,0.0026));
#1442=CARTESIAN_POINT('',(0.019,0.0149,0.0026));
#1443=CARTESIAN_POINT('',(0.01875,0.0149,0.0026));
#1444=CARTESIAN_POINT('',(0.0185,0.0149,0.0026));
#1445=CARTESIAN_POINT('',(0.0185,0.01515,0.0026));
#1446=CARTESIAN_POINT('',(0.01625,0.0154,0.0026));
#1447=CARTESIAN_POINT('',(0.016,0.0154,0.0026));
#1448=CARTESIAN_POINT('',(0.0165,0.0154,0.0026));
#1449=CARTESIAN_POINT('',(0.0165,0.01515,0.0026));
#1450=CARTESIAN_POINT('',(0.0165,0.0149,0.0026));
#1451=CARTESIAN_POINT('',(0.01625,0.0149,0.0026));
#1452=CARTESIAN_POINT('',(0.016,0.0149,0.0026));
#1453=CARTESIAN_POINT('',(0.016,0.01515,0.0026));
#1454=CARTESIAN_POINT('',(0.01375,0.0154,0.0026));
#1455=CARTESIAN_POINT('',(0.0135,0.0154,0.0026));
#1456=CARTESIAN_POINT('',(0.014,0.0154,0.0026));
#1457=CARTESIAN_POINT('',(0.014,0.01515,0.0026));
#1458=CARTESIAN_POINT('',(0.014,0.0149,0.0026));
#1459=CARTESIAN_POINT('',(0.01375,0.0149,0.0026));
#1460=CARTESIAN_POINT('',(0.0135,0.0149,0.0026));
#1461=CARTESIAN_POINT('',(0.0135,0.01515,0.0026));
#1462=CARTESIAN_POINT('',(0.01125,0.0154,0.0026));
#1463=CARTESIAN_POINT('',(0.011,0.0154,0.0026));
#1464=CARTESIAN_POINT('',(0.0115,0.0154,0.0026));
#1465=CARTESIAN_POINT('',(0.0115,0.01515,0.0026));
#1466=CARTESIAN_POINT('',(0.0115,0.0149,0.0026));
#1467=CARTESIAN_POINT('',(0.01125,0.0149,0.0026));
#1468=CARTESIAN_POINT('',(0.011,0.0149,0.0026));
#1469=CARTESIAN_POINT('',(0.011,0.01515,0.0026));
#1470=CARTESIAN_POINT('',(0.00875,0.0154,0.0026));
#1471=CARTESIAN_POINT('',(0.0085,0.0154,0.0026));
#1472=CARTESIAN_POINT('',(0.009,0.0154,0.0026));
#1473=CARTESIAN_POINT('',(0.009,0.01515,0.0026));
#1474=CARTESIAN_POINT('',(0.009,0.0149,0.0026));
#1475=CARTESIAN_POINT('',(0.00875,0.0149,0.0026));
#1476=CARTESIAN_POINT('',(0.0085,0.0149,0.0026));
#1477=CARTESIAN_POINT('',(0.0085,0.01515,0.0026));
#1478=CARTESIAN_POINT('',(0.00625,0.0154,0.0026));
#1479=CARTESIAN_POINT('',(0.006,0.0154,0.0026));
#1480=CARTESIAN_POINT('',(0.0065,0.0154,0.0026));
#1481=CARTESIAN_POINT('',(0.0065,0.01515,0.0026));
#1482=CARTESIAN_POINT('',(0.0065,0.0149,0.0026));
#1483=CARTESIAN_POINT('',(0.00625,0.0149,0.0026));
#1484=CARTESIAN_POINT('',(0.006,0.0149,0.0026));
#1485=CARTESIAN_POINT('',(0.006,0.01515,0.0026));
#1486=CARTESIAN_POINT('',(0.00375,0.0154,0.0026));
#1487=CARTESIAN_POINT('',(0.0035,0.0154,0.0026));
#1488=CARTESIAN_POINT('',(0.004,0.0154,0.0026));
#1489=CARTESIAN_POINT('',(0.004,0.01515,0.0026));
#1490=CARTESIAN_POINT('',(0.004,0.0149,0.0026));
#1491=CARTESIAN_POINT('',(0.00375,0.0149,0.0026));
#1492=CARTESIAN_POINT('',(0.0035,0.0149,0.0026));
#1493=CARTESIAN_POINT('',(0.0035,0.01515,0.0026));
#1494=CARTESIAN_POINT('',(0.001,0.01515,0.0026));
#1495=CARTESIAN_POINT('',(0.001,0.0154,0.0026));
#1496=CARTESIAN_POINT('',(0.001,0.0149,0.0026));
#1497=CARTESIAN_POINT('',(0.00125,0.0154,0.0026));
#1498=CARTESIAN_POINT('',(0.0015,0.0154,0.0026));
#1499=CARTESIAN_POINT('',(0.0015,0.01515,0.0026));
#1500=CARTESIAN_POINT('',(0.0015,0.0149,0.0026));
#1501=CARTESIAN_POINT('',(0.00125,0.0149,0.0026));
#1502=CARTESIAN_POINT('',(0.,0.0082,0.0026));
#1503=CARTESIAN_POINT('',(0.,0.0082,0.));
#1504=CARTESIAN_POINT('',(0.,0.,0.));
#1505=CARTESIAN_POINT('',(-3.46944695195361E-18,0.0164,0.));
#1506=CARTESIAN_POINT('',(0.,0.,0.0026));
#1507=CARTESIAN_POINT('',(-3.46944695195361E-18,0.0164,0.0026));
#1508=CARTESIAN_POINT('',(0.0103,0.,0.0026));
#1509=CARTESIAN_POINT('',(0.0103,0.,0.));
#1510=CARTESIAN_POINT('',(0.0206,0.,0.));
#1511=CARTESIAN_POINT('',(0.0206,0.,0.0026));
#1512=CARTESIAN_POINT('',(0.0206,0.0082,0.0026));
#1513=CARTESIAN_POINT('',(0.0206,0.0082,0.));
#1514=CARTESIAN_POINT('',(0.0206,0.0164,0.));
#1515=CARTESIAN_POINT('',(0.0206,0.0164,0.0026));
#1516=CARTESIAN_POINT('',(0.00275,0.00282851583324373,0.0026));
#1517=CARTESIAN_POINT('',(0.00275,0.00282851583324373,0.));
#1518=CARTESIAN_POINT('',(0.004375,0.00282851583324373,0.));
#1519=CARTESIAN_POINT('',(0.0103,0.0164,0.0026));
#1520=CARTESIAN_POINT('',(0.0103,0.0164,0.));
#1521=CARTESIAN_POINT('',(0.01785,0.00282851583324373,0.0026));
#1522=CARTESIAN_POINT('',(0.01785,0.00282851583324373,0.));
#1523=CARTESIAN_POINT('',(0.019475,0.00282851583324373,0.));
#1524=CARTESIAN_POINT('',(0.0103,0.0082,0.));
#1525=CARTESIAN_POINT('',(0.019,0.01515,0.0111));
#1526=CARTESIAN_POINT('',(0.019,0.0154,0.0111));
#1527=CARTESIAN_POINT('',(0.019,0.0154,0.0111));
#1528=CARTESIAN_POINT('',(0.019,0.01515,0.0111));
#1529=CARTESIAN_POINT('',(0.019,0.0149,0.0111));
#1530=CARTESIAN_POINT('',(0.019,0.0149,0.0111));
#1531=CARTESIAN_POINT('',(0.01875,0.0154,0.0111));
#1532=CARTESIAN_POINT('',(0.0185,0.0154,0.0111));
#1533=CARTESIAN_POINT('',(0.0185,0.0154,0.0111));
#1534=CARTESIAN_POINT('',(0.01875,0.0154,0.0111));
#1535=CARTESIAN_POINT('',(0.0185,0.01515,0.0111));
#1536=CARTESIAN_POINT('',(0.0185,0.0149,0.0111));
#1537=CARTESIAN_POINT('',(0.0185,0.0149,0.0111));
#1538=CARTESIAN_POINT('',(0.0185,0.01515,0.0111));
#1539=CARTESIAN_POINT('',(0.01875,0.0149,0.0111));
#1540=CARTESIAN_POINT('',(0.01875,0.0149,0.0111));
#1541=CARTESIAN_POINT('',(0.0103,0.0082,0.0111));
#1542=CARTESIAN_POINT('',(0.0165,0.01515,0.0111));
#1543=CARTESIAN_POINT('',(0.0165,0.0154,0.0111));
#1544=CARTESIAN_POINT('',(0.0165,0.0154,0.0111));
#1545=CARTESIAN_POINT('',(0.0165,0.01515,0.0111));
#1546=CARTESIAN_POINT('',(0.0165,0.0149,0.0111));
#1547=CARTESIAN_POINT('',(0.0165,0.0149,0.0111));
#1548=CARTESIAN_POINT('',(0.01625,0.0154,0.0111));
#1549=CARTESIAN_POINT('',(0.016,0.0154,0.0111));
#1550=CARTESIAN_POINT('',(0.016,0.0154,0.0111));
#1551=CARTESIAN_POINT('',(0.01625,0.0154,0.0111));
#1552=CARTESIAN_POINT('',(0.016,0.01515,0.0111));
#1553=CARTESIAN_POINT('',(0.016,0.0149,0.0111));
#1554=CARTESIAN_POINT('',(0.016,0.0149,0.0111));
#1555=CARTESIAN_POINT('',(0.016,0.01515,0.0111));
#1556=CARTESIAN_POINT('',(0.01625,0.0149,0.0111));
#1557=CARTESIAN_POINT('',(0.01625,0.0149,0.0111));
#1558=CARTESIAN_POINT('',(0.0103,0.0082,0.0111));
#1559=CARTESIAN_POINT('',(0.014,0.01515,0.0111));
#1560=CARTESIAN_POINT('',(0.014,0.0154,0.0111));
#1561=CARTESIAN_POINT('',(0.014,0.0154,0.0111));
#1562=CARTESIAN_POINT('',(0.014,0.01515,0.0111));
#1563=CARTESIAN_POINT('',(0.014,0.0149,0.0111));
#1564=CARTESIAN_POINT('',(0.014,0.0149,0.0111));
#1565=CARTESIAN_POINT('',(0.01375,0.0154,0.0111));
#1566=CARTESIAN_POINT('',(0.0135,0.0154,0.0111));
#1567=CARTESIAN_POINT('',(0.0135,0.0154,0.0111));
#1568=CARTESIAN_POINT('',(0.01375,0.0154,0.0111));
#1569=CARTESIAN_POINT('',(0.0135,0.01515,0.0111));
#1570=CARTESIAN_POINT('',(0.0135,0.0149,0.0111));
#1571=CARTESIAN_POINT('',(0.0135,0.0149,0.0111));
#1572=CARTESIAN_POINT('',(0.0135,0.01515,0.0111));
#1573=CARTESIAN_POINT('',(0.01375,0.0149,0.0111));
#1574=CARTESIAN_POINT('',(0.01375,0.0149,0.0111));
#1575=CARTESIAN_POINT('',(0.0103,0.0082,0.0111));
#1576=CARTESIAN_POINT('',(0.0115,0.01515,0.0111));
#1577=CARTESIAN_POINT('',(0.0115,0.0154,0.0111));
#1578=CARTESIAN_POINT('',(0.0115,0.0154,0.0111));
#1579=CARTESIAN_POINT('',(0.0115,0.01515,0.0111));
#1580=CARTESIAN_POINT('',(0.0115,0.0149,0.0111));
#1581=CARTESIAN_POINT('',(0.0115,0.0149,0.0111));
#1582=CARTESIAN_POINT('',(0.01125,0.0154,0.0111));
#1583=CARTESIAN_POINT('',(0.011,0.0154,0.0111));
#1584=CARTESIAN_POINT('',(0.011,0.0154,0.0111));
#1585=CARTESIAN_POINT('',(0.01125,0.0154,0.0111));
#1586=CARTESIAN_POINT('',(0.011,0.01515,0.0111));
#1587=CARTESIAN_POINT('',(0.011,0.0149,0.0111));
#1588=CARTESIAN_POINT('',(0.011,0.0149,0.0111));
#1589=CARTESIAN_POINT('',(0.011,0.01515,0.0111));
#1590=CARTESIAN_POINT('',(0.01125,0.0149,0.0111));
#1591=CARTESIAN_POINT('',(0.01125,0.0149,0.0111));
#1592=CARTESIAN_POINT('',(0.0103,0.0082,0.0111));
#1593=CARTESIAN_POINT('',(0.009,0.01515,0.0111));
#1594=CARTESIAN_POINT('',(0.009,0.0154,0.0111));
#1595=CARTESIAN_POINT('',(0.009,0.0154,0.0111));
#1596=CARTESIAN_POINT('',(0.009,0.01515,0.0111));
#1597=CARTESIAN_POINT('',(0.009,0.0149,0.0111));
#1598=CARTESIAN_POINT('',(0.009,0.0149,0.0111));
#1599=CARTESIAN_POINT('',(0.00875,0.0154,0.0111));
#1600=CARTESIAN_POINT('',(0.0085,0.0154,0.0111));
#1601=CARTESIAN_POINT('',(0.0085,0.0154,0.0111));
#1602=CARTESIAN_POINT('',(0.00875,0.0154,0.0111));
#1603=CARTESIAN_POINT('',(0.0085,0.01515,0.0111));
#1604=CARTESIAN_POINT('',(0.0085,0.0149,0.0111));
#1605=CARTESIAN_POINT('',(0.0085,0.0149,0.0111));
#1606=CARTESIAN_POINT('',(0.0085,0.01515,0.0111));
#1607=CARTESIAN_POINT('',(0.00875,0.0149,0.0111));
#1608=CARTESIAN_POINT('',(0.00875,0.0149,0.0111));
#1609=CARTESIAN_POINT('',(0.0103,0.0082,0.0111));
#1610=CARTESIAN_POINT('',(0.0065,0.01515,0.0111));
#1611=CARTESIAN_POINT('',(0.0065,0.0154,0.0111));
#1612=CARTESIAN_POINT('',(0.0065,0.0154,0.0111));
#1613=CARTESIAN_POINT('',(0.0065,0.01515,0.0111));
#1614=CARTESIAN_POINT('',(0.0065,0.0149,0.0111));
#1615=CARTESIAN_POINT('',(0.0065,0.0149,0.0111));
#1616=CARTESIAN_POINT('',(0.00625,0.0154,0.0111));
#1617=CARTESIAN_POINT('',(0.006,0.0154,0.0111));
#1618=CARTESIAN_POINT('',(0.006,0.0154,0.0111));
#1619=CARTESIAN_POINT('',(0.00625,0.0154,0.0111));
#1620=CARTESIAN_POINT('',(0.006,0.01515,0.0111));
#1621=CARTESIAN_POINT('',(0.006,0.0149,0.0111));
#1622=CARTESIAN_POINT('',(0.006,0.0149,0.0111));
#1623=CARTESIAN_POINT('',(0.006,0.01515,0.0111));
#1624=CARTESIAN_POINT('',(0.00625,0.0149,0.0111));
#1625=CARTESIAN_POINT('',(0.00625,0.0149,0.0111));
#1626=CARTESIAN_POINT('',(0.0103,0.0082,0.0111));
#1627=CARTESIAN_POINT('',(0.004,0.01515,0.0111));
#1628=CARTESIAN_POINT('',(0.004,0.0154,0.0111));
#1629=CARTESIAN_POINT('',(0.004,0.0154,0.0111));
#1630=CARTESIAN_POINT('',(0.004,0.01515,0.0111));
#1631=CARTESIAN_POINT('',(0.004,0.0149,0.0111));
#1632=CARTESIAN_POINT('',(0.004,0.0149,0.0111));
#1633=CARTESIAN_POINT('',(0.00375,0.0154,0.0111));
#1634=CARTESIAN_POINT('',(0.0035,0.0154,0.0111));
#1635=CARTESIAN_POINT('',(0.0035,0.0154,0.0111));
#1636=CARTESIAN_POINT('',(0.00375,0.0154,0.0111));
#1637=CARTESIAN_POINT('',(0.0035,0.01515,0.0111));
#1638=CARTESIAN_POINT('',(0.0035,0.0149,0.0111));
#1639=CARTESIAN_POINT('',(0.0035,0.0149,0.0111));
#1640=CARTESIAN_POINT('',(0.0035,0.01515,0.0111));
#1641=CARTESIAN_POINT('',(0.00375,0.0149,0.0111));
#1642=CARTESIAN_POINT('',(0.00375,0.0149,0.0111));
#1643=CARTESIAN_POINT('',(0.0103,0.0082,0.0111));
#1644=CARTESIAN_POINT('',(0.00125,0.0154,0.0111));
#1645=CARTESIAN_POINT('',(0.001,0.0154,0.0111));
#1646=CARTESIAN_POINT('',(0.001,0.0154,0.0111));
#1647=CARTESIAN_POINT('',(0.00125,0.0154,0.0111));
#1648=CARTESIAN_POINT('',(0.0015,0.0154,0.0111));
#1649=CARTESIAN_POINT('',(0.0015,0.0154,0.0111));
#1650=CARTESIAN_POINT('',(0.001,0.01515,0.0111));
#1651=CARTESIAN_POINT('',(0.001,0.0149,0.0111));
#1652=CARTESIAN_POINT('',(0.001,0.0149,0.0111));
#1653=CARTESIAN_POINT('',(0.001,0.01515,0.0111));
#1654=CARTESIAN_POINT('',(0.00125,0.0149,0.0111));
#1655=CARTESIAN_POINT('',(0.0015,0.0149,0.0111));
#1656=CARTESIAN_POINT('',(0.0015,0.0149,0.0111));
#1657=CARTESIAN_POINT('',(0.00125,0.0149,0.0111));
#1658=CARTESIAN_POINT('',(0.0015,0.01515,0.0111));
#1659=CARTESIAN_POINT('',(0.0015,0.01515,0.0111));
#1660=CARTESIAN_POINT('',(0.0103,0.0082,0.0111));
#1661=MECHANICAL_DESIGN_GEOMETRIC_PRESENTATION_REPRESENTATION('',(#905,
#12,#13,#14,#15,#16,#17,#18,#19,#20,#21,#22,#23,#24,#25,#26,#27,#28,#29,
#30,#31,#32,#33,#34,#35,#36,#37,#38,#39,#40,#41,#42,#43,#44,#45,#46,#47,
#48,#49,#50,#51),#1662);
#1662=(
GEOMETRIC_REPRESENTATION_CONTEXT(3)
GLOBAL_UNCERTAINTY_ASSIGNED_CONTEXT((#1663))
GLOBAL_UNIT_ASSIGNED_CONTEXT((#1666,#1665,#1664))
REPRESENTATION_CONTEXT('IMU','TOP_LEVEL_ASSEMBLY_PART')
);
#1663=UNCERTAINTY_MEASURE_WITH_UNIT(LENGTH_MEASURE(1.E-8),#1666,
'DISTANCE_ACCURACY_VALUE','Maximum Tolerance applied to model');
#1664=(
NAMED_UNIT(*)
SI_UNIT($,.STERADIAN.)
SOLID_ANGLE_UNIT()
);
#1665=(
NAMED_UNIT(*)
PLANE_ANGLE_UNIT()
SI_UNIT($,.RADIAN.)
);
#1666=(
LENGTH_UNIT()
NAMED_UNIT(*)
SI_UNIT($,.METRE.)
);
#1667=PRODUCT_DEFINITION_SHAPE('','',#1668);
#1668=PRODUCT_DEFINITION('','',#1670,#1669);
#1669=PRODUCT_DEFINITION_CONTEXT('',#1676,'design');
#1670=PRODUCT_DEFINITION_FORMATION_WITH_SPECIFIED_SOURCE('','',#1672,
 .NOT_KNOWN.);
#1671=PRODUCT_RELATED_PRODUCT_CATEGORY('','',(#1672));
#1672=PRODUCT('IMU','IMU','IMU',(#1674));
#1673=PRODUCT_CATEGORY('','');
#1674=PRODUCT_CONTEXT('',#1676,'mechanical');
#1675=APPLICATION_PROTOCOL_DEFINITION('international standard',
'ap242_managed_model_based_3d_engineering',2020,#1676);
#1676=APPLICATION_CONTEXT('managed model based 3d engineering');
ENDSEC;
END-ISO-10303-21;
