ISO-10303-21;
HEADER;
/* Generated by software containing ST-Developer
 * from STEP Tools, Inc. (www.steptools.com) 
 */
/* OPTION: using custom renumber hook */

FILE_DESCRIPTION(
/* description */ ('STEP AP242 Edition 2',
'CAx-IF Rec.Pracs.---Representation and Presentation of Product Manufa
cturing Information (PMI)---4.0---2014-10-13',
'CAx-IF Rec.Pracs.---3D Tessellated Geometry---0.4---2014-09-14','2;1',
'CAx-IF Rec.Pracs.---User Defined Attributes---1.5---2016-08-15'),
/* implementation_level */ '2;1');

FILE_NAME(
/* name */ 'better motor - motors',
/* time_stamp */ '2026-09-27T03:11:20Z',
/* author */ (''),
/* organization */ (''),
/* preprocessor_version */ 'ST-DEVELOPER v20',
/* originating_system */ 'ONSHAPE BY PTC INC, 1.221',
/* authorisation */ '  ');

FILE_SCHEMA (('AP242_MANAGED_MODEL_BASED_3D_ENGINEERING_MIM_LF { 1 0 10303 442 3 1 4 }'));
ENDSEC;

DATA;
#10=SHAPE_REPRESENTATION_RELATIONSHIP('','',#93,#11);
#11=ADVANCED_BREP_SHAPE_REPRESENTATION('',(#91),#153);
#12=CYLINDRICAL_SURFACE('',#98,0.012);
#13=CYLINDRICAL_SURFACE('',#102,0.002);
#14=LINE('',#138,#18);
#15=LINE('',#144,#19);
#16=LINE('',#146,#20);
#17=LINE('',#148,#21);
#18=VECTOR('',#113,1.);
#19=VECTOR('',#122,1.);
#20=VECTOR('',#123,1.);
#21=VECTOR('',#124,1.);
#22=ORIENTED_EDGE('',*,*,#38,.T.);
#23=ORIENTED_EDGE('',*,*,#39,.F.);
#24=ORIENTED_EDGE('',*,*,#40,.T.);
#25=ORIENTED_EDGE('',*,*,#38,.F.);
#26=ORIENTED_EDGE('',*,*,#41,.T.);
#27=ORIENTED_EDGE('',*,*,#41,.F.);
#28=ORIENTED_EDGE('',*,*,#40,.F.);
#29=ORIENTED_EDGE('',*,*,#42,.F.);
#30=ORIENTED_EDGE('',*,*,#43,.T.);
#31=ORIENTED_EDGE('',*,*,#44,.T.);
#32=ORIENTED_EDGE('',*,*,#39,.T.);
#33=ORIENTED_EDGE('',*,*,#44,.F.);
#34=ORIENTED_EDGE('',*,*,#45,.F.);
#35=ORIENTED_EDGE('',*,*,#42,.T.);
#36=ORIENTED_EDGE('',*,*,#43,.F.);
#37=ORIENTED_EDGE('',*,*,#45,.T.);
#38=EDGE_CURVE('',#46,#46,#52,.T.);
#39=EDGE_CURVE('',#47,#48,#53,.T.);
#40=EDGE_CURVE('',#47,#48,#14,.T.);
#41=EDGE_CURVE('',#49,#49,#54,.T.);
#42=EDGE_CURVE('',#50,#47,#15,.T.);
#43=EDGE_CURVE('',#50,#51,#16,.T.);
#44=EDGE_CURVE('',#51,#48,#17,.T.);
#45=EDGE_CURVE('',#50,#51,#55,.T.);
#46=VERTEX_POINT('',#134);
#47=VERTEX_POINT('',#136);
#48=VERTEX_POINT('',#137);
#49=VERTEX_POINT('',#141);
#50=VERTEX_POINT('',#145);
#51=VERTEX_POINT('',#147);
#52=CIRCLE('',#96,0.012);
#53=CIRCLE('',#97,0.002);
#54=CIRCLE('',#99,0.012);
#55=CIRCLE('',#103,0.002);
#56=EDGE_LOOP('',(#22));
#57=EDGE_LOOP('',(#23,#24));
#58=EDGE_LOOP('',(#25));
#59=EDGE_LOOP('',(#26));
#60=EDGE_LOOP('',(#27));
#61=EDGE_LOOP('',(#28,#29,#30,#31));
#62=EDGE_LOOP('',(#32,#33,#34,#35));
#63=EDGE_LOOP('',(#36,#37));
#64=FACE_BOUND('',#56,.T.);
#65=FACE_BOUND('',#57,.T.);
#66=FACE_BOUND('',#58,.T.);
#67=FACE_BOUND('',#59,.T.);
#68=FACE_BOUND('',#60,.T.);
#69=FACE_BOUND('',#61,.T.);
#70=FACE_BOUND('',#62,.T.);
#71=FACE_BOUND('',#63,.T.);
#72=PLANE('',#95);
#73=PLANE('',#100);
#74=PLANE('',#101);
#75=PLANE('',#104);
#76=ADVANCED_FACE('',(#64,#65),#72,.T.);
#77=ADVANCED_FACE('',(#66,#67),#12,.T.);
#78=ADVANCED_FACE('',(#68),#73,.F.);
#79=ADVANCED_FACE('',(#69),#74,.T.);
#80=ADVANCED_FACE('',(#70),#13,.T.);
#81=ADVANCED_FACE('',(#71),#75,.T.);
#82=CLOSED_SHELL('',(#76,#77,#78,#79,#80,#81));
#83=STYLED_ITEM('',(#84),#91);
#84=PRESENTATION_STYLE_ASSIGNMENT((#85));
#85=SURFACE_STYLE_USAGE(.BOTH.,#86);
#86=SURFACE_SIDE_STYLE('',(#87));
#87=SURFACE_STYLE_FILL_AREA(#88);
#88=FILL_AREA_STYLE('',(#89));
#89=FILL_AREA_STYLE_COLOUR('',#90);
#90=COLOUR_RGB('',0.647058823529412,0.647058823529412,0.647058823529412);
#91=MANIFOLD_SOLID_BREP('motors',#82);
#92=SHAPE_DEFINITION_REPRESENTATION(#158,#93);
#93=SHAPE_REPRESENTATION('motors',(#94),#153);
#94=AXIS2_PLACEMENT_3D('',#131,#105,#106);
#95=AXIS2_PLACEMENT_3D('',#132,#107,#108);
#96=AXIS2_PLACEMENT_3D('',#133,#109,#110);
#97=AXIS2_PLACEMENT_3D('',#135,#111,#112);
#98=AXIS2_PLACEMENT_3D('',#139,#114,#115);
#99=AXIS2_PLACEMENT_3D('',#140,#116,#117);
#100=AXIS2_PLACEMENT_3D('',#142,#118,#119);
#101=AXIS2_PLACEMENT_3D('',#143,#120,#121);
#102=AXIS2_PLACEMENT_3D('',#149,#125,#126);
#103=AXIS2_PLACEMENT_3D('',#150,#127,#128);
#104=AXIS2_PLACEMENT_3D('',#151,#129,#130);
#105=DIRECTION('',(0.,0.,1.));
#106=DIRECTION('',(1.,0.,0.));
#107=DIRECTION('',(0.,-1.,0.));
#108=DIRECTION('',(1.,0.,0.));
#109=DIRECTION('',(0.,-1.,0.));
#110=DIRECTION('',(0.,0.,-1.));
#111=DIRECTION('',(0.,-1.,0.));
#112=DIRECTION('',(0.,0.,-1.));
#113=DIRECTION('',(1.,0.,0.));
#114=DIRECTION('',(0.,1.,0.));
#115=DIRECTION('',(0.,0.,1.));
#116=DIRECTION('',(0.,-1.,0.));
#117=DIRECTION('',(0.,0.,-1.));
#118=DIRECTION('',(0.,-1.,0.));
#119=DIRECTION('',(1.,0.,0.));
#120=DIRECTION('',(0.,0.,1.));
#121=DIRECTION('',(1.,0.,0.));
#122=DIRECTION('',(0.,1.,0.));
#123=DIRECTION('',(1.,0.,0.));
#124=DIRECTION('',(0.,1.,0.));
#125=DIRECTION('',(0.,1.,0.));
#126=DIRECTION('',(0.,0.,1.));
#127=DIRECTION('',(0.,-1.,0.));
#128=DIRECTION('',(0.,0.,-1.));
#129=DIRECTION('',(0.,-1.,0.));
#130=DIRECTION('',(1.,0.,0.));
#131=CARTESIAN_POINT('',(0.,0.,0.));
#132=CARTESIAN_POINT('',(0.,-0.052,0.));
#133=CARTESIAN_POINT('',(0.,-0.052,7.34788079488412E-19));
#134=CARTESIAN_POINT('',(0.,-0.052,-0.012));
#135=CARTESIAN_POINT('',(1.22587265569286E-19,-0.052,4.33680868994202E-19));
#136=CARTESIAN_POINT('',(-0.00132287565553229,-0.052,0.0015));
#137=CARTESIAN_POINT('',(0.00132287565553229,-0.052,0.0015));
#138=CARTESIAN_POINT('',(0.,-0.052,0.0015));
#139=CARTESIAN_POINT('',(0.,-0.052,7.34788079488412E-19));
#140=CARTESIAN_POINT('',(0.,0.,7.34788079488412E-19));
#141=CARTESIAN_POINT('',(0.,0.,-0.012));
#142=CARTESIAN_POINT('',(0.,0.,0.));
#143=CARTESIAN_POINT('',(0.,-0.064,0.0015));
#144=CARTESIAN_POINT('',(-0.00132287565553229,-0.064,0.0015));
#145=CARTESIAN_POINT('',(-0.00132287565553229,-0.064,0.0015));
#146=CARTESIAN_POINT('',(0.,-0.064,0.0015));
#147=CARTESIAN_POINT('',(0.00132287565553229,-0.064,0.0015));
#148=CARTESIAN_POINT('',(0.00132287565553229,-0.064,0.0015));
#149=CARTESIAN_POINT('',(1.22587265569286E-19,-0.064,4.33680868994202E-19));
#150=CARTESIAN_POINT('',(1.22587265569286E-19,-0.064,4.33680868994202E-19));
#151=CARTESIAN_POINT('',(0.,-0.064,0.));
#152=MECHANICAL_DESIGN_GEOMETRIC_PRESENTATION_REPRESENTATION('',(#83),#153);
#153=(
GEOMETRIC_REPRESENTATION_CONTEXT(3)
GLOBAL_UNCERTAINTY_ASSIGNED_CONTEXT((#154))
GLOBAL_UNIT_ASSIGNED_CONTEXT((#157,#156,#155))
REPRESENTATION_CONTEXT('motors','TOP_LEVEL_ASSEMBLY_PART')
);
#154=UNCERTAINTY_MEASURE_WITH_UNIT(LENGTH_MEASURE(1.E-8),#157,
'DISTANCE_ACCURACY_VALUE','Maximum Tolerance applied to model');
#155=(
NAMED_UNIT(*)
SI_UNIT($,.STERADIAN.)
SOLID_ANGLE_UNIT()
);
#156=(
NAMED_UNIT(*)
PLANE_ANGLE_UNIT()
SI_UNIT($,.RADIAN.)
);
#157=(
LENGTH_UNIT()
NAMED_UNIT(*)
SI_UNIT($,.METRE.)
);
#158=PRODUCT_DEFINITION_SHAPE('','',#159);
#159=PRODUCT_DEFINITION('','',#161,#160);
#160=PRODUCT_DEFINITION_CONTEXT('',#167,'design');
#161=PRODUCT_DEFINITION_FORMATION_WITH_SPECIFIED_SOURCE('','',#163,
 .NOT_KNOWN.);
#162=PRODUCT_RELATED_PRODUCT_CATEGORY('','',(#163));
#163=PRODUCT('motors','motors','motors',(#165));
#164=PRODUCT_CATEGORY('','');
#165=PRODUCT_CONTEXT('',#167,'mechanical');
#166=APPLICATION_PROTOCOL_DEFINITION('international standard',
'ap242_managed_model_based_3d_engineering',2020,#167);
#167=APPLICATION_CONTEXT('managed model based 3d engineering');
ENDSEC;
END-ISO-10303-21;
