ISO-10303-21;
HEADER;
/* Generated by software containing ST-Developer
 * from STEP Tools, Inc. (www.steptools.com) 
 */
/* OPTION: using custom renumber hook */

FILE_DESCRIPTION(
/* description */ ('STEP AP242 Edition 2',
'CAx-IF Rec.Pracs.---Representation and Presentation of Product Manufa
cturing Information (PMI)---4.0---2014-10-13',
'CAx-IF Rec.Pracs.---3D Tessellated Geometry---0.4---2014-09-14','2;1',
'CAx-IF Rec.Pracs.---User Defined Attributes---1.5---2016-08-15'),
/* implementation_level */ '2;1');

FILE_NAME(
/* name */ 'motor controller - motor controller',
/* time_stamp */ '2026-09-27T03:11:39Z',
/* author */ (''),
/* organization */ (''),
/* preprocessor_version */ 'ST-DEVELOPER v20',
/* originating_system */ 'ONSHAPE BY PTC INC, 1.221',
/* authorisation */ '  ');

FILE_SCHEMA (('AP242_MANAGED_MODEL_BASED_3D_ENGINEERING_MIM_LF { 1 0 10303 442 3 1 4 }'));
ENDSEC;

DATA;
#10=SHAPE_REPRESENTATION_RELATIONSHIP('','',#1598,#11);
#11=ADVANCED_BREP_SHAPE_REPRESENTATION('',(#1596),#2492);
#12=ORIENTED_EDGE('',*,*,#420,.F.);
#13=ORIENTED_EDGE('',*,*,#421,.F.);
#14=ORIENTED_EDGE('',*,*,#422,.T.);
#15=ORIENTED_EDGE('',*,*,#423,.T.);
#16=ORIENTED_EDGE('',*,*,#424,.T.);
#17=ORIENTED_EDGE('',*,*,#425,.F.);
#18=ORIENTED_EDGE('',*,*,#426,.F.);
#19=ORIENTED_EDGE('',*,*,#421,.T.);
#20=ORIENTED_EDGE('',*,*,#427,.T.);
#21=ORIENTED_EDGE('',*,*,#428,.F.);
#22=ORIENTED_EDGE('',*,*,#429,.F.);
#23=ORIENTED_EDGE('',*,*,#425,.T.);
#24=ORIENTED_EDGE('',*,*,#430,.F.);
#25=ORIENTED_EDGE('',*,*,#423,.F.);
#26=ORIENTED_EDGE('',*,*,#431,.T.);
#27=ORIENTED_EDGE('',*,*,#428,.T.);
#28=ORIENTED_EDGE('',*,*,#422,.F.);
#29=ORIENTED_EDGE('',*,*,#426,.T.);
#30=ORIENTED_EDGE('',*,*,#429,.T.);
#31=ORIENTED_EDGE('',*,*,#431,.F.);
#32=ORIENTED_EDGE('',*,*,#432,.F.);
#33=ORIENTED_EDGE('',*,*,#433,.T.);
#34=ORIENTED_EDGE('',*,*,#434,.T.);
#35=ORIENTED_EDGE('',*,*,#435,.F.);
#36=ORIENTED_EDGE('',*,*,#436,.F.);
#37=ORIENTED_EDGE('',*,*,#437,.T.);
#38=ORIENTED_EDGE('',*,*,#438,.T.);
#39=ORIENTED_EDGE('',*,*,#439,.F.);
#40=ORIENTED_EDGE('',*,*,#440,.F.);
#41=ORIENTED_EDGE('',*,*,#441,.T.);
#42=ORIENTED_EDGE('',*,*,#442,.T.);
#43=ORIENTED_EDGE('',*,*,#443,.F.);
#44=ORIENTED_EDGE('',*,*,#444,.F.);
#45=ORIENTED_EDGE('',*,*,#445,.T.);
#46=ORIENTED_EDGE('',*,*,#446,.T.);
#47=ORIENTED_EDGE('',*,*,#447,.F.);
#48=ORIENTED_EDGE('',*,*,#448,.F.);
#49=ORIENTED_EDGE('',*,*,#449,.T.);
#50=ORIENTED_EDGE('',*,*,#450,.T.);
#51=ORIENTED_EDGE('',*,*,#451,.F.);
#52=ORIENTED_EDGE('',*,*,#452,.F.);
#53=ORIENTED_EDGE('',*,*,#453,.T.);
#54=ORIENTED_EDGE('',*,*,#454,.T.);
#55=ORIENTED_EDGE('',*,*,#455,.F.);
#56=ORIENTED_EDGE('',*,*,#456,.F.);
#57=ORIENTED_EDGE('',*,*,#457,.T.);
#58=ORIENTED_EDGE('',*,*,#458,.T.);
#59=ORIENTED_EDGE('',*,*,#459,.F.);
#60=ORIENTED_EDGE('',*,*,#460,.F.);
#61=ORIENTED_EDGE('',*,*,#461,.T.);
#62=ORIENTED_EDGE('',*,*,#462,.T.);
#63=ORIENTED_EDGE('',*,*,#463,.F.);
#64=ORIENTED_EDGE('',*,*,#464,.F.);
#65=ORIENTED_EDGE('',*,*,#465,.T.);
#66=ORIENTED_EDGE('',*,*,#466,.T.);
#67=ORIENTED_EDGE('',*,*,#467,.F.);
#68=ORIENTED_EDGE('',*,*,#468,.F.);
#69=ORIENTED_EDGE('',*,*,#469,.T.);
#70=ORIENTED_EDGE('',*,*,#470,.T.);
#71=ORIENTED_EDGE('',*,*,#471,.F.);
#72=ORIENTED_EDGE('',*,*,#472,.F.);
#73=ORIENTED_EDGE('',*,*,#473,.T.);
#74=ORIENTED_EDGE('',*,*,#474,.T.);
#75=ORIENTED_EDGE('',*,*,#475,.F.);
#76=ORIENTED_EDGE('',*,*,#476,.F.);
#77=ORIENTED_EDGE('',*,*,#477,.T.);
#78=ORIENTED_EDGE('',*,*,#478,.T.);
#79=ORIENTED_EDGE('',*,*,#479,.F.);
#80=ORIENTED_EDGE('',*,*,#480,.F.);
#81=ORIENTED_EDGE('',*,*,#481,.T.);
#82=ORIENTED_EDGE('',*,*,#482,.T.);
#83=ORIENTED_EDGE('',*,*,#483,.F.);
#84=ORIENTED_EDGE('',*,*,#484,.F.);
#85=ORIENTED_EDGE('',*,*,#485,.T.);
#86=ORIENTED_EDGE('',*,*,#486,.T.);
#87=ORIENTED_EDGE('',*,*,#487,.F.);
#88=ORIENTED_EDGE('',*,*,#488,.F.);
#89=ORIENTED_EDGE('',*,*,#489,.T.);
#90=ORIENTED_EDGE('',*,*,#490,.T.);
#91=ORIENTED_EDGE('',*,*,#491,.F.);
#92=ORIENTED_EDGE('',*,*,#492,.F.);
#93=ORIENTED_EDGE('',*,*,#493,.T.);
#94=ORIENTED_EDGE('',*,*,#494,.T.);
#95=ORIENTED_EDGE('',*,*,#495,.F.);
#96=ORIENTED_EDGE('',*,*,#420,.T.);
#97=ORIENTED_EDGE('',*,*,#430,.T.);
#98=ORIENTED_EDGE('',*,*,#427,.F.);
#99=ORIENTED_EDGE('',*,*,#424,.F.);
#100=ORIENTED_EDGE('',*,*,#493,.F.);
#101=ORIENTED_EDGE('',*,*,#496,.F.);
#102=ORIENTED_EDGE('',*,*,#497,.T.);
#103=ORIENTED_EDGE('',*,*,#498,.T.);
#104=ORIENTED_EDGE('',*,*,#492,.T.);
#105=ORIENTED_EDGE('',*,*,#499,.F.);
#106=ORIENTED_EDGE('',*,*,#500,.F.);
#107=ORIENTED_EDGE('',*,*,#496,.T.);
#108=ORIENTED_EDGE('',*,*,#495,.T.);
#109=ORIENTED_EDGE('',*,*,#501,.F.);
#110=ORIENTED_EDGE('',*,*,#502,.F.);
#111=ORIENTED_EDGE('',*,*,#499,.T.);
#112=ORIENTED_EDGE('',*,*,#494,.F.);
#113=ORIENTED_EDGE('',*,*,#498,.F.);
#114=ORIENTED_EDGE('',*,*,#503,.T.);
#115=ORIENTED_EDGE('',*,*,#501,.T.);
#116=ORIENTED_EDGE('',*,*,#497,.F.);
#117=ORIENTED_EDGE('',*,*,#500,.T.);
#118=ORIENTED_EDGE('',*,*,#502,.T.);
#119=ORIENTED_EDGE('',*,*,#503,.F.);
#120=ORIENTED_EDGE('',*,*,#489,.F.);
#121=ORIENTED_EDGE('',*,*,#504,.F.);
#122=ORIENTED_EDGE('',*,*,#505,.T.);
#123=ORIENTED_EDGE('',*,*,#506,.T.);
#124=ORIENTED_EDGE('',*,*,#488,.T.);
#125=ORIENTED_EDGE('',*,*,#507,.F.);
#126=ORIENTED_EDGE('',*,*,#508,.F.);
#127=ORIENTED_EDGE('',*,*,#504,.T.);
#128=ORIENTED_EDGE('',*,*,#491,.T.);
#129=ORIENTED_EDGE('',*,*,#509,.F.);
#130=ORIENTED_EDGE('',*,*,#510,.F.);
#131=ORIENTED_EDGE('',*,*,#507,.T.);
#132=ORIENTED_EDGE('',*,*,#490,.F.);
#133=ORIENTED_EDGE('',*,*,#506,.F.);
#134=ORIENTED_EDGE('',*,*,#511,.T.);
#135=ORIENTED_EDGE('',*,*,#509,.T.);
#136=ORIENTED_EDGE('',*,*,#505,.F.);
#137=ORIENTED_EDGE('',*,*,#508,.T.);
#138=ORIENTED_EDGE('',*,*,#510,.T.);
#139=ORIENTED_EDGE('',*,*,#511,.F.);
#140=ORIENTED_EDGE('',*,*,#485,.F.);
#141=ORIENTED_EDGE('',*,*,#512,.F.);
#142=ORIENTED_EDGE('',*,*,#513,.T.);
#143=ORIENTED_EDGE('',*,*,#514,.T.);
#144=ORIENTED_EDGE('',*,*,#484,.T.);
#145=ORIENTED_EDGE('',*,*,#515,.F.);
#146=ORIENTED_EDGE('',*,*,#516,.F.);
#147=ORIENTED_EDGE('',*,*,#512,.T.);
#148=ORIENTED_EDGE('',*,*,#487,.T.);
#149=ORIENTED_EDGE('',*,*,#517,.F.);
#150=ORIENTED_EDGE('',*,*,#518,.F.);
#151=ORIENTED_EDGE('',*,*,#515,.T.);
#152=ORIENTED_EDGE('',*,*,#486,.F.);
#153=ORIENTED_EDGE('',*,*,#514,.F.);
#154=ORIENTED_EDGE('',*,*,#519,.T.);
#155=ORIENTED_EDGE('',*,*,#517,.T.);
#156=ORIENTED_EDGE('',*,*,#513,.F.);
#157=ORIENTED_EDGE('',*,*,#516,.T.);
#158=ORIENTED_EDGE('',*,*,#518,.T.);
#159=ORIENTED_EDGE('',*,*,#519,.F.);
#160=ORIENTED_EDGE('',*,*,#481,.F.);
#161=ORIENTED_EDGE('',*,*,#520,.F.);
#162=ORIENTED_EDGE('',*,*,#521,.T.);
#163=ORIENTED_EDGE('',*,*,#522,.T.);
#164=ORIENTED_EDGE('',*,*,#480,.T.);
#165=ORIENTED_EDGE('',*,*,#523,.F.);
#166=ORIENTED_EDGE('',*,*,#524,.F.);
#167=ORIENTED_EDGE('',*,*,#520,.T.);
#168=ORIENTED_EDGE('',*,*,#483,.T.);
#169=ORIENTED_EDGE('',*,*,#525,.F.);
#170=ORIENTED_EDGE('',*,*,#526,.F.);
#171=ORIENTED_EDGE('',*,*,#523,.T.);
#172=ORIENTED_EDGE('',*,*,#482,.F.);
#173=ORIENTED_EDGE('',*,*,#522,.F.);
#174=ORIENTED_EDGE('',*,*,#527,.T.);
#175=ORIENTED_EDGE('',*,*,#525,.T.);
#176=ORIENTED_EDGE('',*,*,#521,.F.);
#177=ORIENTED_EDGE('',*,*,#524,.T.);
#178=ORIENTED_EDGE('',*,*,#526,.T.);
#179=ORIENTED_EDGE('',*,*,#527,.F.);
#180=ORIENTED_EDGE('',*,*,#477,.F.);
#181=ORIENTED_EDGE('',*,*,#528,.F.);
#182=ORIENTED_EDGE('',*,*,#529,.T.);
#183=ORIENTED_EDGE('',*,*,#530,.T.);
#184=ORIENTED_EDGE('',*,*,#476,.T.);
#185=ORIENTED_EDGE('',*,*,#531,.F.);
#186=ORIENTED_EDGE('',*,*,#532,.F.);
#187=ORIENTED_EDGE('',*,*,#528,.T.);
#188=ORIENTED_EDGE('',*,*,#479,.T.);
#189=ORIENTED_EDGE('',*,*,#533,.F.);
#190=ORIENTED_EDGE('',*,*,#534,.F.);
#191=ORIENTED_EDGE('',*,*,#531,.T.);
#192=ORIENTED_EDGE('',*,*,#478,.F.);
#193=ORIENTED_EDGE('',*,*,#530,.F.);
#194=ORIENTED_EDGE('',*,*,#535,.T.);
#195=ORIENTED_EDGE('',*,*,#533,.T.);
#196=ORIENTED_EDGE('',*,*,#529,.F.);
#197=ORIENTED_EDGE('',*,*,#532,.T.);
#198=ORIENTED_EDGE('',*,*,#534,.T.);
#199=ORIENTED_EDGE('',*,*,#535,.F.);
#200=ORIENTED_EDGE('',*,*,#473,.F.);
#201=ORIENTED_EDGE('',*,*,#536,.F.);
#202=ORIENTED_EDGE('',*,*,#537,.T.);
#203=ORIENTED_EDGE('',*,*,#538,.T.);
#204=ORIENTED_EDGE('',*,*,#472,.T.);
#205=ORIENTED_EDGE('',*,*,#539,.F.);
#206=ORIENTED_EDGE('',*,*,#540,.F.);
#207=ORIENTED_EDGE('',*,*,#536,.T.);
#208=ORIENTED_EDGE('',*,*,#475,.T.);
#209=ORIENTED_EDGE('',*,*,#541,.F.);
#210=ORIENTED_EDGE('',*,*,#542,.F.);
#211=ORIENTED_EDGE('',*,*,#539,.T.);
#212=ORIENTED_EDGE('',*,*,#474,.F.);
#213=ORIENTED_EDGE('',*,*,#538,.F.);
#214=ORIENTED_EDGE('',*,*,#543,.T.);
#215=ORIENTED_EDGE('',*,*,#541,.T.);
#216=ORIENTED_EDGE('',*,*,#537,.F.);
#217=ORIENTED_EDGE('',*,*,#540,.T.);
#218=ORIENTED_EDGE('',*,*,#542,.T.);
#219=ORIENTED_EDGE('',*,*,#543,.F.);
#220=ORIENTED_EDGE('',*,*,#469,.F.);
#221=ORIENTED_EDGE('',*,*,#544,.F.);
#222=ORIENTED_EDGE('',*,*,#545,.T.);
#223=ORIENTED_EDGE('',*,*,#546,.T.);
#224=ORIENTED_EDGE('',*,*,#468,.T.);
#225=ORIENTED_EDGE('',*,*,#547,.F.);
#226=ORIENTED_EDGE('',*,*,#548,.F.);
#227=ORIENTED_EDGE('',*,*,#544,.T.);
#228=ORIENTED_EDGE('',*,*,#471,.T.);
#229=ORIENTED_EDGE('',*,*,#549,.F.);
#230=ORIENTED_EDGE('',*,*,#550,.F.);
#231=ORIENTED_EDGE('',*,*,#547,.T.);
#232=ORIENTED_EDGE('',*,*,#470,.F.);
#233=ORIENTED_EDGE('',*,*,#546,.F.);
#234=ORIENTED_EDGE('',*,*,#551,.T.);
#235=ORIENTED_EDGE('',*,*,#549,.T.);
#236=ORIENTED_EDGE('',*,*,#545,.F.);
#237=ORIENTED_EDGE('',*,*,#548,.T.);
#238=ORIENTED_EDGE('',*,*,#550,.T.);
#239=ORIENTED_EDGE('',*,*,#551,.F.);
#240=ORIENTED_EDGE('',*,*,#465,.F.);
#241=ORIENTED_EDGE('',*,*,#552,.F.);
#242=ORIENTED_EDGE('',*,*,#553,.T.);
#243=ORIENTED_EDGE('',*,*,#554,.T.);
#244=ORIENTED_EDGE('',*,*,#464,.T.);
#245=ORIENTED_EDGE('',*,*,#555,.F.);
#246=ORIENTED_EDGE('',*,*,#556,.F.);
#247=ORIENTED_EDGE('',*,*,#552,.T.);
#248=ORIENTED_EDGE('',*,*,#467,.T.);
#249=ORIENTED_EDGE('',*,*,#557,.F.);
#250=ORIENTED_EDGE('',*,*,#558,.F.);
#251=ORIENTED_EDGE('',*,*,#555,.T.);
#252=ORIENTED_EDGE('',*,*,#466,.F.);
#253=ORIENTED_EDGE('',*,*,#554,.F.);
#254=ORIENTED_EDGE('',*,*,#559,.T.);
#255=ORIENTED_EDGE('',*,*,#557,.T.);
#256=ORIENTED_EDGE('',*,*,#553,.F.);
#257=ORIENTED_EDGE('',*,*,#556,.T.);
#258=ORIENTED_EDGE('',*,*,#558,.T.);
#259=ORIENTED_EDGE('',*,*,#559,.F.);
#260=ORIENTED_EDGE('',*,*,#461,.F.);
#261=ORIENTED_EDGE('',*,*,#560,.F.);
#262=ORIENTED_EDGE('',*,*,#561,.T.);
#263=ORIENTED_EDGE('',*,*,#562,.T.);
#264=ORIENTED_EDGE('',*,*,#460,.T.);
#265=ORIENTED_EDGE('',*,*,#563,.F.);
#266=ORIENTED_EDGE('',*,*,#564,.F.);
#267=ORIENTED_EDGE('',*,*,#560,.T.);
#268=ORIENTED_EDGE('',*,*,#463,.T.);
#269=ORIENTED_EDGE('',*,*,#565,.F.);
#270=ORIENTED_EDGE('',*,*,#566,.F.);
#271=ORIENTED_EDGE('',*,*,#563,.T.);
#272=ORIENTED_EDGE('',*,*,#462,.F.);
#273=ORIENTED_EDGE('',*,*,#562,.F.);
#274=ORIENTED_EDGE('',*,*,#567,.T.);
#275=ORIENTED_EDGE('',*,*,#565,.T.);
#276=ORIENTED_EDGE('',*,*,#561,.F.);
#277=ORIENTED_EDGE('',*,*,#564,.T.);
#278=ORIENTED_EDGE('',*,*,#566,.T.);
#279=ORIENTED_EDGE('',*,*,#567,.F.);
#280=ORIENTED_EDGE('',*,*,#457,.F.);
#281=ORIENTED_EDGE('',*,*,#568,.F.);
#282=ORIENTED_EDGE('',*,*,#569,.T.);
#283=ORIENTED_EDGE('',*,*,#570,.T.);
#284=ORIENTED_EDGE('',*,*,#456,.T.);
#285=ORIENTED_EDGE('',*,*,#571,.F.);
#286=ORIENTED_EDGE('',*,*,#572,.F.);
#287=ORIENTED_EDGE('',*,*,#568,.T.);
#288=ORIENTED_EDGE('',*,*,#459,.T.);
#289=ORIENTED_EDGE('',*,*,#573,.F.);
#290=ORIENTED_EDGE('',*,*,#574,.F.);
#291=ORIENTED_EDGE('',*,*,#571,.T.);
#292=ORIENTED_EDGE('',*,*,#458,.F.);
#293=ORIENTED_EDGE('',*,*,#570,.F.);
#294=ORIENTED_EDGE('',*,*,#575,.T.);
#295=ORIENTED_EDGE('',*,*,#573,.T.);
#296=ORIENTED_EDGE('',*,*,#569,.F.);
#297=ORIENTED_EDGE('',*,*,#572,.T.);
#298=ORIENTED_EDGE('',*,*,#574,.T.);
#299=ORIENTED_EDGE('',*,*,#575,.F.);
#300=ORIENTED_EDGE('',*,*,#453,.F.);
#301=ORIENTED_EDGE('',*,*,#576,.F.);
#302=ORIENTED_EDGE('',*,*,#577,.T.);
#303=ORIENTED_EDGE('',*,*,#578,.T.);
#304=ORIENTED_EDGE('',*,*,#452,.T.);
#305=ORIENTED_EDGE('',*,*,#579,.F.);
#306=ORIENTED_EDGE('',*,*,#580,.F.);
#307=ORIENTED_EDGE('',*,*,#576,.T.);
#308=ORIENTED_EDGE('',*,*,#455,.T.);
#309=ORIENTED_EDGE('',*,*,#581,.F.);
#310=ORIENTED_EDGE('',*,*,#582,.F.);
#311=ORIENTED_EDGE('',*,*,#579,.T.);
#312=ORIENTED_EDGE('',*,*,#454,.F.);
#313=ORIENTED_EDGE('',*,*,#578,.F.);
#314=ORIENTED_EDGE('',*,*,#583,.T.);
#315=ORIENTED_EDGE('',*,*,#581,.T.);
#316=ORIENTED_EDGE('',*,*,#577,.F.);
#317=ORIENTED_EDGE('',*,*,#580,.T.);
#318=ORIENTED_EDGE('',*,*,#582,.T.);
#319=ORIENTED_EDGE('',*,*,#583,.F.);
#320=ORIENTED_EDGE('',*,*,#449,.F.);
#321=ORIENTED_EDGE('',*,*,#584,.F.);
#322=ORIENTED_EDGE('',*,*,#585,.T.);
#323=ORIENTED_EDGE('',*,*,#586,.T.);
#324=ORIENTED_EDGE('',*,*,#448,.T.);
#325=ORIENTED_EDGE('',*,*,#587,.F.);
#326=ORIENTED_EDGE('',*,*,#588,.F.);
#327=ORIENTED_EDGE('',*,*,#584,.T.);
#328=ORIENTED_EDGE('',*,*,#451,.T.);
#329=ORIENTED_EDGE('',*,*,#589,.F.);
#330=ORIENTED_EDGE('',*,*,#590,.F.);
#331=ORIENTED_EDGE('',*,*,#587,.T.);
#332=ORIENTED_EDGE('',*,*,#450,.F.);
#333=ORIENTED_EDGE('',*,*,#586,.F.);
#334=ORIENTED_EDGE('',*,*,#591,.T.);
#335=ORIENTED_EDGE('',*,*,#589,.T.);
#336=ORIENTED_EDGE('',*,*,#585,.F.);
#337=ORIENTED_EDGE('',*,*,#588,.T.);
#338=ORIENTED_EDGE('',*,*,#590,.T.);
#339=ORIENTED_EDGE('',*,*,#591,.F.);
#340=ORIENTED_EDGE('',*,*,#445,.F.);
#341=ORIENTED_EDGE('',*,*,#592,.F.);
#342=ORIENTED_EDGE('',*,*,#593,.T.);
#343=ORIENTED_EDGE('',*,*,#594,.T.);
#344=ORIENTED_EDGE('',*,*,#444,.T.);
#345=ORIENTED_EDGE('',*,*,#595,.F.);
#346=ORIENTED_EDGE('',*,*,#596,.F.);
#347=ORIENTED_EDGE('',*,*,#592,.T.);
#348=ORIENTED_EDGE('',*,*,#447,.T.);
#349=ORIENTED_EDGE('',*,*,#597,.F.);
#350=ORIENTED_EDGE('',*,*,#598,.F.);
#351=ORIENTED_EDGE('',*,*,#595,.T.);
#352=ORIENTED_EDGE('',*,*,#446,.F.);
#353=ORIENTED_EDGE('',*,*,#594,.F.);
#354=ORIENTED_EDGE('',*,*,#599,.T.);
#355=ORIENTED_EDGE('',*,*,#597,.T.);
#356=ORIENTED_EDGE('',*,*,#593,.F.);
#357=ORIENTED_EDGE('',*,*,#596,.T.);
#358=ORIENTED_EDGE('',*,*,#598,.T.);
#359=ORIENTED_EDGE('',*,*,#599,.F.);
#360=ORIENTED_EDGE('',*,*,#441,.F.);
#361=ORIENTED_EDGE('',*,*,#600,.F.);
#362=ORIENTED_EDGE('',*,*,#601,.T.);
#363=ORIENTED_EDGE('',*,*,#602,.T.);
#364=ORIENTED_EDGE('',*,*,#440,.T.);
#365=ORIENTED_EDGE('',*,*,#603,.F.);
#366=ORIENTED_EDGE('',*,*,#604,.F.);
#367=ORIENTED_EDGE('',*,*,#600,.T.);
#368=ORIENTED_EDGE('',*,*,#443,.T.);
#369=ORIENTED_EDGE('',*,*,#605,.F.);
#370=ORIENTED_EDGE('',*,*,#606,.F.);
#371=ORIENTED_EDGE('',*,*,#603,.T.);
#372=ORIENTED_EDGE('',*,*,#442,.F.);
#373=ORIENTED_EDGE('',*,*,#602,.F.);
#374=ORIENTED_EDGE('',*,*,#607,.T.);
#375=ORIENTED_EDGE('',*,*,#605,.T.);
#376=ORIENTED_EDGE('',*,*,#601,.F.);
#377=ORIENTED_EDGE('',*,*,#604,.T.);
#378=ORIENTED_EDGE('',*,*,#606,.T.);
#379=ORIENTED_EDGE('',*,*,#607,.F.);
#380=ORIENTED_EDGE('',*,*,#437,.F.);
#381=ORIENTED_EDGE('',*,*,#608,.F.);
#382=ORIENTED_EDGE('',*,*,#609,.T.);
#383=ORIENTED_EDGE('',*,*,#610,.T.);
#384=ORIENTED_EDGE('',*,*,#436,.T.);
#385=ORIENTED_EDGE('',*,*,#611,.F.);
#386=ORIENTED_EDGE('',*,*,#612,.F.);
#387=ORIENTED_EDGE('',*,*,#608,.T.);
#388=ORIENTED_EDGE('',*,*,#439,.T.);
#389=ORIENTED_EDGE('',*,*,#613,.F.);
#390=ORIENTED_EDGE('',*,*,#614,.F.);
#391=ORIENTED_EDGE('',*,*,#611,.T.);
#392=ORIENTED_EDGE('',*,*,#438,.F.);
#393=ORIENTED_EDGE('',*,*,#610,.F.);
#394=ORIENTED_EDGE('',*,*,#615,.T.);
#395=ORIENTED_EDGE('',*,*,#613,.T.);
#396=ORIENTED_EDGE('',*,*,#609,.F.);
#397=ORIENTED_EDGE('',*,*,#612,.T.);
#398=ORIENTED_EDGE('',*,*,#614,.T.);
#399=ORIENTED_EDGE('',*,*,#615,.F.);
#400=ORIENTED_EDGE('',*,*,#433,.F.);
#401=ORIENTED_EDGE('',*,*,#616,.F.);
#402=ORIENTED_EDGE('',*,*,#617,.T.);
#403=ORIENTED_EDGE('',*,*,#618,.T.);
#404=ORIENTED_EDGE('',*,*,#432,.T.);
#405=ORIENTED_EDGE('',*,*,#619,.F.);
#406=ORIENTED_EDGE('',*,*,#620,.F.);
#407=ORIENTED_EDGE('',*,*,#616,.T.);
#408=ORIENTED_EDGE('',*,*,#435,.T.);
#409=ORIENTED_EDGE('',*,*,#621,.F.);
#410=ORIENTED_EDGE('',*,*,#622,.F.);
#411=ORIENTED_EDGE('',*,*,#619,.T.);
#412=ORIENTED_EDGE('',*,*,#434,.F.);
#413=ORIENTED_EDGE('',*,*,#618,.F.);
#414=ORIENTED_EDGE('',*,*,#623,.T.);
#415=ORIENTED_EDGE('',*,*,#621,.T.);
#416=ORIENTED_EDGE('',*,*,#617,.F.);
#417=ORIENTED_EDGE('',*,*,#620,.T.);
#418=ORIENTED_EDGE('',*,*,#622,.T.);
#419=ORIENTED_EDGE('',*,*,#623,.F.);
#420=EDGE_CURVE('',#624,#625,#760,.T.);
#421=EDGE_CURVE('',#626,#624,#761,.T.);
#422=EDGE_CURVE('',#626,#627,#762,.T.);
#423=EDGE_CURVE('',#627,#625,#763,.T.);
#424=EDGE_CURVE('',#624,#628,#764,.T.);
#425=EDGE_CURVE('',#629,#628,#765,.T.);
#426=EDGE_CURVE('',#626,#629,#766,.T.);
#427=EDGE_CURVE('',#628,#630,#767,.T.);
#428=EDGE_CURVE('',#631,#630,#768,.T.);
#429=EDGE_CURVE('',#629,#631,#769,.T.);
#430=EDGE_CURVE('',#625,#630,#770,.T.);
#431=EDGE_CURVE('',#627,#631,#771,.T.);
#432=EDGE_CURVE('',#632,#633,#772,.T.);
#433=EDGE_CURVE('',#632,#634,#773,.T.);
#434=EDGE_CURVE('',#634,#635,#774,.T.);
#435=EDGE_CURVE('',#633,#635,#775,.T.);
#436=EDGE_CURVE('',#636,#637,#776,.T.);
#437=EDGE_CURVE('',#636,#638,#777,.T.);
#438=EDGE_CURVE('',#638,#639,#778,.T.);
#439=EDGE_CURVE('',#637,#639,#779,.T.);
#440=EDGE_CURVE('',#640,#641,#780,.T.);
#441=EDGE_CURVE('',#640,#642,#781,.T.);
#442=EDGE_CURVE('',#642,#643,#782,.T.);
#443=EDGE_CURVE('',#641,#643,#783,.T.);
#444=EDGE_CURVE('',#644,#645,#784,.T.);
#445=EDGE_CURVE('',#644,#646,#785,.T.);
#446=EDGE_CURVE('',#646,#647,#786,.T.);
#447=EDGE_CURVE('',#645,#647,#787,.T.);
#448=EDGE_CURVE('',#648,#649,#788,.T.);
#449=EDGE_CURVE('',#648,#650,#789,.T.);
#450=EDGE_CURVE('',#650,#651,#790,.T.);
#451=EDGE_CURVE('',#649,#651,#791,.T.);
#452=EDGE_CURVE('',#652,#653,#792,.T.);
#453=EDGE_CURVE('',#652,#654,#793,.T.);
#454=EDGE_CURVE('',#654,#655,#794,.T.);
#455=EDGE_CURVE('',#653,#655,#795,.T.);
#456=EDGE_CURVE('',#656,#657,#796,.T.);
#457=EDGE_CURVE('',#656,#658,#797,.T.);
#458=EDGE_CURVE('',#658,#659,#798,.T.);
#459=EDGE_CURVE('',#657,#659,#799,.T.);
#460=EDGE_CURVE('',#660,#661,#800,.T.);
#461=EDGE_CURVE('',#660,#662,#801,.T.);
#462=EDGE_CURVE('',#662,#663,#802,.T.);
#463=EDGE_CURVE('',#661,#663,#803,.T.);
#464=EDGE_CURVE('',#664,#665,#804,.T.);
#465=EDGE_CURVE('',#664,#666,#805,.T.);
#466=EDGE_CURVE('',#666,#667,#806,.T.);
#467=EDGE_CURVE('',#665,#667,#807,.T.);
#468=EDGE_CURVE('',#668,#669,#808,.T.);
#469=EDGE_CURVE('',#668,#670,#809,.T.);
#470=EDGE_CURVE('',#670,#671,#810,.T.);
#471=EDGE_CURVE('',#669,#671,#811,.T.);
#472=EDGE_CURVE('',#672,#673,#812,.T.);
#473=EDGE_CURVE('',#672,#674,#813,.T.);
#474=EDGE_CURVE('',#674,#675,#814,.T.);
#475=EDGE_CURVE('',#673,#675,#815,.T.);
#476=EDGE_CURVE('',#676,#677,#816,.T.);
#477=EDGE_CURVE('',#676,#678,#817,.T.);
#478=EDGE_CURVE('',#678,#679,#818,.T.);
#479=EDGE_CURVE('',#677,#679,#819,.T.);
#480=EDGE_CURVE('',#680,#681,#820,.T.);
#481=EDGE_CURVE('',#680,#682,#821,.T.);
#482=EDGE_CURVE('',#682,#683,#822,.T.);
#483=EDGE_CURVE('',#681,#683,#823,.T.);
#484=EDGE_CURVE('',#684,#685,#824,.T.);
#485=EDGE_CURVE('',#684,#686,#825,.T.);
#486=EDGE_CURVE('',#686,#687,#826,.T.);
#487=EDGE_CURVE('',#685,#687,#827,.T.);
#488=EDGE_CURVE('',#688,#689,#828,.T.);
#489=EDGE_CURVE('',#688,#690,#829,.T.);
#490=EDGE_CURVE('',#690,#691,#830,.T.);
#491=EDGE_CURVE('',#689,#691,#831,.T.);
#492=EDGE_CURVE('',#692,#693,#832,.T.);
#493=EDGE_CURVE('',#692,#694,#833,.T.);
#494=EDGE_CURVE('',#694,#695,#834,.T.);
#495=EDGE_CURVE('',#693,#695,#835,.T.);
#496=EDGE_CURVE('',#696,#692,#836,.T.);
#497=EDGE_CURVE('',#696,#697,#837,.T.);
#498=EDGE_CURVE('',#697,#694,#838,.T.);
#499=EDGE_CURVE('',#698,#693,#839,.T.);
#500=EDGE_CURVE('',#696,#698,#840,.T.);
#501=EDGE_CURVE('',#699,#695,#841,.T.);
#502=EDGE_CURVE('',#698,#699,#842,.T.);
#503=EDGE_CURVE('',#697,#699,#843,.T.);
#504=EDGE_CURVE('',#700,#688,#844,.T.);
#505=EDGE_CURVE('',#700,#701,#845,.T.);
#506=EDGE_CURVE('',#701,#690,#846,.T.);
#507=EDGE_CURVE('',#702,#689,#847,.T.);
#508=EDGE_CURVE('',#700,#702,#848,.T.);
#509=EDGE_CURVE('',#703,#691,#849,.T.);
#510=EDGE_CURVE('',#702,#703,#850,.T.);
#511=EDGE_CURVE('',#701,#703,#851,.T.);
#512=EDGE_CURVE('',#704,#684,#852,.T.);
#513=EDGE_CURVE('',#704,#705,#853,.T.);
#514=EDGE_CURVE('',#705,#686,#854,.T.);
#515=EDGE_CURVE('',#706,#685,#855,.T.);
#516=EDGE_CURVE('',#704,#706,#856,.T.);
#517=EDGE_CURVE('',#707,#687,#857,.T.);
#518=EDGE_CURVE('',#706,#707,#858,.T.);
#519=EDGE_CURVE('',#705,#707,#859,.T.);
#520=EDGE_CURVE('',#708,#680,#860,.T.);
#521=EDGE_CURVE('',#708,#709,#861,.T.);
#522=EDGE_CURVE('',#709,#682,#862,.T.);
#523=EDGE_CURVE('',#710,#681,#863,.T.);
#524=EDGE_CURVE('',#708,#710,#864,.T.);
#525=EDGE_CURVE('',#711,#683,#865,.T.);
#526=EDGE_CURVE('',#710,#711,#866,.T.);
#527=EDGE_CURVE('',#709,#711,#867,.T.);
#528=EDGE_CURVE('',#712,#676,#868,.T.);
#529=EDGE_CURVE('',#712,#713,#869,.T.);
#530=EDGE_CURVE('',#713,#678,#870,.T.);
#531=EDGE_CURVE('',#714,#677,#871,.T.);
#532=EDGE_CURVE('',#712,#714,#872,.T.);
#533=EDGE_CURVE('',#715,#679,#873,.T.);
#534=EDGE_CURVE('',#714,#715,#874,.T.);
#535=EDGE_CURVE('',#713,#715,#875,.T.);
#536=EDGE_CURVE('',#716,#672,#876,.T.);
#537=EDGE_CURVE('',#716,#717,#877,.T.);
#538=EDGE_CURVE('',#717,#674,#878,.T.);
#539=EDGE_CURVE('',#718,#673,#879,.T.);
#540=EDGE_CURVE('',#716,#718,#880,.T.);
#541=EDGE_CURVE('',#719,#675,#881,.T.);
#542=EDGE_CURVE('',#718,#719,#882,.T.);
#543=EDGE_CURVE('',#717,#719,#883,.T.);
#544=EDGE_CURVE('',#720,#668,#884,.T.);
#545=EDGE_CURVE('',#720,#721,#885,.T.);
#546=EDGE_CURVE('',#721,#670,#886,.T.);
#547=EDGE_CURVE('',#722,#669,#887,.T.);
#548=EDGE_CURVE('',#720,#722,#888,.T.);
#549=EDGE_CURVE('',#723,#671,#889,.T.);
#550=EDGE_CURVE('',#722,#723,#890,.T.);
#551=EDGE_CURVE('',#721,#723,#891,.T.);
#552=EDGE_CURVE('',#724,#664,#892,.T.);
#553=EDGE_CURVE('',#724,#725,#893,.T.);
#554=EDGE_CURVE('',#725,#666,#894,.T.);
#555=EDGE_CURVE('',#726,#665,#895,.T.);
#556=EDGE_CURVE('',#724,#726,#896,.T.);
#557=EDGE_CURVE('',#727,#667,#897,.T.);
#558=EDGE_CURVE('',#726,#727,#898,.T.);
#559=EDGE_CURVE('',#725,#727,#899,.T.);
#560=EDGE_CURVE('',#728,#660,#900,.T.);
#561=EDGE_CURVE('',#728,#729,#901,.T.);
#562=EDGE_CURVE('',#729,#662,#902,.T.);
#563=EDGE_CURVE('',#730,#661,#903,.T.);
#564=EDGE_CURVE('',#728,#730,#904,.T.);
#565=EDGE_CURVE('',#731,#663,#905,.T.);
#566=EDGE_CURVE('',#730,#731,#906,.T.);
#567=EDGE_CURVE('',#729,#731,#907,.T.);
#568=EDGE_CURVE('',#732,#656,#908,.T.);
#569=EDGE_CURVE('',#732,#733,#909,.T.);
#570=EDGE_CURVE('',#733,#658,#910,.T.);
#571=EDGE_CURVE('',#734,#657,#911,.T.);
#572=EDGE_CURVE('',#732,#734,#912,.T.);
#573=EDGE_CURVE('',#735,#659,#913,.T.);
#574=EDGE_CURVE('',#734,#735,#914,.T.);
#575=EDGE_CURVE('',#733,#735,#915,.T.);
#576=EDGE_CURVE('',#736,#652,#916,.T.);
#577=EDGE_CURVE('',#736,#737,#917,.T.);
#578=EDGE_CURVE('',#737,#654,#918,.T.);
#579=EDGE_CURVE('',#738,#653,#919,.T.);
#580=EDGE_CURVE('',#736,#738,#920,.T.);
#581=EDGE_CURVE('',#739,#655,#921,.T.);
#582=EDGE_CURVE('',#738,#739,#922,.T.);
#583=EDGE_CURVE('',#737,#739,#923,.T.);
#584=EDGE_CURVE('',#740,#648,#924,.T.);
#585=EDGE_CURVE('',#740,#741,#925,.T.);
#586=EDGE_CURVE('',#741,#650,#926,.T.);
#587=EDGE_CURVE('',#742,#649,#927,.T.);
#588=EDGE_CURVE('',#740,#742,#928,.T.);
#589=EDGE_CURVE('',#743,#651,#929,.T.);
#590=EDGE_CURVE('',#742,#743,#930,.T.);
#591=EDGE_CURVE('',#741,#743,#931,.T.);
#592=EDGE_CURVE('',#744,#644,#932,.T.);
#593=EDGE_CURVE('',#744,#745,#933,.T.);
#594=EDGE_CURVE('',#745,#646,#934,.T.);
#595=EDGE_CURVE('',#746,#645,#935,.T.);
#596=EDGE_CURVE('',#744,#746,#936,.T.);
#597=EDGE_CURVE('',#747,#647,#937,.T.);
#598=EDGE_CURVE('',#746,#747,#938,.T.);
#599=EDGE_CURVE('',#745,#747,#939,.T.);
#600=EDGE_CURVE('',#748,#640,#940,.T.);
#601=EDGE_CURVE('',#748,#749,#941,.T.);
#602=EDGE_CURVE('',#749,#642,#942,.T.);
#603=EDGE_CURVE('',#750,#641,#943,.T.);
#604=EDGE_CURVE('',#748,#750,#944,.T.);
#605=EDGE_CURVE('',#751,#643,#945,.T.);
#606=EDGE_CURVE('',#750,#751,#946,.T.);
#607=EDGE_CURVE('',#749,#751,#947,.T.);
#608=EDGE_CURVE('',#752,#636,#948,.T.);
#609=EDGE_CURVE('',#752,#753,#949,.T.);
#610=EDGE_CURVE('',#753,#638,#950,.T.);
#611=EDGE_CURVE('',#754,#637,#951,.T.);
#612=EDGE_CURVE('',#752,#754,#952,.T.);
#613=EDGE_CURVE('',#755,#639,#953,.T.);
#614=EDGE_CURVE('',#754,#755,#954,.T.);
#615=EDGE_CURVE('',#753,#755,#955,.T.);
#616=EDGE_CURVE('',#756,#632,#956,.T.);
#617=EDGE_CURVE('',#756,#757,#957,.T.);
#618=EDGE_CURVE('',#757,#634,#958,.T.);
#619=EDGE_CURVE('',#758,#633,#959,.T.);
#620=EDGE_CURVE('',#756,#758,#960,.T.);
#621=EDGE_CURVE('',#759,#635,#961,.T.);
#622=EDGE_CURVE('',#758,#759,#962,.T.);
#623=EDGE_CURVE('',#757,#759,#963,.T.);
#624=VERTEX_POINT('',#2067);
#625=VERTEX_POINT('',#2068);
#626=VERTEX_POINT('',#2070);
#627=VERTEX_POINT('',#2072);
#628=VERTEX_POINT('',#2076);
#629=VERTEX_POINT('',#2078);
#630=VERTEX_POINT('',#2082);
#631=VERTEX_POINT('',#2084);
#632=VERTEX_POINT('',#2092);
#633=VERTEX_POINT('',#2093);
#634=VERTEX_POINT('',#2095);
#635=VERTEX_POINT('',#2097);
#636=VERTEX_POINT('',#2100);
#637=VERTEX_POINT('',#2101);
#638=VERTEX_POINT('',#2103);
#639=VERTEX_POINT('',#2105);
#640=VERTEX_POINT('',#2108);
#641=VERTEX_POINT('',#2109);
#642=VERTEX_POINT('',#2111);
#643=VERTEX_POINT('',#2113);
#644=VERTEX_POINT('',#2116);
#645=VERTEX_POINT('',#2117);
#646=VERTEX_POINT('',#2119);
#647=VERTEX_POINT('',#2121);
#648=VERTEX_POINT('',#2124);
#649=VERTEX_POINT('',#2125);
#650=VERTEX_POINT('',#2127);
#651=VERTEX_POINT('',#2129);
#652=VERTEX_POINT('',#2132);
#653=VERTEX_POINT('',#2133);
#654=VERTEX_POINT('',#2135);
#655=VERTEX_POINT('',#2137);
#656=VERTEX_POINT('',#2140);
#657=VERTEX_POINT('',#2141);
#658=VERTEX_POINT('',#2143);
#659=VERTEX_POINT('',#2145);
#660=VERTEX_POINT('',#2148);
#661=VERTEX_POINT('',#2149);
#662=VERTEX_POINT('',#2151);
#663=VERTEX_POINT('',#2153);
#664=VERTEX_POINT('',#2156);
#665=VERTEX_POINT('',#2157);
#666=VERTEX_POINT('',#2159);
#667=VERTEX_POINT('',#2161);
#668=VERTEX_POINT('',#2164);
#669=VERTEX_POINT('',#2165);
#670=VERTEX_POINT('',#2167);
#671=VERTEX_POINT('',#2169);
#672=VERTEX_POINT('',#2172);
#673=VERTEX_POINT('',#2173);
#674=VERTEX_POINT('',#2175);
#675=VERTEX_POINT('',#2177);
#676=VERTEX_POINT('',#2180);
#677=VERTEX_POINT('',#2181);
#678=VERTEX_POINT('',#2183);
#679=VERTEX_POINT('',#2185);
#680=VERTEX_POINT('',#2188);
#681=VERTEX_POINT('',#2189);
#682=VERTEX_POINT('',#2191);
#683=VERTEX_POINT('',#2193);
#684=VERTEX_POINT('',#2196);
#685=VERTEX_POINT('',#2197);
#686=VERTEX_POINT('',#2199);
#687=VERTEX_POINT('',#2201);
#688=VERTEX_POINT('',#2204);
#689=VERTEX_POINT('',#2205);
#690=VERTEX_POINT('',#2207);
#691=VERTEX_POINT('',#2209);
#692=VERTEX_POINT('',#2212);
#693=VERTEX_POINT('',#2213);
#694=VERTEX_POINT('',#2215);
#695=VERTEX_POINT('',#2217);
#696=VERTEX_POINT('',#2221);
#697=VERTEX_POINT('',#2223);
#698=VERTEX_POINT('',#2227);
#699=VERTEX_POINT('',#2231);
#700=VERTEX_POINT('',#2238);
#701=VERTEX_POINT('',#2240);
#702=VERTEX_POINT('',#2244);
#703=VERTEX_POINT('',#2248);
#704=VERTEX_POINT('',#2255);
#705=VERTEX_POINT('',#2257);
#706=VERTEX_POINT('',#2261);
#707=VERTEX_POINT('',#2265);
#708=VERTEX_POINT('',#2272);
#709=VERTEX_POINT('',#2274);
#710=VERTEX_POINT('',#2278);
#711=VERTEX_POINT('',#2282);
#712=VERTEX_POINT('',#2289);
#713=VERTEX_POINT('',#2291);
#714=VERTEX_POINT('',#2295);
#715=VERTEX_POINT('',#2299);
#716=VERTEX_POINT('',#2306);
#717=VERTEX_POINT('',#2308);
#718=VERTEX_POINT('',#2312);
#719=VERTEX_POINT('',#2316);
#720=VERTEX_POINT('',#2323);
#721=VERTEX_POINT('',#2325);
#722=VERTEX_POINT('',#2329);
#723=VERTEX_POINT('',#2333);
#724=VERTEX_POINT('',#2340);
#725=VERTEX_POINT('',#2342);
#726=VERTEX_POINT('',#2346);
#727=VERTEX_POINT('',#2350);
#728=VERTEX_POINT('',#2357);
#729=VERTEX_POINT('',#2359);
#730=VERTEX_POINT('',#2363);
#731=VERTEX_POINT('',#2367);
#732=VERTEX_POINT('',#2374);
#733=VERTEX_POINT('',#2376);
#734=VERTEX_POINT('',#2380);
#735=VERTEX_POINT('',#2384);
#736=VERTEX_POINT('',#2391);
#737=VERTEX_POINT('',#2393);
#738=VERTEX_POINT('',#2397);
#739=VERTEX_POINT('',#2401);
#740=VERTEX_POINT('',#2408);
#741=VERTEX_POINT('',#2410);
#742=VERTEX_POINT('',#2414);
#743=VERTEX_POINT('',#2418);
#744=VERTEX_POINT('',#2425);
#745=VERTEX_POINT('',#2427);
#746=VERTEX_POINT('',#2431);
#747=VERTEX_POINT('',#2435);
#748=VERTEX_POINT('',#2442);
#749=VERTEX_POINT('',#2444);
#750=VERTEX_POINT('',#2448);
#751=VERTEX_POINT('',#2452);
#752=VERTEX_POINT('',#2459);
#753=VERTEX_POINT('',#2461);
#754=VERTEX_POINT('',#2465);
#755=VERTEX_POINT('',#2469);
#756=VERTEX_POINT('',#2476);
#757=VERTEX_POINT('',#2478);
#758=VERTEX_POINT('',#2482);
#759=VERTEX_POINT('',#2486);
#760=LINE('',#2066,#964);
#761=LINE('',#2069,#965);
#762=LINE('',#2071,#966);
#763=LINE('',#2073,#967);
#764=LINE('',#2075,#968);
#765=LINE('',#2077,#969);
#766=LINE('',#2079,#970);
#767=LINE('',#2081,#971);
#768=LINE('',#2083,#972);
#769=LINE('',#2085,#973);
#770=LINE('',#2087,#974);
#771=LINE('',#2088,#975);
#772=LINE('',#2091,#976);
#773=LINE('',#2094,#977);
#774=LINE('',#2096,#978);
#775=LINE('',#2098,#979);
#776=LINE('',#2099,#980);
#777=LINE('',#2102,#981);
#778=LINE('',#2104,#982);
#779=LINE('',#2106,#983);
#780=LINE('',#2107,#984);
#781=LINE('',#2110,#985);
#782=LINE('',#2112,#986);
#783=LINE('',#2114,#987);
#784=LINE('',#2115,#988);
#785=LINE('',#2118,#989);
#786=LINE('',#2120,#990);
#787=LINE('',#2122,#991);
#788=LINE('',#2123,#992);
#789=LINE('',#2126,#993);
#790=LINE('',#2128,#994);
#791=LINE('',#2130,#995);
#792=LINE('',#2131,#996);
#793=LINE('',#2134,#997);
#794=LINE('',#2136,#998);
#795=LINE('',#2138,#999);
#796=LINE('',#2139,#1000);
#797=LINE('',#2142,#1001);
#798=LINE('',#2144,#1002);
#799=LINE('',#2146,#1003);
#800=LINE('',#2147,#1004);
#801=LINE('',#2150,#1005);
#802=LINE('',#2152,#1006);
#803=LINE('',#2154,#1007);
#804=LINE('',#2155,#1008);
#805=LINE('',#2158,#1009);
#806=LINE('',#2160,#1010);
#807=LINE('',#2162,#1011);
#808=LINE('',#2163,#1012);
#809=LINE('',#2166,#1013);
#810=LINE('',#2168,#1014);
#811=LINE('',#2170,#1015);
#812=LINE('',#2171,#1016);
#813=LINE('',#2174,#1017);
#814=LINE('',#2176,#1018);
#815=LINE('',#2178,#1019);
#816=LINE('',#2179,#1020);
#817=LINE('',#2182,#1021);
#818=LINE('',#2184,#1022);
#819=LINE('',#2186,#1023);
#820=LINE('',#2187,#1024);
#821=LINE('',#2190,#1025);
#822=LINE('',#2192,#1026);
#823=LINE('',#2194,#1027);
#824=LINE('',#2195,#1028);
#825=LINE('',#2198,#1029);
#826=LINE('',#2200,#1030);
#827=LINE('',#2202,#1031);
#828=LINE('',#2203,#1032);
#829=LINE('',#2206,#1033);
#830=LINE('',#2208,#1034);
#831=LINE('',#2210,#1035);
#832=LINE('',#2211,#1036);
#833=LINE('',#2214,#1037);
#834=LINE('',#2216,#1038);
#835=LINE('',#2218,#1039);
#836=LINE('',#2220,#1040);
#837=LINE('',#2222,#1041);
#838=LINE('',#2224,#1042);
#839=LINE('',#2226,#1043);
#840=LINE('',#2228,#1044);
#841=LINE('',#2230,#1045);
#842=LINE('',#2232,#1046);
#843=LINE('',#2234,#1047);
#844=LINE('',#2237,#1048);
#845=LINE('',#2239,#1049);
#846=LINE('',#2241,#1050);
#847=LINE('',#2243,#1051);
#848=LINE('',#2245,#1052);
#849=LINE('',#2247,#1053);
#850=LINE('',#2249,#1054);
#851=LINE('',#2251,#1055);
#852=LINE('',#2254,#1056);
#853=LINE('',#2256,#1057);
#854=LINE('',#2258,#1058);
#855=LINE('',#2260,#1059);
#856=LINE('',#2262,#1060);
#857=LINE('',#2264,#1061);
#858=LINE('',#2266,#1062);
#859=LINE('',#2268,#1063);
#860=LINE('',#2271,#1064);
#861=LINE('',#2273,#1065);
#862=LINE('',#2275,#1066);
#863=LINE('',#2277,#1067);
#864=LINE('',#2279,#1068);
#865=LINE('',#2281,#1069);
#866=LINE('',#2283,#1070);
#867=LINE('',#2285,#1071);
#868=LINE('',#2288,#1072);
#869=LINE('',#2290,#1073);
#870=LINE('',#2292,#1074);
#871=LINE('',#2294,#1075);
#872=LINE('',#2296,#1076);
#873=LINE('',#2298,#1077);
#874=LINE('',#2300,#1078);
#875=LINE('',#2302,#1079);
#876=LINE('',#2305,#1080);
#877=LINE('',#2307,#1081);
#878=LINE('',#2309,#1082);
#879=LINE('',#2311,#1083);
#880=LINE('',#2313,#1084);
#881=LINE('',#2315,#1085);
#882=LINE('',#2317,#1086);
#883=LINE('',#2319,#1087);
#884=LINE('',#2322,#1088);
#885=LINE('',#2324,#1089);
#886=LINE('',#2326,#1090);
#887=LINE('',#2328,#1091);
#888=LINE('',#2330,#1092);
#889=LINE('',#2332,#1093);
#890=LINE('',#2334,#1094);
#891=LINE('',#2336,#1095);
#892=LINE('',#2339,#1096);
#893=LINE('',#2341,#1097);
#894=LINE('',#2343,#1098);
#895=LINE('',#2345,#1099);
#896=LINE('',#2347,#1100);
#897=LINE('',#2349,#1101);
#898=LINE('',#2351,#1102);
#899=LINE('',#2353,#1103);
#900=LINE('',#2356,#1104);
#901=LINE('',#2358,#1105);
#902=LINE('',#2360,#1106);
#903=LINE('',#2362,#1107);
#904=LINE('',#2364,#1108);
#905=LINE('',#2366,#1109);
#906=LINE('',#2368,#1110);
#907=LINE('',#2370,#1111);
#908=LINE('',#2373,#1112);
#909=LINE('',#2375,#1113);
#910=LINE('',#2377,#1114);
#911=LINE('',#2379,#1115);
#912=LINE('',#2381,#1116);
#913=LINE('',#2383,#1117);
#914=LINE('',#2385,#1118);
#915=LINE('',#2387,#1119);
#916=LINE('',#2390,#1120);
#917=LINE('',#2392,#1121);
#918=LINE('',#2394,#1122);
#919=LINE('',#2396,#1123);
#920=LINE('',#2398,#1124);
#921=LINE('',#2400,#1125);
#922=LINE('',#2402,#1126);
#923=LINE('',#2404,#1127);
#924=LINE('',#2407,#1128);
#925=LINE('',#2409,#1129);
#926=LINE('',#2411,#1130);
#927=LINE('',#2413,#1131);
#928=LINE('',#2415,#1132);
#929=LINE('',#2417,#1133);
#930=LINE('',#2419,#1134);
#931=LINE('',#2421,#1135);
#932=LINE('',#2424,#1136);
#933=LINE('',#2426,#1137);
#934=LINE('',#2428,#1138);
#935=LINE('',#2430,#1139);
#936=LINE('',#2432,#1140);
#937=LINE('',#2434,#1141);
#938=LINE('',#2436,#1142);
#939=LINE('',#2438,#1143);
#940=LINE('',#2441,#1144);
#941=LINE('',#2443,#1145);
#942=LINE('',#2445,#1146);
#943=LINE('',#2447,#1147);
#944=LINE('',#2449,#1148);
#945=LINE('',#2451,#1149);
#946=LINE('',#2453,#1150);
#947=LINE('',#2455,#1151);
#948=LINE('',#2458,#1152);
#949=LINE('',#2460,#1153);
#950=LINE('',#2462,#1154);
#951=LINE('',#2464,#1155);
#952=LINE('',#2466,#1156);
#953=LINE('',#2468,#1157);
#954=LINE('',#2470,#1158);
#955=LINE('',#2472,#1159);
#956=LINE('',#2475,#1160);
#957=LINE('',#2477,#1161);
#958=LINE('',#2479,#1162);
#959=LINE('',#2481,#1163);
#960=LINE('',#2483,#1164);
#961=LINE('',#2485,#1165);
#962=LINE('',#2487,#1166);
#963=LINE('',#2489,#1167);
#964=VECTOR('',#1690,1.);
#965=VECTOR('',#1691,1.);
#966=VECTOR('',#1692,1.);
#967=VECTOR('',#1693,1.);
#968=VECTOR('',#1696,1.);
#969=VECTOR('',#1697,1.);
#970=VECTOR('',#1698,1.);
#971=VECTOR('',#1701,1.);
#972=VECTOR('',#1702,1.);
#973=VECTOR('',#1703,1.);
#974=VECTOR('',#1706,1.);
#975=VECTOR('',#1707,1.);
#976=VECTOR('',#1712,1.);
#977=VECTOR('',#1713,1.);
#978=VECTOR('',#1714,1.);
#979=VECTOR('',#1715,1.);
#980=VECTOR('',#1716,1.);
#981=VECTOR('',#1717,1.);
#982=VECTOR('',#1718,1.);
#983=VECTOR('',#1719,1.);
#984=VECTOR('',#1720,1.);
#985=VECTOR('',#1721,1.);
#986=VECTOR('',#1722,1.);
#987=VECTOR('',#1723,1.);
#988=VECTOR('',#1724,1.);
#989=VECTOR('',#1725,1.);
#990=VECTOR('',#1726,1.);
#991=VECTOR('',#1727,1.);
#992=VECTOR('',#1728,1.);
#993=VECTOR('',#1729,1.);
#994=VECTOR('',#1730,1.);
#995=VECTOR('',#1731,1.);
#996=VECTOR('',#1732,1.);
#997=VECTOR('',#1733,1.);
#998=VECTOR('',#1734,1.);
#999=VECTOR('',#1735,1.);
#1000=VECTOR('',#1736,1.);
#1001=VECTOR('',#1737,1.);
#1002=VECTOR('',#1738,1.);
#1003=VECTOR('',#1739,1.);
#1004=VECTOR('',#1740,1.);
#1005=VECTOR('',#1741,1.);
#1006=VECTOR('',#1742,1.);
#1007=VECTOR('',#1743,1.);
#1008=VECTOR('',#1744,1.);
#1009=VECTOR('',#1745,1.);
#1010=VECTOR('',#1746,1.);
#1011=VECTOR('',#1747,1.);
#1012=VECTOR('',#1748,1.);
#1013=VECTOR('',#1749,1.);
#1014=VECTOR('',#1750,1.);
#1015=VECTOR('',#1751,1.);
#1016=VECTOR('',#1752,1.);
#1017=VECTOR('',#1753,1.);
#1018=VECTOR('',#1754,1.);
#1019=VECTOR('',#1755,1.);
#1020=VECTOR('',#1756,1.);
#1021=VECTOR('',#1757,1.);
#1022=VECTOR('',#1758,1.);
#1023=VECTOR('',#1759,1.);
#1024=VECTOR('',#1760,1.);
#1025=VECTOR('',#1761,1.);
#1026=VECTOR('',#1762,1.);
#1027=VECTOR('',#1763,1.);
#1028=VECTOR('',#1764,1.);
#1029=VECTOR('',#1765,1.);
#1030=VECTOR('',#1766,1.);
#1031=VECTOR('',#1767,1.);
#1032=VECTOR('',#1768,1.);
#1033=VECTOR('',#1769,1.);
#1034=VECTOR('',#1770,1.);
#1035=VECTOR('',#1771,1.);
#1036=VECTOR('',#1772,1.);
#1037=VECTOR('',#1773,1.);
#1038=VECTOR('',#1774,1.);
#1039=VECTOR('',#1775,1.);
#1040=VECTOR('',#1778,1.);
#1041=VECTOR('',#1779,1.);
#1042=VECTOR('',#1780,1.);
#1043=VECTOR('',#1783,1.);
#1044=VECTOR('',#1784,1.);
#1045=VECTOR('',#1787,1.);
#1046=VECTOR('',#1788,1.);
#1047=VECTOR('',#1791,1.);
#1048=VECTOR('',#1796,1.);
#1049=VECTOR('',#1797,1.);
#1050=VECTOR('',#1798,1.);
#1051=VECTOR('',#1801,1.);
#1052=VECTOR('',#1802,1.);
#1053=VECTOR('',#1805,1.);
#1054=VECTOR('',#1806,1.);
#1055=VECTOR('',#1809,1.);
#1056=VECTOR('',#1814,1.);
#1057=VECTOR('',#1815,1.);
#1058=VECTOR('',#1816,1.);
#1059=VECTOR('',#1819,1.);
#1060=VECTOR('',#1820,1.);
#1061=VECTOR('',#1823,1.);
#1062=VECTOR('',#1824,1.);
#1063=VECTOR('',#1827,1.);
#1064=VECTOR('',#1832,1.);
#1065=VECTOR('',#1833,1.);
#1066=VECTOR('',#1834,1.);
#1067=VECTOR('',#1837,1.);
#1068=VECTOR('',#1838,1.);
#1069=VECTOR('',#1841,1.);
#1070=VECTOR('',#1842,1.);
#1071=VECTOR('',#1845,1.);
#1072=VECTOR('',#1850,1.);
#1073=VECTOR('',#1851,1.);
#1074=VECTOR('',#1852,1.);
#1075=VECTOR('',#1855,1.);
#1076=VECTOR('',#1856,1.);
#1077=VECTOR('',#1859,1.);
#1078=VECTOR('',#1860,1.);
#1079=VECTOR('',#1863,1.);
#1080=VECTOR('',#1868,1.);
#1081=VECTOR('',#1869,1.);
#1082=VECTOR('',#1870,1.);
#1083=VECTOR('',#1873,1.);
#1084=VECTOR('',#1874,1.);
#1085=VECTOR('',#1877,1.);
#1086=VECTOR('',#1878,1.);
#1087=VECTOR('',#1881,1.);
#1088=VECTOR('',#1886,1.);
#1089=VECTOR('',#1887,1.);
#1090=VECTOR('',#1888,1.);
#1091=VECTOR('',#1891,1.);
#1092=VECTOR('',#1892,1.);
#1093=VECTOR('',#1895,1.);
#1094=VECTOR('',#1896,1.);
#1095=VECTOR('',#1899,1.);
#1096=VECTOR('',#1904,1.);
#1097=VECTOR('',#1905,1.);
#1098=VECTOR('',#1906,1.);
#1099=VECTOR('',#1909,1.);
#1100=VECTOR('',#1910,1.);
#1101=VECTOR('',#1913,1.);
#1102=VECTOR('',#1914,1.);
#1103=VECTOR('',#1917,1.);
#1104=VECTOR('',#1922,1.);
#1105=VECTOR('',#1923,1.);
#1106=VECTOR('',#1924,1.);
#1107=VECTOR('',#1927,1.);
#1108=VECTOR('',#1928,1.);
#1109=VECTOR('',#1931,1.);
#1110=VECTOR('',#1932,1.);
#1111=VECTOR('',#1935,1.);
#1112=VECTOR('',#1940,1.);
#1113=VECTOR('',#1941,1.);
#1114=VECTOR('',#1942,1.);
#1115=VECTOR('',#1945,1.);
#1116=VECTOR('',#1946,1.);
#1117=VECTOR('',#1949,1.);
#1118=VECTOR('',#1950,1.);
#1119=VECTOR('',#1953,1.);
#1120=VECTOR('',#1958,1.);
#1121=VECTOR('',#1959,1.);
#1122=VECTOR('',#1960,1.);
#1123=VECTOR('',#1963,1.);
#1124=VECTOR('',#1964,1.);
#1125=VECTOR('',#1967,1.);
#1126=VECTOR('',#1968,1.);
#1127=VECTOR('',#1971,1.);
#1128=VECTOR('',#1976,1.);
#1129=VECTOR('',#1977,1.);
#1130=VECTOR('',#1978,1.);
#1131=VECTOR('',#1981,1.);
#1132=VECTOR('',#1982,1.);
#1133=VECTOR('',#1985,1.);
#1134=VECTOR('',#1986,1.);
#1135=VECTOR('',#1989,1.);
#1136=VECTOR('',#1994,1.);
#1137=VECTOR('',#1995,1.);
#1138=VECTOR('',#1996,1.);
#1139=VECTOR('',#1999,1.);
#1140=VECTOR('',#2000,1.);
#1141=VECTOR('',#2003,1.);
#1142=VECTOR('',#2004,1.);
#1143=VECTOR('',#2007,1.);
#1144=VECTOR('',#2012,1.);
#1145=VECTOR('',#2013,1.);
#1146=VECTOR('',#2014,1.);
#1147=VECTOR('',#2017,1.);
#1148=VECTOR('',#2018,1.);
#1149=VECTOR('',#2021,1.);
#1150=VECTOR('',#2022,1.);
#1151=VECTOR('',#2025,1.);
#1152=VECTOR('',#2030,1.);
#1153=VECTOR('',#2031,1.);
#1154=VECTOR('',#2032,1.);
#1155=VECTOR('',#2035,1.);
#1156=VECTOR('',#2036,1.);
#1157=VECTOR('',#2039,1.);
#1158=VECTOR('',#2040,1.);
#1159=VECTOR('',#2043,1.);
#1160=VECTOR('',#2048,1.);
#1161=VECTOR('',#2049,1.);
#1162=VECTOR('',#2050,1.);
#1163=VECTOR('',#2053,1.);
#1164=VECTOR('',#2054,1.);
#1165=VECTOR('',#2057,1.);
#1166=VECTOR('',#2058,1.);
#1167=VECTOR('',#2061,1.);
#1168=EDGE_LOOP('',(#12,#13,#14,#15));
#1169=EDGE_LOOP('',(#16,#17,#18,#19));
#1170=EDGE_LOOP('',(#20,#21,#22,#23));
#1171=EDGE_LOOP('',(#24,#25,#26,#27));
#1172=EDGE_LOOP('',(#28,#29,#30,#31));
#1173=EDGE_LOOP('',(#32,#33,#34,#35));
#1174=EDGE_LOOP('',(#36,#37,#38,#39));
#1175=EDGE_LOOP('',(#40,#41,#42,#43));
#1176=EDGE_LOOP('',(#44,#45,#46,#47));
#1177=EDGE_LOOP('',(#48,#49,#50,#51));
#1178=EDGE_LOOP('',(#52,#53,#54,#55));
#1179=EDGE_LOOP('',(#56,#57,#58,#59));
#1180=EDGE_LOOP('',(#60,#61,#62,#63));
#1181=EDGE_LOOP('',(#64,#65,#66,#67));
#1182=EDGE_LOOP('',(#68,#69,#70,#71));
#1183=EDGE_LOOP('',(#72,#73,#74,#75));
#1184=EDGE_LOOP('',(#76,#77,#78,#79));
#1185=EDGE_LOOP('',(#80,#81,#82,#83));
#1186=EDGE_LOOP('',(#84,#85,#86,#87));
#1187=EDGE_LOOP('',(#88,#89,#90,#91));
#1188=EDGE_LOOP('',(#92,#93,#94,#95));
#1189=EDGE_LOOP('',(#96,#97,#98,#99));
#1190=EDGE_LOOP('',(#100,#101,#102,#103));
#1191=EDGE_LOOP('',(#104,#105,#106,#107));
#1192=EDGE_LOOP('',(#108,#109,#110,#111));
#1193=EDGE_LOOP('',(#112,#113,#114,#115));
#1194=EDGE_LOOP('',(#116,#117,#118,#119));
#1195=EDGE_LOOP('',(#120,#121,#122,#123));
#1196=EDGE_LOOP('',(#124,#125,#126,#127));
#1197=EDGE_LOOP('',(#128,#129,#130,#131));
#1198=EDGE_LOOP('',(#132,#133,#134,#135));
#1199=EDGE_LOOP('',(#136,#137,#138,#139));
#1200=EDGE_LOOP('',(#140,#141,#142,#143));
#1201=EDGE_LOOP('',(#144,#145,#146,#147));
#1202=EDGE_LOOP('',(#148,#149,#150,#151));
#1203=EDGE_LOOP('',(#152,#153,#154,#155));
#1204=EDGE_LOOP('',(#156,#157,#158,#159));
#1205=EDGE_LOOP('',(#160,#161,#162,#163));
#1206=EDGE_LOOP('',(#164,#165,#166,#167));
#1207=EDGE_LOOP('',(#168,#169,#170,#171));
#1208=EDGE_LOOP('',(#172,#173,#174,#175));
#1209=EDGE_LOOP('',(#176,#177,#178,#179));
#1210=EDGE_LOOP('',(#180,#181,#182,#183));
#1211=EDGE_LOOP('',(#184,#185,#186,#187));
#1212=EDGE_LOOP('',(#188,#189,#190,#191));
#1213=EDGE_LOOP('',(#192,#193,#194,#195));
#1214=EDGE_LOOP('',(#196,#197,#198,#199));
#1215=EDGE_LOOP('',(#200,#201,#202,#203));
#1216=EDGE_LOOP('',(#204,#205,#206,#207));
#1217=EDGE_LOOP('',(#208,#209,#210,#211));
#1218=EDGE_LOOP('',(#212,#213,#214,#215));
#1219=EDGE_LOOP('',(#216,#217,#218,#219));
#1220=EDGE_LOOP('',(#220,#221,#222,#223));
#1221=EDGE_LOOP('',(#224,#225,#226,#227));
#1222=EDGE_LOOP('',(#228,#229,#230,#231));
#1223=EDGE_LOOP('',(#232,#233,#234,#235));
#1224=EDGE_LOOP('',(#236,#237,#238,#239));
#1225=EDGE_LOOP('',(#240,#241,#242,#243));
#1226=EDGE_LOOP('',(#244,#245,#246,#247));
#1227=EDGE_LOOP('',(#248,#249,#250,#251));
#1228=EDGE_LOOP('',(#252,#253,#254,#255));
#1229=EDGE_LOOP('',(#256,#257,#258,#259));
#1230=EDGE_LOOP('',(#260,#261,#262,#263));
#1231=EDGE_LOOP('',(#264,#265,#266,#267));
#1232=EDGE_LOOP('',(#268,#269,#270,#271));
#1233=EDGE_LOOP('',(#272,#273,#274,#275));
#1234=EDGE_LOOP('',(#276,#277,#278,#279));
#1235=EDGE_LOOP('',(#280,#281,#282,#283));
#1236=EDGE_LOOP('',(#284,#285,#286,#287));
#1237=EDGE_LOOP('',(#288,#289,#290,#291));
#1238=EDGE_LOOP('',(#292,#293,#294,#295));
#1239=EDGE_LOOP('',(#296,#297,#298,#299));
#1240=EDGE_LOOP('',(#300,#301,#302,#303));
#1241=EDGE_LOOP('',(#304,#305,#306,#307));
#1242=EDGE_LOOP('',(#308,#309,#310,#311));
#1243=EDGE_LOOP('',(#312,#313,#314,#315));
#1244=EDGE_LOOP('',(#316,#317,#318,#319));
#1245=EDGE_LOOP('',(#320,#321,#322,#323));
#1246=EDGE_LOOP('',(#324,#325,#326,#327));
#1247=EDGE_LOOP('',(#328,#329,#330,#331));
#1248=EDGE_LOOP('',(#332,#333,#334,#335));
#1249=EDGE_LOOP('',(#336,#337,#338,#339));
#1250=EDGE_LOOP('',(#340,#341,#342,#343));
#1251=EDGE_LOOP('',(#344,#345,#346,#347));
#1252=EDGE_LOOP('',(#348,#349,#350,#351));
#1253=EDGE_LOOP('',(#352,#353,#354,#355));
#1254=EDGE_LOOP('',(#356,#357,#358,#359));
#1255=EDGE_LOOP('',(#360,#361,#362,#363));
#1256=EDGE_LOOP('',(#364,#365,#366,#367));
#1257=EDGE_LOOP('',(#368,#369,#370,#371));
#1258=EDGE_LOOP('',(#372,#373,#374,#375));
#1259=EDGE_LOOP('',(#376,#377,#378,#379));
#1260=EDGE_LOOP('',(#380,#381,#382,#383));
#1261=EDGE_LOOP('',(#384,#385,#386,#387));
#1262=EDGE_LOOP('',(#388,#389,#390,#391));
#1263=EDGE_LOOP('',(#392,#393,#394,#395));
#1264=EDGE_LOOP('',(#396,#397,#398,#399));
#1265=EDGE_LOOP('',(#400,#401,#402,#403));
#1266=EDGE_LOOP('',(#404,#405,#406,#407));
#1267=EDGE_LOOP('',(#408,#409,#410,#411));
#1268=EDGE_LOOP('',(#412,#413,#414,#415));
#1269=EDGE_LOOP('',(#416,#417,#418,#419));
#1270=FACE_BOUND('',#1168,.T.);
#1271=FACE_BOUND('',#1169,.T.);
#1272=FACE_BOUND('',#1170,.T.);
#1273=FACE_BOUND('',#1171,.T.);
#1274=FACE_BOUND('',#1172,.T.);
#1275=FACE_BOUND('',#1173,.T.);
#1276=FACE_BOUND('',#1174,.T.);
#1277=FACE_BOUND('',#1175,.T.);
#1278=FACE_BOUND('',#1176,.T.);
#1279=FACE_BOUND('',#1177,.T.);
#1280=FACE_BOUND('',#1178,.T.);
#1281=FACE_BOUND('',#1179,.T.);
#1282=FACE_BOUND('',#1180,.T.);
#1283=FACE_BOUND('',#1181,.T.);
#1284=FACE_BOUND('',#1182,.T.);
#1285=FACE_BOUND('',#1183,.T.);
#1286=FACE_BOUND('',#1184,.T.);
#1287=FACE_BOUND('',#1185,.T.);
#1288=FACE_BOUND('',#1186,.T.);
#1289=FACE_BOUND('',#1187,.T.);
#1290=FACE_BOUND('',#1188,.T.);
#1291=FACE_BOUND('',#1189,.T.);
#1292=FACE_BOUND('',#1190,.T.);
#1293=FACE_BOUND('',#1191,.T.);
#1294=FACE_BOUND('',#1192,.T.);
#1295=FACE_BOUND('',#1193,.T.);
#1296=FACE_BOUND('',#1194,.T.);
#1297=FACE_BOUND('',#1195,.T.);
#1298=FACE_BOUND('',#1196,.T.);
#1299=FACE_BOUND('',#1197,.T.);
#1300=FACE_BOUND('',#1198,.T.);
#1301=FACE_BOUND('',#1199,.T.);
#1302=FACE_BOUND('',#1200,.T.);
#1303=FACE_BOUND('',#1201,.T.);
#1304=FACE_BOUND('',#1202,.T.);
#1305=FACE_BOUND('',#1203,.T.);
#1306=FACE_BOUND('',#1204,.T.);
#1307=FACE_BOUND('',#1205,.T.);
#1308=FACE_BOUND('',#1206,.T.);
#1309=FACE_BOUND('',#1207,.T.);
#1310=FACE_BOUND('',#1208,.T.);
#1311=FACE_BOUND('',#1209,.T.);
#1312=FACE_BOUND('',#1210,.T.);
#1313=FACE_BOUND('',#1211,.T.);
#1314=FACE_BOUND('',#1212,.T.);
#1315=FACE_BOUND('',#1213,.T.);
#1316=FACE_BOUND('',#1214,.T.);
#1317=FACE_BOUND('',#1215,.T.);
#1318=FACE_BOUND('',#1216,.T.);
#1319=FACE_BOUND('',#1217,.T.);
#1320=FACE_BOUND('',#1218,.T.);
#1321=FACE_BOUND('',#1219,.T.);
#1322=FACE_BOUND('',#1220,.T.);
#1323=FACE_BOUND('',#1221,.T.);
#1324=FACE_BOUND('',#1222,.T.);
#1325=FACE_BOUND('',#1223,.T.);
#1326=FACE_BOUND('',#1224,.T.);
#1327=FACE_BOUND('',#1225,.T.);
#1328=FACE_BOUND('',#1226,.T.);
#1329=FACE_BOUND('',#1227,.T.);
#1330=FACE_BOUND('',#1228,.T.);
#1331=FACE_BOUND('',#1229,.T.);
#1332=FACE_BOUND('',#1230,.T.);
#1333=FACE_BOUND('',#1231,.T.);
#1334=FACE_BOUND('',#1232,.T.);
#1335=FACE_BOUND('',#1233,.T.);
#1336=FACE_BOUND('',#1234,.T.);
#1337=FACE_BOUND('',#1235,.T.);
#1338=FACE_BOUND('',#1236,.T.);
#1339=FACE_BOUND('',#1237,.T.);
#1340=FACE_BOUND('',#1238,.T.);
#1341=FACE_BOUND('',#1239,.T.);
#1342=FACE_BOUND('',#1240,.T.);
#1343=FACE_BOUND('',#1241,.T.);
#1344=FACE_BOUND('',#1242,.T.);
#1345=FACE_BOUND('',#1243,.T.);
#1346=FACE_BOUND('',#1244,.T.);
#1347=FACE_BOUND('',#1245,.T.);
#1348=FACE_BOUND('',#1246,.T.);
#1349=FACE_BOUND('',#1247,.T.);
#1350=FACE_BOUND('',#1248,.T.);
#1351=FACE_BOUND('',#1249,.T.);
#1352=FACE_BOUND('',#1250,.T.);
#1353=FACE_BOUND('',#1251,.T.);
#1354=FACE_BOUND('',#1252,.T.);
#1355=FACE_BOUND('',#1253,.T.);
#1356=FACE_BOUND('',#1254,.T.);
#1357=FACE_BOUND('',#1255,.T.);
#1358=FACE_BOUND('',#1256,.T.);
#1359=FACE_BOUND('',#1257,.T.);
#1360=FACE_BOUND('',#1258,.T.);
#1361=FACE_BOUND('',#1259,.T.);
#1362=FACE_BOUND('',#1260,.T.);
#1363=FACE_BOUND('',#1261,.T.);
#1364=FACE_BOUND('',#1262,.T.);
#1365=FACE_BOUND('',#1263,.T.);
#1366=FACE_BOUND('',#1264,.T.);
#1367=FACE_BOUND('',#1265,.T.);
#1368=FACE_BOUND('',#1266,.T.);
#1369=FACE_BOUND('',#1267,.T.);
#1370=FACE_BOUND('',#1268,.T.);
#1371=FACE_BOUND('',#1269,.T.);
#1372=PLANE('',#1600);
#1373=PLANE('',#1601);
#1374=PLANE('',#1602);
#1375=PLANE('',#1603);
#1376=PLANE('',#1604);
#1377=PLANE('',#1605);
#1378=PLANE('',#1606);
#1379=PLANE('',#1607);
#1380=PLANE('',#1608);
#1381=PLANE('',#1609);
#1382=PLANE('',#1610);
#1383=PLANE('',#1611);
#1384=PLANE('',#1612);
#1385=PLANE('',#1613);
#1386=PLANE('',#1614);
#1387=PLANE('',#1615);
#1388=PLANE('',#1616);
#1389=PLANE('',#1617);
#1390=PLANE('',#1618);
#1391=PLANE('',#1619);
#1392=PLANE('',#1620);
#1393=PLANE('',#1621);
#1394=PLANE('',#1622);
#1395=PLANE('',#1623);
#1396=PLANE('',#1624);
#1397=PLANE('',#1625);
#1398=PLANE('',#1626);
#1399=PLANE('',#1627);
#1400=PLANE('',#1628);
#1401=PLANE('',#1629);
#1402=PLANE('',#1630);
#1403=PLANE('',#1631);
#1404=PLANE('',#1632);
#1405=PLANE('',#1633);
#1406=PLANE('',#1634);
#1407=PLANE('',#1635);
#1408=PLANE('',#1636);
#1409=PLANE('',#1637);
#1410=PLANE('',#1638);
#1411=PLANE('',#1639);
#1412=PLANE('',#1640);
#1413=PLANE('',#1641);
#1414=PLANE('',#1642);
#1415=PLANE('',#1643);
#1416=PLANE('',#1644);
#1417=PLANE('',#1645);
#1418=PLANE('',#1646);
#1419=PLANE('',#1647);
#1420=PLANE('',#1648);
#1421=PLANE('',#1649);
#1422=PLANE('',#1650);
#1423=PLANE('',#1651);
#1424=PLANE('',#1652);
#1425=PLANE('',#1653);
#1426=PLANE('',#1654);
#1427=PLANE('',#1655);
#1428=PLANE('',#1656);
#1429=PLANE('',#1657);
#1430=PLANE('',#1658);
#1431=PLANE('',#1659);
#1432=PLANE('',#1660);
#1433=PLANE('',#1661);
#1434=PLANE('',#1662);
#1435=PLANE('',#1663);
#1436=PLANE('',#1664);
#1437=PLANE('',#1665);
#1438=PLANE('',#1666);
#1439=PLANE('',#1667);
#1440=PLANE('',#1668);
#1441=PLANE('',#1669);
#1442=PLANE('',#1670);
#1443=PLANE('',#1671);
#1444=PLANE('',#1672);
#1445=PLANE('',#1673);
#1446=PLANE('',#1674);
#1447=PLANE('',#1675);
#1448=PLANE('',#1676);
#1449=PLANE('',#1677);
#1450=PLANE('',#1678);
#1451=PLANE('',#1679);
#1452=PLANE('',#1680);
#1453=PLANE('',#1681);
#1454=PLANE('',#1682);
#1455=PLANE('',#1683);
#1456=PLANE('',#1684);
#1457=PLANE('',#1685);
#1458=OVER_RIDING_STYLED_ITEM('',(#1554),#1465,#1552);
#1459=OVER_RIDING_STYLED_ITEM('',(#1555),#1466,#1552);
#1460=OVER_RIDING_STYLED_ITEM('',(#1556),#1467,#1552);
#1461=OVER_RIDING_STYLED_ITEM('',(#1557),#1468,#1552);
#1462=OVER_RIDING_STYLED_ITEM('',(#1558),#1469,#1552);
#1463=OVER_RIDING_STYLED_ITEM('',(#1559),#1470,#1552);
#1464=DRAUGHTING_PRE_DEFINED_COLOUR('red');
#1465=ADVANCED_FACE('Face appearance 1',(#1270),#1372,.T.);
#1466=ADVANCED_FACE('Face appearance 1',(#1271),#1373,.F.);
#1467=ADVANCED_FACE('Face appearance 1',(#1272),#1374,.F.);
#1468=ADVANCED_FACE('Face appearance 1',(#1273),#1375,.T.);
#1469=ADVANCED_FACE('Face appearance 1',(#1274),#1376,.T.);
#1470=ADVANCED_FACE('Face appearance 1',(#1275,#1276,#1277,#1278,#1279,
#1280,#1281,#1282,#1283,#1284,#1285,#1286,#1287,#1288,#1289,#1290,#1291),
#1377,.F.);
#1471=ADVANCED_FACE('',(#1292),#1378,.T.);
#1472=ADVANCED_FACE('',(#1293),#1379,.F.);
#1473=ADVANCED_FACE('',(#1294),#1380,.F.);
#1474=ADVANCED_FACE('',(#1295),#1381,.T.);
#1475=ADVANCED_FACE('',(#1296),#1382,.T.);
#1476=ADVANCED_FACE('',(#1297),#1383,.T.);
#1477=ADVANCED_FACE('',(#1298),#1384,.F.);
#1478=ADVANCED_FACE('',(#1299),#1385,.F.);
#1479=ADVANCED_FACE('',(#1300),#1386,.T.);
#1480=ADVANCED_FACE('',(#1301),#1387,.T.);
#1481=ADVANCED_FACE('',(#1302),#1388,.T.);
#1482=ADVANCED_FACE('',(#1303),#1389,.F.);
#1483=ADVANCED_FACE('',(#1304),#1390,.F.);
#1484=ADVANCED_FACE('',(#1305),#1391,.T.);
#1485=ADVANCED_FACE('',(#1306),#1392,.T.);
#1486=ADVANCED_FACE('',(#1307),#1393,.T.);
#1487=ADVANCED_FACE('',(#1308),#1394,.F.);
#1488=ADVANCED_FACE('',(#1309),#1395,.F.);
#1489=ADVANCED_FACE('',(#1310),#1396,.T.);
#1490=ADVANCED_FACE('',(#1311),#1397,.T.);
#1491=ADVANCED_FACE('',(#1312),#1398,.T.);
#1492=ADVANCED_FACE('',(#1313),#1399,.F.);
#1493=ADVANCED_FACE('',(#1314),#1400,.F.);
#1494=ADVANCED_FACE('',(#1315),#1401,.T.);
#1495=ADVANCED_FACE('',(#1316),#1402,.T.);
#1496=ADVANCED_FACE('',(#1317),#1403,.T.);
#1497=ADVANCED_FACE('',(#1318),#1404,.F.);
#1498=ADVANCED_FACE('',(#1319),#1405,.F.);
#1499=ADVANCED_FACE('',(#1320),#1406,.T.);
#1500=ADVANCED_FACE('',(#1321),#1407,.T.);
#1501=ADVANCED_FACE('',(#1322),#1408,.T.);
#1502=ADVANCED_FACE('',(#1323),#1409,.F.);
#1503=ADVANCED_FACE('',(#1324),#1410,.F.);
#1504=ADVANCED_FACE('',(#1325),#1411,.T.);
#1505=ADVANCED_FACE('',(#1326),#1412,.T.);
#1506=ADVANCED_FACE('',(#1327),#1413,.T.);
#1507=ADVANCED_FACE('',(#1328),#1414,.F.);
#1508=ADVANCED_FACE('',(#1329),#1415,.F.);
#1509=ADVANCED_FACE('',(#1330),#1416,.T.);
#1510=ADVANCED_FACE('',(#1331),#1417,.T.);
#1511=ADVANCED_FACE('',(#1332),#1418,.T.);
#1512=ADVANCED_FACE('',(#1333),#1419,.F.);
#1513=ADVANCED_FACE('',(#1334),#1420,.F.);
#1514=ADVANCED_FACE('',(#1335),#1421,.T.);
#1515=ADVANCED_FACE('',(#1336),#1422,.T.);
#1516=ADVANCED_FACE('',(#1337),#1423,.T.);
#1517=ADVANCED_FACE('',(#1338),#1424,.F.);
#1518=ADVANCED_FACE('',(#1339),#1425,.F.);
#1519=ADVANCED_FACE('',(#1340),#1426,.T.);
#1520=ADVANCED_FACE('',(#1341),#1427,.T.);
#1521=ADVANCED_FACE('',(#1342),#1428,.T.);
#1522=ADVANCED_FACE('',(#1343),#1429,.F.);
#1523=ADVANCED_FACE('',(#1344),#1430,.F.);
#1524=ADVANCED_FACE('',(#1345),#1431,.T.);
#1525=ADVANCED_FACE('',(#1346),#1432,.T.);
#1526=ADVANCED_FACE('',(#1347),#1433,.T.);
#1527=ADVANCED_FACE('',(#1348),#1434,.F.);
#1528=ADVANCED_FACE('',(#1349),#1435,.F.);
#1529=ADVANCED_FACE('',(#1350),#1436,.T.);
#1530=ADVANCED_FACE('',(#1351),#1437,.T.);
#1531=ADVANCED_FACE('',(#1352),#1438,.T.);
#1532=ADVANCED_FACE('',(#1353),#1439,.F.);
#1533=ADVANCED_FACE('',(#1354),#1440,.F.);
#1534=ADVANCED_FACE('',(#1355),#1441,.T.);
#1535=ADVANCED_FACE('',(#1356),#1442,.T.);
#1536=ADVANCED_FACE('',(#1357),#1443,.T.);
#1537=ADVANCED_FACE('',(#1358),#1444,.F.);
#1538=ADVANCED_FACE('',(#1359),#1445,.F.);
#1539=ADVANCED_FACE('',(#1360),#1446,.T.);
#1540=ADVANCED_FACE('',(#1361),#1447,.T.);
#1541=ADVANCED_FACE('',(#1362),#1448,.T.);
#1542=ADVANCED_FACE('',(#1363),#1449,.F.);
#1543=ADVANCED_FACE('',(#1364),#1450,.F.);
#1544=ADVANCED_FACE('',(#1365),#1451,.T.);
#1545=ADVANCED_FACE('',(#1366),#1452,.T.);
#1546=ADVANCED_FACE('',(#1367),#1453,.T.);
#1547=ADVANCED_FACE('',(#1368),#1454,.F.);
#1548=ADVANCED_FACE('',(#1369),#1455,.F.);
#1549=ADVANCED_FACE('',(#1370),#1456,.T.);
#1550=ADVANCED_FACE('',(#1371),#1457,.T.);
#1551=CLOSED_SHELL('',(#1465,#1466,#1467,#1468,#1469,#1470,#1471,#1472,
#1473,#1474,#1475,#1476,#1477,#1478,#1479,#1480,#1481,#1482,#1483,#1484,
#1485,#1486,#1487,#1488,#1489,#1490,#1491,#1492,#1493,#1494,#1495,#1496,
#1497,#1498,#1499,#1500,#1501,#1502,#1503,#1504,#1505,#1506,#1507,#1508,
#1509,#1510,#1511,#1512,#1513,#1514,#1515,#1516,#1517,#1518,#1519,#1520,
#1521,#1522,#1523,#1524,#1525,#1526,#1527,#1528,#1529,#1530,#1531,#1532,
#1533,#1534,#1535,#1536,#1537,#1538,#1539,#1540,#1541,#1542,#1543,#1544,
#1545,#1546,#1547,#1548,#1549,#1550));
#1552=STYLED_ITEM('',(#1553),#1596);
#1553=PRESENTATION_STYLE_ASSIGNMENT((#1560));
#1554=PRESENTATION_STYLE_ASSIGNMENT((#1561));
#1555=PRESENTATION_STYLE_ASSIGNMENT((#1562));
#1556=PRESENTATION_STYLE_ASSIGNMENT((#1563));
#1557=PRESENTATION_STYLE_ASSIGNMENT((#1564));
#1558=PRESENTATION_STYLE_ASSIGNMENT((#1565));
#1559=PRESENTATION_STYLE_ASSIGNMENT((#1566));
#1560=SURFACE_STYLE_USAGE(.BOTH.,#1567);
#1561=SURFACE_STYLE_USAGE(.BOTH.,#1568);
#1562=SURFACE_STYLE_USAGE(.BOTH.,#1569);
#1563=SURFACE_STYLE_USAGE(.BOTH.,#1570);
#1564=SURFACE_STYLE_USAGE(.BOTH.,#1571);
#1565=SURFACE_STYLE_USAGE(.BOTH.,#1572);
#1566=SURFACE_STYLE_USAGE(.BOTH.,#1573);
#1567=SURFACE_SIDE_STYLE('',(#1574));
#1568=SURFACE_SIDE_STYLE('',(#1575));
#1569=SURFACE_SIDE_STYLE('',(#1576));
#1570=SURFACE_SIDE_STYLE('',(#1577));
#1571=SURFACE_SIDE_STYLE('',(#1578));
#1572=SURFACE_SIDE_STYLE('',(#1579));
#1573=SURFACE_SIDE_STYLE('',(#1580));
#1574=SURFACE_STYLE_FILL_AREA(#1581);
#1575=SURFACE_STYLE_FILL_AREA(#1582);
#1576=SURFACE_STYLE_FILL_AREA(#1583);
#1577=SURFACE_STYLE_FILL_AREA(#1584);
#1578=SURFACE_STYLE_FILL_AREA(#1585);
#1579=SURFACE_STYLE_FILL_AREA(#1586);
#1580=SURFACE_STYLE_FILL_AREA(#1587);
#1581=FILL_AREA_STYLE('',(#1588));
#1582=FILL_AREA_STYLE('',(#1589));
#1583=FILL_AREA_STYLE('',(#1590));
#1584=FILL_AREA_STYLE('',(#1591));
#1585=FILL_AREA_STYLE('',(#1592));
#1586=FILL_AREA_STYLE('',(#1593));
#1587=FILL_AREA_STYLE('',(#1594));
#1588=FILL_AREA_STYLE_COLOUR('',#1595);
#1589=FILL_AREA_STYLE_COLOUR('',#1464);
#1590=FILL_AREA_STYLE_COLOUR('',#1464);
#1591=FILL_AREA_STYLE_COLOUR('',#1464);
#1592=FILL_AREA_STYLE_COLOUR('',#1464);
#1593=FILL_AREA_STYLE_COLOUR('',#1464);
#1594=FILL_AREA_STYLE_COLOUR('',#1464);
#1595=COLOUR_RGB('',0.647058823529412,0.647058823529412,0.647058823529412);
#1596=MANIFOLD_SOLID_BREP('motor controller',#1551);
#1597=SHAPE_DEFINITION_REPRESENTATION(#2497,#1598);
#1598=SHAPE_REPRESENTATION('motor controller',(#1599),#2492);
#1599=AXIS2_PLACEMENT_3D('',#2064,#1686,#1687);
#1600=AXIS2_PLACEMENT_3D('',#2065,#1688,#1689);
#1601=AXIS2_PLACEMENT_3D('',#2074,#1694,#1695);
#1602=AXIS2_PLACEMENT_3D('',#2080,#1699,#1700);
#1603=AXIS2_PLACEMENT_3D('',#2086,#1704,#1705);
#1604=AXIS2_PLACEMENT_3D('',#2089,#1708,#1709);
#1605=AXIS2_PLACEMENT_3D('',#2090,#1710,#1711);
#1606=AXIS2_PLACEMENT_3D('',#2219,#1776,#1777);
#1607=AXIS2_PLACEMENT_3D('',#2225,#1781,#1782);
#1608=AXIS2_PLACEMENT_3D('',#2229,#1785,#1786);
#1609=AXIS2_PLACEMENT_3D('',#2233,#1789,#1790);
#1610=AXIS2_PLACEMENT_3D('',#2235,#1792,#1793);
#1611=AXIS2_PLACEMENT_3D('',#2236,#1794,#1795);
#1612=AXIS2_PLACEMENT_3D('',#2242,#1799,#1800);
#1613=AXIS2_PLACEMENT_3D('',#2246,#1803,#1804);
#1614=AXIS2_PLACEMENT_3D('',#2250,#1807,#1808);
#1615=AXIS2_PLACEMENT_3D('',#2252,#1810,#1811);
#1616=AXIS2_PLACEMENT_3D('',#2253,#1812,#1813);
#1617=AXIS2_PLACEMENT_3D('',#2259,#1817,#1818);
#1618=AXIS2_PLACEMENT_3D('',#2263,#1821,#1822);
#1619=AXIS2_PLACEMENT_3D('',#2267,#1825,#1826);
#1620=AXIS2_PLACEMENT_3D('',#2269,#1828,#1829);
#1621=AXIS2_PLACEMENT_3D('',#2270,#1830,#1831);
#1622=AXIS2_PLACEMENT_3D('',#2276,#1835,#1836);
#1623=AXIS2_PLACEMENT_3D('',#2280,#1839,#1840);
#1624=AXIS2_PLACEMENT_3D('',#2284,#1843,#1844);
#1625=AXIS2_PLACEMENT_3D('',#2286,#1846,#1847);
#1626=AXIS2_PLACEMENT_3D('',#2287,#1848,#1849);
#1627=AXIS2_PLACEMENT_3D('',#2293,#1853,#1854);
#1628=AXIS2_PLACEMENT_3D('',#2297,#1857,#1858);
#1629=AXIS2_PLACEMENT_3D('',#2301,#1861,#1862);
#1630=AXIS2_PLACEMENT_3D('',#2303,#1864,#1865);
#1631=AXIS2_PLACEMENT_3D('',#2304,#1866,#1867);
#1632=AXIS2_PLACEMENT_3D('',#2310,#1871,#1872);
#1633=AXIS2_PLACEMENT_3D('',#2314,#1875,#1876);
#1634=AXIS2_PLACEMENT_3D('',#2318,#1879,#1880);
#1635=AXIS2_PLACEMENT_3D('',#2320,#1882,#1883);
#1636=AXIS2_PLACEMENT_3D('',#2321,#1884,#1885);
#1637=AXIS2_PLACEMENT_3D('',#2327,#1889,#1890);
#1638=AXIS2_PLACEMENT_3D('',#2331,#1893,#1894);
#1639=AXIS2_PLACEMENT_3D('',#2335,#1897,#1898);
#1640=AXIS2_PLACEMENT_3D('',#2337,#1900,#1901);
#1641=AXIS2_PLACEMENT_3D('',#2338,#1902,#1903);
#1642=AXIS2_PLACEMENT_3D('',#2344,#1907,#1908);
#1643=AXIS2_PLACEMENT_3D('',#2348,#1911,#1912);
#1644=AXIS2_PLACEMENT_3D('',#2352,#1915,#1916);
#1645=AXIS2_PLACEMENT_3D('',#2354,#1918,#1919);
#1646=AXIS2_PLACEMENT_3D('',#2355,#1920,#1921);
#1647=AXIS2_PLACEMENT_3D('',#2361,#1925,#1926);
#1648=AXIS2_PLACEMENT_3D('',#2365,#1929,#1930);
#1649=AXIS2_PLACEMENT_3D('',#2369,#1933,#1934);
#1650=AXIS2_PLACEMENT_3D('',#2371,#1936,#1937);
#1651=AXIS2_PLACEMENT_3D('',#2372,#1938,#1939);
#1652=AXIS2_PLACEMENT_3D('',#2378,#1943,#1944);
#1653=AXIS2_PLACEMENT_3D('',#2382,#1947,#1948);
#1654=AXIS2_PLACEMENT_3D('',#2386,#1951,#1952);
#1655=AXIS2_PLACEMENT_3D('',#2388,#1954,#1955);
#1656=AXIS2_PLACEMENT_3D('',#2389,#1956,#1957);
#1657=AXIS2_PLACEMENT_3D('',#2395,#1961,#1962);
#1658=AXIS2_PLACEMENT_3D('',#2399,#1965,#1966);
#1659=AXIS2_PLACEMENT_3D('',#2403,#1969,#1970);
#1660=AXIS2_PLACEMENT_3D('',#2405,#1972,#1973);
#1661=AXIS2_PLACEMENT_3D('',#2406,#1974,#1975);
#1662=AXIS2_PLACEMENT_3D('',#2412,#1979,#1980);
#1663=AXIS2_PLACEMENT_3D('',#2416,#1983,#1984);
#1664=AXIS2_PLACEMENT_3D('',#2420,#1987,#1988);
#1665=AXIS2_PLACEMENT_3D('',#2422,#1990,#1991);
#1666=AXIS2_PLACEMENT_3D('',#2423,#1992,#1993);
#1667=AXIS2_PLACEMENT_3D('',#2429,#1997,#1998);
#1668=AXIS2_PLACEMENT_3D('',#2433,#2001,#2002);
#1669=AXIS2_PLACEMENT_3D('',#2437,#2005,#2006);
#1670=AXIS2_PLACEMENT_3D('',#2439,#2008,#2009);
#1671=AXIS2_PLACEMENT_3D('',#2440,#2010,#2011);
#1672=AXIS2_PLACEMENT_3D('',#2446,#2015,#2016);
#1673=AXIS2_PLACEMENT_3D('',#2450,#2019,#2020);
#1674=AXIS2_PLACEMENT_3D('',#2454,#2023,#2024);
#1675=AXIS2_PLACEMENT_3D('',#2456,#2026,#2027);
#1676=AXIS2_PLACEMENT_3D('',#2457,#2028,#2029);
#1677=AXIS2_PLACEMENT_3D('',#2463,#2033,#2034);
#1678=AXIS2_PLACEMENT_3D('',#2467,#2037,#2038);
#1679=AXIS2_PLACEMENT_3D('',#2471,#2041,#2042);
#1680=AXIS2_PLACEMENT_3D('',#2473,#2044,#2045);
#1681=AXIS2_PLACEMENT_3D('',#2474,#2046,#2047);
#1682=AXIS2_PLACEMENT_3D('',#2480,#2051,#2052);
#1683=AXIS2_PLACEMENT_3D('',#2484,#2055,#2056);
#1684=AXIS2_PLACEMENT_3D('',#2488,#2059,#2060);
#1685=AXIS2_PLACEMENT_3D('',#2490,#2062,#2063);
#1686=DIRECTION('',(0.,0.,1.));
#1687=DIRECTION('',(1.,0.,0.));
#1688=DIRECTION('',(-1.,-1.83697019872103E-16,0.));
#1689=DIRECTION('',(1.83697019872103E-16,-1.,0.));
#1690=DIRECTION('',(-1.83697019872103E-16,1.,0.));
#1691=DIRECTION('',(0.,0.,-1.));
#1692=DIRECTION('',(-1.83697019872103E-16,1.,0.));
#1693=DIRECTION('',(0.,0.,-1.));
#1694=DIRECTION('',(0.,1.,0.));
#1695=DIRECTION('',(0.,0.,1.));
#1696=DIRECTION('',(1.,0.,0.));
#1697=DIRECTION('',(0.,0.,-1.));
#1698=DIRECTION('',(1.,0.,0.));
#1699=DIRECTION('',(-1.,-1.70908716845005E-16,0.));
#1700=DIRECTION('',(1.70908716845005E-16,-1.,0.));
#1701=DIRECTION('',(-1.70908716845005E-16,1.,0.));
#1702=DIRECTION('',(0.,0.,-1.));
#1703=DIRECTION('',(-1.70908716845005E-16,1.,0.));
#1704=DIRECTION('',(0.,1.,0.));
#1705=DIRECTION('',(0.,0.,1.));
#1706=DIRECTION('',(1.,0.,0.));
#1707=DIRECTION('',(1.,0.,0.));
#1708=DIRECTION('',(0.,0.,1.));
#1709=DIRECTION('',(1.,0.,0.));
#1710=DIRECTION('',(0.,0.,1.));
#1711=DIRECTION('',(1.,0.,0.));
#1712=DIRECTION('',(0.,1.,0.));
#1713=DIRECTION('',(1.,0.,0.));
#1714=DIRECTION('',(0.,1.,0.));
#1715=DIRECTION('',(1.,0.,0.));
#1716=DIRECTION('',(0.,1.,0.));
#1717=DIRECTION('',(1.,0.,0.));
#1718=DIRECTION('',(0.,1.,0.));
#1719=DIRECTION('',(1.,0.,0.));
#1720=DIRECTION('',(0.,1.,0.));
#1721=DIRECTION('',(1.,0.,0.));
#1722=DIRECTION('',(0.,1.,0.));
#1723=DIRECTION('',(1.,0.,0.));
#1724=DIRECTION('',(0.,1.,0.));
#1725=DIRECTION('',(1.,0.,0.));
#1726=DIRECTION('',(0.,1.,0.));
#1727=DIRECTION('',(1.,0.,0.));
#1728=DIRECTION('',(3.61400724161833E-16,1.,0.));
#1729=DIRECTION('',(1.,0.,0.));
#1730=DIRECTION('',(3.61400724161833E-16,1.,0.));
#1731=DIRECTION('',(1.,0.,0.));
#1732=DIRECTION('',(7.2280144832367E-16,1.,0.));
#1733=DIRECTION('',(1.,0.,0.));
#1734=DIRECTION('',(0.,1.,0.));
#1735=DIRECTION('',(1.,0.,0.));
#1736=DIRECTION('',(0.,1.,0.));
#1737=DIRECTION('',(1.,0.,0.));
#1738=DIRECTION('',(0.,1.,0.));
#1739=DIRECTION('',(1.,0.,0.));
#1740=DIRECTION('',(0.,1.,0.));
#1741=DIRECTION('',(1.,0.,0.));
#1742=DIRECTION('',(0.,1.,0.));
#1743=DIRECTION('',(1.,0.,0.));
#1744=DIRECTION('',(0.,1.,0.));
#1745=DIRECTION('',(1.,0.,0.));
#1746=DIRECTION('',(0.,1.,0.));
#1747=DIRECTION('',(1.,0.,0.));
#1748=DIRECTION('',(0.,1.,0.));
#1749=DIRECTION('',(1.,0.,0.));
#1750=DIRECTION('',(0.,1.,0.));
#1751=DIRECTION('',(1.,0.,0.));
#1752=DIRECTION('',(0.,1.,0.));
#1753=DIRECTION('',(1.,0.,0.));
#1754=DIRECTION('',(0.,1.,0.));
#1755=DIRECTION('',(1.,0.,0.));
#1756=DIRECTION('',(0.,1.,0.));
#1757=DIRECTION('',(1.,0.,0.));
#1758=DIRECTION('',(0.,1.,0.));
#1759=DIRECTION('',(1.,0.,0.));
#1760=DIRECTION('',(0.,1.,0.));
#1761=DIRECTION('',(1.,0.,0.));
#1762=DIRECTION('',(0.,1.,0.));
#1763=DIRECTION('',(1.,0.,0.));
#1764=DIRECTION('',(0.,1.,0.));
#1765=DIRECTION('',(1.,0.,0.));
#1766=DIRECTION('',(0.,1.,0.));
#1767=DIRECTION('',(1.,0.,0.));
#1768=DIRECTION('',(0.,1.,0.));
#1769=DIRECTION('',(1.,0.,0.));
#1770=DIRECTION('',(0.,1.,0.));
#1771=DIRECTION('',(1.,0.,0.));
#1772=DIRECTION('',(3.61400724161835E-16,1.,0.));
#1773=DIRECTION('',(1.,0.,0.));
#1774=DIRECTION('',(0.,1.,0.));
#1775=DIRECTION('',(1.,0.,0.));
#1776=DIRECTION('',(0.,-1.,0.));
#1777=DIRECTION('',(0.,0.,-1.));
#1778=DIRECTION('',(0.,0.,1.));
#1779=DIRECTION('',(1.,0.,0.));
#1780=DIRECTION('',(0.,0.,1.));
#1781=DIRECTION('',(1.,-3.61400724161835E-16,0.));
#1782=DIRECTION('',(3.61400724161835E-16,1.,0.));
#1783=DIRECTION('',(0.,0.,1.));
#1784=DIRECTION('',(3.61400724161835E-16,1.,0.));
#1785=DIRECTION('',(0.,-1.,0.));
#1786=DIRECTION('',(0.,0.,-1.));
#1787=DIRECTION('',(0.,0.,1.));
#1788=DIRECTION('',(1.,0.,0.));
#1789=DIRECTION('',(1.,0.,0.));
#1790=DIRECTION('',(0.,0.,-1.));
#1791=DIRECTION('',(0.,1.,0.));
#1792=DIRECTION('',(0.,0.,-1.));
#1793=DIRECTION('',(1.,0.,0.));
#1794=DIRECTION('',(0.,-1.,0.));
#1795=DIRECTION('',(0.,0.,-1.));
#1796=DIRECTION('',(0.,0.,1.));
#1797=DIRECTION('',(1.,0.,0.));
#1798=DIRECTION('',(0.,0.,1.));
#1799=DIRECTION('',(1.,0.,0.));
#1800=DIRECTION('',(0.,0.,-1.));
#1801=DIRECTION('',(0.,0.,1.));
#1802=DIRECTION('',(0.,1.,0.));
#1803=DIRECTION('',(0.,-1.,0.));
#1804=DIRECTION('',(0.,0.,-1.));
#1805=DIRECTION('',(0.,0.,1.));
#1806=DIRECTION('',(1.,0.,0.));
#1807=DIRECTION('',(1.,0.,0.));
#1808=DIRECTION('',(0.,0.,-1.));
#1809=DIRECTION('',(0.,1.,0.));
#1810=DIRECTION('',(0.,0.,-1.));
#1811=DIRECTION('',(1.,0.,0.));
#1812=DIRECTION('',(0.,-1.,0.));
#1813=DIRECTION('',(0.,0.,-1.));
#1814=DIRECTION('',(0.,0.,1.));
#1815=DIRECTION('',(1.,0.,0.));
#1816=DIRECTION('',(0.,0.,1.));
#1817=DIRECTION('',(1.,0.,0.));
#1818=DIRECTION('',(0.,0.,-1.));
#1819=DIRECTION('',(0.,0.,1.));
#1820=DIRECTION('',(0.,1.,0.));
#1821=DIRECTION('',(0.,-1.,0.));
#1822=DIRECTION('',(0.,0.,-1.));
#1823=DIRECTION('',(0.,0.,1.));
#1824=DIRECTION('',(1.,0.,0.));
#1825=DIRECTION('',(1.,0.,0.));
#1826=DIRECTION('',(0.,0.,-1.));
#1827=DIRECTION('',(0.,1.,0.));
#1828=DIRECTION('',(0.,0.,-1.));
#1829=DIRECTION('',(1.,0.,0.));
#1830=DIRECTION('',(0.,-1.,0.));
#1831=DIRECTION('',(0.,0.,-1.));
#1832=DIRECTION('',(0.,0.,1.));
#1833=DIRECTION('',(1.,0.,0.));
#1834=DIRECTION('',(0.,0.,1.));
#1835=DIRECTION('',(1.,0.,0.));
#1836=DIRECTION('',(0.,0.,-1.));
#1837=DIRECTION('',(0.,0.,1.));
#1838=DIRECTION('',(0.,1.,0.));
#1839=DIRECTION('',(0.,-1.,0.));
#1840=DIRECTION('',(0.,0.,-1.));
#1841=DIRECTION('',(0.,0.,1.));
#1842=DIRECTION('',(1.,0.,0.));
#1843=DIRECTION('',(1.,0.,0.));
#1844=DIRECTION('',(0.,0.,-1.));
#1845=DIRECTION('',(0.,1.,0.));
#1846=DIRECTION('',(0.,0.,-1.));
#1847=DIRECTION('',(1.,0.,0.));
#1848=DIRECTION('',(0.,-1.,0.));
#1849=DIRECTION('',(0.,0.,-1.));
#1850=DIRECTION('',(0.,0.,1.));
#1851=DIRECTION('',(1.,0.,0.));
#1852=DIRECTION('',(0.,0.,1.));
#1853=DIRECTION('',(1.,0.,0.));
#1854=DIRECTION('',(0.,0.,-1.));
#1855=DIRECTION('',(0.,0.,1.));
#1856=DIRECTION('',(0.,1.,0.));
#1857=DIRECTION('',(0.,-1.,0.));
#1858=DIRECTION('',(0.,0.,-1.));
#1859=DIRECTION('',(0.,0.,1.));
#1860=DIRECTION('',(1.,0.,0.));
#1861=DIRECTION('',(1.,0.,0.));
#1862=DIRECTION('',(0.,0.,-1.));
#1863=DIRECTION('',(0.,1.,0.));
#1864=DIRECTION('',(0.,0.,-1.));
#1865=DIRECTION('',(1.,0.,0.));
#1866=DIRECTION('',(0.,-1.,0.));
#1867=DIRECTION('',(0.,0.,-1.));
#1868=DIRECTION('',(0.,0.,1.));
#1869=DIRECTION('',(1.,0.,0.));
#1870=DIRECTION('',(0.,0.,1.));
#1871=DIRECTION('',(1.,0.,0.));
#1872=DIRECTION('',(0.,0.,-1.));
#1873=DIRECTION('',(0.,0.,1.));
#1874=DIRECTION('',(0.,1.,0.));
#1875=DIRECTION('',(0.,-1.,0.));
#1876=DIRECTION('',(0.,0.,-1.));
#1877=DIRECTION('',(0.,0.,1.));
#1878=DIRECTION('',(1.,0.,0.));
#1879=DIRECTION('',(1.,0.,0.));
#1880=DIRECTION('',(0.,0.,-1.));
#1881=DIRECTION('',(0.,1.,0.));
#1882=DIRECTION('',(0.,0.,-1.));
#1883=DIRECTION('',(1.,0.,0.));
#1884=DIRECTION('',(0.,-1.,0.));
#1885=DIRECTION('',(0.,0.,-1.));
#1886=DIRECTION('',(0.,0.,1.));
#1887=DIRECTION('',(1.,0.,0.));
#1888=DIRECTION('',(0.,0.,1.));
#1889=DIRECTION('',(1.,0.,0.));
#1890=DIRECTION('',(0.,0.,-1.));
#1891=DIRECTION('',(0.,0.,1.));
#1892=DIRECTION('',(0.,1.,0.));
#1893=DIRECTION('',(0.,-1.,0.));
#1894=DIRECTION('',(0.,0.,-1.));
#1895=DIRECTION('',(0.,0.,1.));
#1896=DIRECTION('',(1.,0.,0.));
#1897=DIRECTION('',(1.,0.,0.));
#1898=DIRECTION('',(0.,0.,-1.));
#1899=DIRECTION('',(0.,1.,0.));
#1900=DIRECTION('',(0.,0.,-1.));
#1901=DIRECTION('',(1.,0.,0.));
#1902=DIRECTION('',(0.,-1.,0.));
#1903=DIRECTION('',(0.,0.,-1.));
#1904=DIRECTION('',(0.,0.,1.));
#1905=DIRECTION('',(1.,0.,0.));
#1906=DIRECTION('',(0.,0.,1.));
#1907=DIRECTION('',(1.,0.,0.));
#1908=DIRECTION('',(0.,0.,-1.));
#1909=DIRECTION('',(0.,0.,1.));
#1910=DIRECTION('',(0.,1.,0.));
#1911=DIRECTION('',(0.,-1.,0.));
#1912=DIRECTION('',(0.,0.,-1.));
#1913=DIRECTION('',(0.,0.,1.));
#1914=DIRECTION('',(1.,0.,0.));
#1915=DIRECTION('',(1.,0.,0.));
#1916=DIRECTION('',(0.,0.,-1.));
#1917=DIRECTION('',(0.,1.,0.));
#1918=DIRECTION('',(0.,0.,-1.));
#1919=DIRECTION('',(1.,0.,0.));
#1920=DIRECTION('',(0.,-1.,0.));
#1921=DIRECTION('',(0.,0.,-1.));
#1922=DIRECTION('',(0.,0.,1.));
#1923=DIRECTION('',(1.,0.,0.));
#1924=DIRECTION('',(0.,0.,1.));
#1925=DIRECTION('',(1.,0.,0.));
#1926=DIRECTION('',(0.,0.,-1.));
#1927=DIRECTION('',(0.,0.,1.));
#1928=DIRECTION('',(0.,1.,0.));
#1929=DIRECTION('',(0.,-1.,0.));
#1930=DIRECTION('',(0.,0.,-1.));
#1931=DIRECTION('',(0.,0.,1.));
#1932=DIRECTION('',(1.,0.,0.));
#1933=DIRECTION('',(1.,0.,0.));
#1934=DIRECTION('',(0.,0.,-1.));
#1935=DIRECTION('',(0.,1.,0.));
#1936=DIRECTION('',(0.,0.,-1.));
#1937=DIRECTION('',(1.,0.,0.));
#1938=DIRECTION('',(0.,-1.,0.));
#1939=DIRECTION('',(0.,0.,-1.));
#1940=DIRECTION('',(0.,0.,1.));
#1941=DIRECTION('',(1.,0.,0.));
#1942=DIRECTION('',(0.,0.,1.));
#1943=DIRECTION('',(1.,0.,0.));
#1944=DIRECTION('',(0.,0.,-1.));
#1945=DIRECTION('',(0.,0.,1.));
#1946=DIRECTION('',(0.,1.,0.));
#1947=DIRECTION('',(0.,-1.,0.));
#1948=DIRECTION('',(0.,0.,-1.));
#1949=DIRECTION('',(0.,0.,1.));
#1950=DIRECTION('',(1.,0.,0.));
#1951=DIRECTION('',(1.,0.,0.));
#1952=DIRECTION('',(0.,0.,-1.));
#1953=DIRECTION('',(0.,1.,0.));
#1954=DIRECTION('',(0.,0.,-1.));
#1955=DIRECTION('',(1.,0.,0.));
#1956=DIRECTION('',(0.,-1.,0.));
#1957=DIRECTION('',(0.,0.,-1.));
#1958=DIRECTION('',(0.,0.,1.));
#1959=DIRECTION('',(1.,0.,0.));
#1960=DIRECTION('',(0.,0.,1.));
#1961=DIRECTION('',(1.,-7.2280144832367E-16,0.));
#1962=DIRECTION('',(7.2280144832367E-16,1.,0.));
#1963=DIRECTION('',(0.,0.,1.));
#1964=DIRECTION('',(7.2280144832367E-16,1.,0.));
#1965=DIRECTION('',(0.,-1.,0.));
#1966=DIRECTION('',(0.,0.,-1.));
#1967=DIRECTION('',(0.,0.,1.));
#1968=DIRECTION('',(1.,0.,0.));
#1969=DIRECTION('',(1.,0.,0.));
#1970=DIRECTION('',(0.,0.,-1.));
#1971=DIRECTION('',(0.,1.,0.));
#1972=DIRECTION('',(0.,0.,-1.));
#1973=DIRECTION('',(1.,0.,0.));
#1974=DIRECTION('',(0.,-1.,0.));
#1975=DIRECTION('',(0.,0.,-1.));
#1976=DIRECTION('',(0.,0.,1.));
#1977=DIRECTION('',(1.,0.,0.));
#1978=DIRECTION('',(0.,0.,1.));
#1979=DIRECTION('',(1.,-3.61400724161833E-16,0.));
#1980=DIRECTION('',(3.61400724161833E-16,1.,0.));
#1981=DIRECTION('',(0.,0.,1.));
#1982=DIRECTION('',(3.61400724161833E-16,1.,0.));
#1983=DIRECTION('',(0.,-1.,0.));
#1984=DIRECTION('',(0.,0.,-1.));
#1985=DIRECTION('',(0.,0.,1.));
#1986=DIRECTION('',(1.,0.,0.));
#1987=DIRECTION('',(1.,-3.61400724161833E-16,0.));
#1988=DIRECTION('',(3.61400724161833E-16,1.,0.));
#1989=DIRECTION('',(3.61400724161833E-16,1.,0.));
#1990=DIRECTION('',(0.,0.,-1.));
#1991=DIRECTION('',(1.,0.,0.));
#1992=DIRECTION('',(0.,-1.,0.));
#1993=DIRECTION('',(0.,0.,-1.));
#1994=DIRECTION('',(0.,0.,1.));
#1995=DIRECTION('',(1.,0.,0.));
#1996=DIRECTION('',(0.,0.,1.));
#1997=DIRECTION('',(1.,0.,0.));
#1998=DIRECTION('',(0.,0.,-1.));
#1999=DIRECTION('',(0.,0.,1.));
#2000=DIRECTION('',(0.,1.,0.));
#2001=DIRECTION('',(0.,-1.,0.));
#2002=DIRECTION('',(0.,0.,-1.));
#2003=DIRECTION('',(0.,0.,1.));
#2004=DIRECTION('',(1.,0.,0.));
#2005=DIRECTION('',(1.,0.,0.));
#2006=DIRECTION('',(0.,0.,-1.));
#2007=DIRECTION('',(0.,1.,0.));
#2008=DIRECTION('',(0.,0.,-1.));
#2009=DIRECTION('',(1.,0.,0.));
#2010=DIRECTION('',(0.,-1.,0.));
#2011=DIRECTION('',(0.,0.,-1.));
#2012=DIRECTION('',(0.,0.,1.));
#2013=DIRECTION('',(1.,0.,0.));
#2014=DIRECTION('',(0.,0.,1.));
#2015=DIRECTION('',(1.,0.,0.));
#2016=DIRECTION('',(0.,0.,-1.));
#2017=DIRECTION('',(0.,0.,1.));
#2018=DIRECTION('',(0.,1.,0.));
#2019=DIRECTION('',(0.,-1.,0.));
#2020=DIRECTION('',(0.,0.,-1.));
#2021=DIRECTION('',(0.,0.,1.));
#2022=DIRECTION('',(1.,0.,0.));
#2023=DIRECTION('',(1.,0.,0.));
#2024=DIRECTION('',(0.,0.,-1.));
#2025=DIRECTION('',(0.,1.,0.));
#2026=DIRECTION('',(0.,0.,-1.));
#2027=DIRECTION('',(1.,0.,0.));
#2028=DIRECTION('',(0.,-1.,0.));
#2029=DIRECTION('',(0.,0.,-1.));
#2030=DIRECTION('',(0.,0.,1.));
#2031=DIRECTION('',(1.,0.,0.));
#2032=DIRECTION('',(0.,0.,1.));
#2033=DIRECTION('',(1.,0.,0.));
#2034=DIRECTION('',(0.,0.,-1.));
#2035=DIRECTION('',(0.,0.,1.));
#2036=DIRECTION('',(0.,1.,0.));
#2037=DIRECTION('',(0.,-1.,0.));
#2038=DIRECTION('',(0.,0.,-1.));
#2039=DIRECTION('',(0.,0.,1.));
#2040=DIRECTION('',(1.,0.,0.));
#2041=DIRECTION('',(1.,0.,0.));
#2042=DIRECTION('',(0.,0.,-1.));
#2043=DIRECTION('',(0.,1.,0.));
#2044=DIRECTION('',(0.,0.,-1.));
#2045=DIRECTION('',(1.,0.,0.));
#2046=DIRECTION('',(0.,-1.,0.));
#2047=DIRECTION('',(0.,0.,-1.));
#2048=DIRECTION('',(0.,0.,1.));
#2049=DIRECTION('',(1.,0.,0.));
#2050=DIRECTION('',(0.,0.,1.));
#2051=DIRECTION('',(1.,0.,0.));
#2052=DIRECTION('',(0.,0.,-1.));
#2053=DIRECTION('',(0.,0.,1.));
#2054=DIRECTION('',(0.,1.,0.));
#2055=DIRECTION('',(0.,-1.,0.));
#2056=DIRECTION('',(0.,0.,-1.));
#2057=DIRECTION('',(0.,0.,1.));
#2058=DIRECTION('',(1.,0.,0.));
#2059=DIRECTION('',(1.,0.,0.));
#2060=DIRECTION('',(0.,0.,-1.));
#2061=DIRECTION('',(0.,1.,0.));
#2062=DIRECTION('',(0.,0.,-1.));
#2063=DIRECTION('',(1.,0.,0.));
#2064=CARTESIAN_POINT('',(0.,0.,0.));
#2065=CARTESIAN_POINT('',(-1.86593470684911E-18,0.01015,0.0036));
#2066=CARTESIAN_POINT('',(-1.86593470684911E-18,0.01015,0.));
#2067=CARTESIAN_POINT('',(0.,0.,0.));
#2068=CARTESIAN_POINT('',(-3.46944695195361E-18,0.0203,0.));
#2069=CARTESIAN_POINT('',(0.,0.,0.0036));
#2070=CARTESIAN_POINT('',(0.,0.,0.0036));
#2071=CARTESIAN_POINT('',(-1.86593470684911E-18,0.01015,0.0036));
#2072=CARTESIAN_POINT('',(-3.46944695195361E-18,0.0203,0.0036));
#2073=CARTESIAN_POINT('',(-3.46944695195361E-18,0.0203,0.0036));
#2074=CARTESIAN_POINT('',(0.01015,0.,0.0036));
#2075=CARTESIAN_POINT('',(0.01015,0.,0.));
#2076=CARTESIAN_POINT('',(0.0203,0.,0.));
#2077=CARTESIAN_POINT('',(0.0203,0.,0.0036));
#2078=CARTESIAN_POINT('',(0.0203,0.,0.0036));
#2079=CARTESIAN_POINT('',(0.01015,0.,0.0036));
#2080=CARTESIAN_POINT('',(0.0203,0.01015,0.0036));
#2081=CARTESIAN_POINT('',(0.0203,0.01015,0.));
#2082=CARTESIAN_POINT('',(0.0203,0.0203,0.));
#2083=CARTESIAN_POINT('',(0.0203,0.0203,0.0036));
#2084=CARTESIAN_POINT('',(0.0203,0.0203,0.0036));
#2085=CARTESIAN_POINT('',(0.0203,0.01015,0.0036));
#2086=CARTESIAN_POINT('',(0.01015,0.0203,0.0036));
#2087=CARTESIAN_POINT('',(0.01015,0.0203,0.));
#2088=CARTESIAN_POINT('',(0.01015,0.0203,0.0036));
#2089=CARTESIAN_POINT('',(0.01015,0.01015,0.0036));
#2090=CARTESIAN_POINT('',(0.01015,0.01015,0.));
#2091=CARTESIAN_POINT('',(0.00595,0.01815,0.));
#2092=CARTESIAN_POINT('',(0.00595,0.01785,0.));
#2093=CARTESIAN_POINT('',(0.00595,0.01845,0.));
#2094=CARTESIAN_POINT('',(0.00625,0.01785,0.));
#2095=CARTESIAN_POINT('',(0.00655,0.01785,0.));
#2096=CARTESIAN_POINT('',(0.00655,0.01815,0.));
#2097=CARTESIAN_POINT('',(0.00655,0.01845,0.));
#2098=CARTESIAN_POINT('',(0.00625,0.01845,0.));
#2099=CARTESIAN_POINT('',(0.00855,0.00155,0.));
#2100=CARTESIAN_POINT('',(0.00855,0.00125,0.));
#2101=CARTESIAN_POINT('',(0.00855,0.00185,0.));
#2102=CARTESIAN_POINT('',(0.00885,0.00125,0.));
#2103=CARTESIAN_POINT('',(0.00915,0.00125,0.));
#2104=CARTESIAN_POINT('',(0.00915,0.00155,0.));
#2105=CARTESIAN_POINT('',(0.00915,0.00185,0.));
#2106=CARTESIAN_POINT('',(0.00885,0.00185,0.));
#2107=CARTESIAN_POINT('',(0.00855,0.01815,0.));
#2108=CARTESIAN_POINT('',(0.00855,0.01785,0.));
#2109=CARTESIAN_POINT('',(0.00855,0.01845,0.));
#2110=CARTESIAN_POINT('',(0.00885,0.01785,0.));
#2111=CARTESIAN_POINT('',(0.00915,0.01785,0.));
#2112=CARTESIAN_POINT('',(0.00915,0.01815,0.));
#2113=CARTESIAN_POINT('',(0.00915,0.01845,0.));
#2114=CARTESIAN_POINT('',(0.00885,0.01845,0.));
#2115=CARTESIAN_POINT('',(0.01115,0.00155,0.));
#2116=CARTESIAN_POINT('',(0.01115,0.00125,0.));
#2117=CARTESIAN_POINT('',(0.01115,0.00185,0.));
#2118=CARTESIAN_POINT('',(0.01145,0.00125,0.));
#2119=CARTESIAN_POINT('',(0.01175,0.00125,0.));
#2120=CARTESIAN_POINT('',(0.01175,0.00155,0.));
#2121=CARTESIAN_POINT('',(0.01175,0.00185,0.));
#2122=CARTESIAN_POINT('',(0.01145,0.00185,0.));
#2123=CARTESIAN_POINT('',(0.00075,0.01815,0.));
#2124=CARTESIAN_POINT('',(0.00075,0.01785,0.));
#2125=CARTESIAN_POINT('',(0.00075,0.01845,0.));
#2126=CARTESIAN_POINT('',(0.00105,0.01785,0.));
#2127=CARTESIAN_POINT('',(0.00135,0.01785,0.));
#2128=CARTESIAN_POINT('',(0.00135,0.01815,0.));
#2129=CARTESIAN_POINT('',(0.00135,0.01845,0.));
#2130=CARTESIAN_POINT('',(0.00105,0.01845,0.));
#2131=CARTESIAN_POINT('',(0.00335,0.00155,0.));
#2132=CARTESIAN_POINT('',(0.00335,0.00125,0.));
#2133=CARTESIAN_POINT('',(0.00335,0.00185,0.));
#2134=CARTESIAN_POINT('',(0.00365,0.00125,0.));
#2135=CARTESIAN_POINT('',(0.00395,0.00125,0.));
#2136=CARTESIAN_POINT('',(0.00395,0.00155,0.));
#2137=CARTESIAN_POINT('',(0.00395,0.00185,0.));
#2138=CARTESIAN_POINT('',(0.00365,0.00185,0.));
#2139=CARTESIAN_POINT('',(0.00335,0.01815,0.));
#2140=CARTESIAN_POINT('',(0.00335,0.01785,0.));
#2141=CARTESIAN_POINT('',(0.00335,0.01845,0.));
#2142=CARTESIAN_POINT('',(0.00365,0.01785,0.));
#2143=CARTESIAN_POINT('',(0.00395,0.01785,0.));
#2144=CARTESIAN_POINT('',(0.00395,0.01815,0.));
#2145=CARTESIAN_POINT('',(0.00395,0.01845,0.));
#2146=CARTESIAN_POINT('',(0.00365,0.01845,0.));
#2147=CARTESIAN_POINT('',(0.00595,0.00155,0.));
#2148=CARTESIAN_POINT('',(0.00595,0.00125,0.));
#2149=CARTESIAN_POINT('',(0.00595,0.00185,0.));
#2150=CARTESIAN_POINT('',(0.00625,0.00125,0.));
#2151=CARTESIAN_POINT('',(0.00655,0.00125,0.));
#2152=CARTESIAN_POINT('',(0.00655,0.00155,0.));
#2153=CARTESIAN_POINT('',(0.00655,0.00185,0.));
#2154=CARTESIAN_POINT('',(0.00625,0.00185,0.));
#2155=CARTESIAN_POINT('',(0.01635,0.01815,0.));
#2156=CARTESIAN_POINT('',(0.01635,0.01785,0.));
#2157=CARTESIAN_POINT('',(0.01635,0.01845,0.));
#2158=CARTESIAN_POINT('',(0.01665,0.01785,0.));
#2159=CARTESIAN_POINT('',(0.01695,0.01785,0.));
#2160=CARTESIAN_POINT('',(0.01695,0.01815,0.));
#2161=CARTESIAN_POINT('',(0.01695,0.01845,0.));
#2162=CARTESIAN_POINT('',(0.01665,0.01845,0.));
#2163=CARTESIAN_POINT('',(0.01895,0.00155,0.));
#2164=CARTESIAN_POINT('',(0.01895,0.00125,0.));
#2165=CARTESIAN_POINT('',(0.01895,0.00185,0.));
#2166=CARTESIAN_POINT('',(0.01925,0.00125,0.));
#2167=CARTESIAN_POINT('',(0.01955,0.00125,0.));
#2168=CARTESIAN_POINT('',(0.01955,0.00155,0.));
#2169=CARTESIAN_POINT('',(0.01955,0.00185,0.));
#2170=CARTESIAN_POINT('',(0.01925,0.00185,0.));
#2171=CARTESIAN_POINT('',(0.01895,0.01815,0.));
#2172=CARTESIAN_POINT('',(0.01895,0.01785,0.));
#2173=CARTESIAN_POINT('',(0.01895,0.01845,0.));
#2174=CARTESIAN_POINT('',(0.01925,0.01785,0.));
#2175=CARTESIAN_POINT('',(0.01955,0.01785,0.));
#2176=CARTESIAN_POINT('',(0.01955,0.01815,0.));
#2177=CARTESIAN_POINT('',(0.01955,0.01845,0.));
#2178=CARTESIAN_POINT('',(0.01925,0.01845,0.));
#2179=CARTESIAN_POINT('',(0.01115,0.01815,0.));
#2180=CARTESIAN_POINT('',(0.01115,0.01785,0.));
#2181=CARTESIAN_POINT('',(0.01115,0.01845,0.));
#2182=CARTESIAN_POINT('',(0.01145,0.01785,0.));
#2183=CARTESIAN_POINT('',(0.01175,0.01785,0.));
#2184=CARTESIAN_POINT('',(0.01175,0.01815,0.));
#2185=CARTESIAN_POINT('',(0.01175,0.01845,0.));
#2186=CARTESIAN_POINT('',(0.01145,0.01845,0.));
#2187=CARTESIAN_POINT('',(0.01375,0.00155,0.));
#2188=CARTESIAN_POINT('',(0.01375,0.00125,0.));
#2189=CARTESIAN_POINT('',(0.01375,0.00185,0.));
#2190=CARTESIAN_POINT('',(0.01405,0.00125,0.));
#2191=CARTESIAN_POINT('',(0.01435,0.00125,0.));
#2192=CARTESIAN_POINT('',(0.01435,0.00155,0.));
#2193=CARTESIAN_POINT('',(0.01435,0.00185,0.));
#2194=CARTESIAN_POINT('',(0.01405,0.00185,0.));
#2195=CARTESIAN_POINT('',(0.01375,0.01815,0.));
#2196=CARTESIAN_POINT('',(0.01375,0.01785,0.));
#2197=CARTESIAN_POINT('',(0.01375,0.01845,0.));
#2198=CARTESIAN_POINT('',(0.01405,0.01785,0.));
#2199=CARTESIAN_POINT('',(0.01435,0.01785,0.));
#2200=CARTESIAN_POINT('',(0.01435,0.01815,0.));
#2201=CARTESIAN_POINT('',(0.01435,0.01845,0.));
#2202=CARTESIAN_POINT('',(0.01405,0.01845,0.));
#2203=CARTESIAN_POINT('',(0.01635,0.00155,0.));
#2204=CARTESIAN_POINT('',(0.01635,0.00125,0.));
#2205=CARTESIAN_POINT('',(0.01635,0.00185,0.));
#2206=CARTESIAN_POINT('',(0.01665,0.00125,0.));
#2207=CARTESIAN_POINT('',(0.01695,0.00125,0.));
#2208=CARTESIAN_POINT('',(0.01695,0.00155,0.));
#2209=CARTESIAN_POINT('',(0.01695,0.00185,0.));
#2210=CARTESIAN_POINT('',(0.01665,0.00185,0.));
#2211=CARTESIAN_POINT('',(0.00075,0.00155,0.));
#2212=CARTESIAN_POINT('',(0.00075,0.00125,0.));
#2213=CARTESIAN_POINT('',(0.00075,0.00185,0.));
#2214=CARTESIAN_POINT('',(0.00105,0.00125,0.));
#2215=CARTESIAN_POINT('',(0.00135,0.00125,0.));
#2216=CARTESIAN_POINT('',(0.00135,0.00155,0.));
#2217=CARTESIAN_POINT('',(0.00135,0.00185,0.));
#2218=CARTESIAN_POINT('',(0.00105,0.00185,0.));
#2219=CARTESIAN_POINT('',(0.00105,0.00125,-0.0078));
#2220=CARTESIAN_POINT('',(0.00075,0.00125,-0.0078));
#2221=CARTESIAN_POINT('',(0.00075,0.00125,-0.0078));
#2222=CARTESIAN_POINT('',(0.00105,0.00125,-0.0078));
#2223=CARTESIAN_POINT('',(0.00135,0.00125,-0.0078));
#2224=CARTESIAN_POINT('',(0.00135,0.00125,-0.0078));
#2225=CARTESIAN_POINT('',(0.00075,0.00155,-0.0078));
#2226=CARTESIAN_POINT('',(0.00075,0.00185,-0.0078));
#2227=CARTESIAN_POINT('',(0.00075,0.00185,-0.0078));
#2228=CARTESIAN_POINT('',(0.00075,0.00155,-0.0078));
#2229=CARTESIAN_POINT('',(0.00105,0.00185,-0.0078));
#2230=CARTESIAN_POINT('',(0.00135,0.00185,-0.0078));
#2231=CARTESIAN_POINT('',(0.00135,0.00185,-0.0078));
#2232=CARTESIAN_POINT('',(0.00105,0.00185,-0.0078));
#2233=CARTESIAN_POINT('',(0.00135,0.00155,-0.0078));
#2234=CARTESIAN_POINT('',(0.00135,0.00155,-0.0078));
#2235=CARTESIAN_POINT('',(0.01015,0.01015,-0.0078));
#2236=CARTESIAN_POINT('',(0.01665,0.00125,-0.0078));
#2237=CARTESIAN_POINT('',(0.01635,0.00125,-0.0078));
#2238=CARTESIAN_POINT('',(0.01635,0.00125,-0.0078));
#2239=CARTESIAN_POINT('',(0.01665,0.00125,-0.0078));
#2240=CARTESIAN_POINT('',(0.01695,0.00125,-0.0078));
#2241=CARTESIAN_POINT('',(0.01695,0.00125,-0.0078));
#2242=CARTESIAN_POINT('',(0.01635,0.00155,-0.0078));
#2243=CARTESIAN_POINT('',(0.01635,0.00185,-0.0078));
#2244=CARTESIAN_POINT('',(0.01635,0.00185,-0.0078));
#2245=CARTESIAN_POINT('',(0.01635,0.00155,-0.0078));
#2246=CARTESIAN_POINT('',(0.01665,0.00185,-0.0078));
#2247=CARTESIAN_POINT('',(0.01695,0.00185,-0.0078));
#2248=CARTESIAN_POINT('',(0.01695,0.00185,-0.0078));
#2249=CARTESIAN_POINT('',(0.01665,0.00185,-0.0078));
#2250=CARTESIAN_POINT('',(0.01695,0.00155,-0.0078));
#2251=CARTESIAN_POINT('',(0.01695,0.00155,-0.0078));
#2252=CARTESIAN_POINT('',(0.01015,0.01015,-0.0078));
#2253=CARTESIAN_POINT('',(0.01405,0.01785,-0.0078));
#2254=CARTESIAN_POINT('',(0.01375,0.01785,-0.0078));
#2255=CARTESIAN_POINT('',(0.01375,0.01785,-0.0078));
#2256=CARTESIAN_POINT('',(0.01405,0.01785,-0.0078));
#2257=CARTESIAN_POINT('',(0.01435,0.01785,-0.0078));
#2258=CARTESIAN_POINT('',(0.01435,0.01785,-0.0078));
#2259=CARTESIAN_POINT('',(0.01375,0.01815,-0.0078));
#2260=CARTESIAN_POINT('',(0.01375,0.01845,-0.0078));
#2261=CARTESIAN_POINT('',(0.01375,0.01845,-0.0078));
#2262=CARTESIAN_POINT('',(0.01375,0.01815,-0.0078));
#2263=CARTESIAN_POINT('',(0.01405,0.01845,-0.0078));
#2264=CARTESIAN_POINT('',(0.01435,0.01845,-0.0078));
#2265=CARTESIAN_POINT('',(0.01435,0.01845,-0.0078));
#2266=CARTESIAN_POINT('',(0.01405,0.01845,-0.0078));
#2267=CARTESIAN_POINT('',(0.01435,0.01815,-0.0078));
#2268=CARTESIAN_POINT('',(0.01435,0.01815,-0.0078));
#2269=CARTESIAN_POINT('',(0.01015,0.01015,-0.0078));
#2270=CARTESIAN_POINT('',(0.01405,0.00125,-0.0078));
#2271=CARTESIAN_POINT('',(0.01375,0.00125,-0.0078));
#2272=CARTESIAN_POINT('',(0.01375,0.00125,-0.0078));
#2273=CARTESIAN_POINT('',(0.01405,0.00125,-0.0078));
#2274=CARTESIAN_POINT('',(0.01435,0.00125,-0.0078));
#2275=CARTESIAN_POINT('',(0.01435,0.00125,-0.0078));
#2276=CARTESIAN_POINT('',(0.01375,0.00155,-0.0078));
#2277=CARTESIAN_POINT('',(0.01375,0.00185,-0.0078));
#2278=CARTESIAN_POINT('',(0.01375,0.00185,-0.0078));
#2279=CARTESIAN_POINT('',(0.01375,0.00155,-0.0078));
#2280=CARTESIAN_POINT('',(0.01405,0.00185,-0.0078));
#2281=CARTESIAN_POINT('',(0.01435,0.00185,-0.0078));
#2282=CARTESIAN_POINT('',(0.01435,0.00185,-0.0078));
#2283=CARTESIAN_POINT('',(0.01405,0.00185,-0.0078));
#2284=CARTESIAN_POINT('',(0.01435,0.00155,-0.0078));
#2285=CARTESIAN_POINT('',(0.01435,0.00155,-0.0078));
#2286=CARTESIAN_POINT('',(0.01015,0.01015,-0.0078));
#2287=CARTESIAN_POINT('',(0.01145,0.01785,-0.0078));
#2288=CARTESIAN_POINT('',(0.01115,0.01785,-0.0078));
#2289=CARTESIAN_POINT('',(0.01115,0.01785,-0.0078));
#2290=CARTESIAN_POINT('',(0.01145,0.01785,-0.0078));
#2291=CARTESIAN_POINT('',(0.01175,0.01785,-0.0078));
#2292=CARTESIAN_POINT('',(0.01175,0.01785,-0.0078));
#2293=CARTESIAN_POINT('',(0.01115,0.01815,-0.0078));
#2294=CARTESIAN_POINT('',(0.01115,0.01845,-0.0078));
#2295=CARTESIAN_POINT('',(0.01115,0.01845,-0.0078));
#2296=CARTESIAN_POINT('',(0.01115,0.01815,-0.0078));
#2297=CARTESIAN_POINT('',(0.01145,0.01845,-0.0078));
#2298=CARTESIAN_POINT('',(0.01175,0.01845,-0.0078));
#2299=CARTESIAN_POINT('',(0.01175,0.01845,-0.0078));
#2300=CARTESIAN_POINT('',(0.01145,0.01845,-0.0078));
#2301=CARTESIAN_POINT('',(0.01175,0.01815,-0.0078));
#2302=CARTESIAN_POINT('',(0.01175,0.01815,-0.0078));
#2303=CARTESIAN_POINT('',(0.01015,0.01015,-0.0078));
#2304=CARTESIAN_POINT('',(0.01925,0.01785,-0.0078));
#2305=CARTESIAN_POINT('',(0.01895,0.01785,-0.0078));
#2306=CARTESIAN_POINT('',(0.01895,0.01785,-0.0078));
#2307=CARTESIAN_POINT('',(0.01925,0.01785,-0.0078));
#2308=CARTESIAN_POINT('',(0.01955,0.01785,-0.0078));
#2309=CARTESIAN_POINT('',(0.01955,0.01785,-0.0078));
#2310=CARTESIAN_POINT('',(0.01895,0.01815,-0.0078));
#2311=CARTESIAN_POINT('',(0.01895,0.01845,-0.0078));
#2312=CARTESIAN_POINT('',(0.01895,0.01845,-0.0078));
#2313=CARTESIAN_POINT('',(0.01895,0.01815,-0.0078));
#2314=CARTESIAN_POINT('',(0.01925,0.01845,-0.0078));
#2315=CARTESIAN_POINT('',(0.01955,0.01845,-0.0078));
#2316=CARTESIAN_POINT('',(0.01955,0.01845,-0.0078));
#2317=CARTESIAN_POINT('',(0.01925,0.01845,-0.0078));
#2318=CARTESIAN_POINT('',(0.01955,0.01815,-0.0078));
#2319=CARTESIAN_POINT('',(0.01955,0.01815,-0.0078));
#2320=CARTESIAN_POINT('',(0.01015,0.01015,-0.0078));
#2321=CARTESIAN_POINT('',(0.01925,0.00125,-0.0078));
#2322=CARTESIAN_POINT('',(0.01895,0.00125,-0.0078));
#2323=CARTESIAN_POINT('',(0.01895,0.00125,-0.0078));
#2324=CARTESIAN_POINT('',(0.01925,0.00125,-0.0078));
#2325=CARTESIAN_POINT('',(0.01955,0.00125,-0.0078));
#2326=CARTESIAN_POINT('',(0.01955,0.00125,-0.0078));
#2327=CARTESIAN_POINT('',(0.01895,0.00155,-0.0078));
#2328=CARTESIAN_POINT('',(0.01895,0.00185,-0.0078));
#2329=CARTESIAN_POINT('',(0.01895,0.00185,-0.0078));
#2330=CARTESIAN_POINT('',(0.01895,0.00155,-0.0078));
#2331=CARTESIAN_POINT('',(0.01925,0.00185,-0.0078));
#2332=CARTESIAN_POINT('',(0.01955,0.00185,-0.0078));
#2333=CARTESIAN_POINT('',(0.01955,0.00185,-0.0078));
#2334=CARTESIAN_POINT('',(0.01925,0.00185,-0.0078));
#2335=CARTESIAN_POINT('',(0.01955,0.00155,-0.0078));
#2336=CARTESIAN_POINT('',(0.01955,0.00155,-0.0078));
#2337=CARTESIAN_POINT('',(0.01015,0.01015,-0.0078));
#2338=CARTESIAN_POINT('',(0.01665,0.01785,-0.0078));
#2339=CARTESIAN_POINT('',(0.01635,0.01785,-0.0078));
#2340=CARTESIAN_POINT('',(0.01635,0.01785,-0.0078));
#2341=CARTESIAN_POINT('',(0.01665,0.01785,-0.0078));
#2342=CARTESIAN_POINT('',(0.01695,0.01785,-0.0078));
#2343=CARTESIAN_POINT('',(0.01695,0.01785,-0.0078));
#2344=CARTESIAN_POINT('',(0.01635,0.01815,-0.0078));
#2345=CARTESIAN_POINT('',(0.01635,0.01845,-0.0078));
#2346=CARTESIAN_POINT('',(0.01635,0.01845,-0.0078));
#2347=CARTESIAN_POINT('',(0.01635,0.01815,-0.0078));
#2348=CARTESIAN_POINT('',(0.01665,0.01845,-0.0078));
#2349=CARTESIAN_POINT('',(0.01695,0.01845,-0.0078));
#2350=CARTESIAN_POINT('',(0.01695,0.01845,-0.0078));
#2351=CARTESIAN_POINT('',(0.01665,0.01845,-0.0078));
#2352=CARTESIAN_POINT('',(0.01695,0.01815,-0.0078));
#2353=CARTESIAN_POINT('',(0.01695,0.01815,-0.0078));
#2354=CARTESIAN_POINT('',(0.01015,0.01015,-0.0078));
#2355=CARTESIAN_POINT('',(0.00625,0.00125,-0.0078));
#2356=CARTESIAN_POINT('',(0.00595,0.00125,-0.0078));
#2357=CARTESIAN_POINT('',(0.00595,0.00125,-0.0078));
#2358=CARTESIAN_POINT('',(0.00625,0.00125,-0.0078));
#2359=CARTESIAN_POINT('',(0.00655,0.00125,-0.0078));
#2360=CARTESIAN_POINT('',(0.00655,0.00125,-0.0078));
#2361=CARTESIAN_POINT('',(0.00595,0.00155,-0.0078));
#2362=CARTESIAN_POINT('',(0.00595,0.00185,-0.0078));
#2363=CARTESIAN_POINT('',(0.00595,0.00185,-0.0078));
#2364=CARTESIAN_POINT('',(0.00595,0.00155,-0.0078));
#2365=CARTESIAN_POINT('',(0.00625,0.00185,-0.0078));
#2366=CARTESIAN_POINT('',(0.00655,0.00185,-0.0078));
#2367=CARTESIAN_POINT('',(0.00655,0.00185,-0.0078));
#2368=CARTESIAN_POINT('',(0.00625,0.00185,-0.0078));
#2369=CARTESIAN_POINT('',(0.00655,0.00155,-0.0078));
#2370=CARTESIAN_POINT('',(0.00655,0.00155,-0.0078));
#2371=CARTESIAN_POINT('',(0.01015,0.01015,-0.0078));
#2372=CARTESIAN_POINT('',(0.00365,0.01785,-0.0078));
#2373=CARTESIAN_POINT('',(0.00335,0.01785,-0.0078));
#2374=CARTESIAN_POINT('',(0.00335,0.01785,-0.0078));
#2375=CARTESIAN_POINT('',(0.00365,0.01785,-0.0078));
#2376=CARTESIAN_POINT('',(0.00395,0.01785,-0.0078));
#2377=CARTESIAN_POINT('',(0.00395,0.01785,-0.0078));
#2378=CARTESIAN_POINT('',(0.00335,0.01815,-0.0078));
#2379=CARTESIAN_POINT('',(0.00335,0.01845,-0.0078));
#2380=CARTESIAN_POINT('',(0.00335,0.01845,-0.0078));
#2381=CARTESIAN_POINT('',(0.00335,0.01815,-0.0078));
#2382=CARTESIAN_POINT('',(0.00365,0.01845,-0.0078));
#2383=CARTESIAN_POINT('',(0.00395,0.01845,-0.0078));
#2384=CARTESIAN_POINT('',(0.00395,0.01845,-0.0078));
#2385=CARTESIAN_POINT('',(0.00365,0.01845,-0.0078));
#2386=CARTESIAN_POINT('',(0.00395,0.01815,-0.0078));
#2387=CARTESIAN_POINT('',(0.00395,0.01815,-0.0078));
#2388=CARTESIAN_POINT('',(0.01015,0.01015,-0.0078));
#2389=CARTESIAN_POINT('',(0.00365,0.00125,-0.0078));
#2390=CARTESIAN_POINT('',(0.00335,0.00125,-0.0078));
#2391=CARTESIAN_POINT('',(0.00335,0.00125,-0.0078));
#2392=CARTESIAN_POINT('',(0.00365,0.00125,-0.0078));
#2393=CARTESIAN_POINT('',(0.00395,0.00125,-0.0078));
#2394=CARTESIAN_POINT('',(0.00395,0.00125,-0.0078));
#2395=CARTESIAN_POINT('',(0.00335,0.00155,-0.0078));
#2396=CARTESIAN_POINT('',(0.00335,0.00185,-0.0078));
#2397=CARTESIAN_POINT('',(0.00335,0.00185,-0.0078));
#2398=CARTESIAN_POINT('',(0.00335,0.00155,-0.0078));
#2399=CARTESIAN_POINT('',(0.00365,0.00185,-0.0078));
#2400=CARTESIAN_POINT('',(0.00395,0.00185,-0.0078));
#2401=CARTESIAN_POINT('',(0.00395,0.00185,-0.0078));
#2402=CARTESIAN_POINT('',(0.00365,0.00185,-0.0078));
#2403=CARTESIAN_POINT('',(0.00395,0.00155,-0.0078));
#2404=CARTESIAN_POINT('',(0.00395,0.00155,-0.0078));
#2405=CARTESIAN_POINT('',(0.01015,0.01015,-0.0078));
#2406=CARTESIAN_POINT('',(0.00105,0.01785,-0.0078));
#2407=CARTESIAN_POINT('',(0.00075,0.01785,-0.0078));
#2408=CARTESIAN_POINT('',(0.00075,0.01785,-0.0078));
#2409=CARTESIAN_POINT('',(0.00105,0.01785,-0.0078));
#2410=CARTESIAN_POINT('',(0.00135,0.01785,-0.0078));
#2411=CARTESIAN_POINT('',(0.00135,0.01785,-0.0078));
#2412=CARTESIAN_POINT('',(0.00075,0.01815,-0.0078));
#2413=CARTESIAN_POINT('',(0.00075,0.01845,-0.0078));
#2414=CARTESIAN_POINT('',(0.00075,0.01845,-0.0078));
#2415=CARTESIAN_POINT('',(0.00075,0.01815,-0.0078));
#2416=CARTESIAN_POINT('',(0.00105,0.01845,-0.0078));
#2417=CARTESIAN_POINT('',(0.00135,0.01845,-0.0078));
#2418=CARTESIAN_POINT('',(0.00135,0.01845,-0.0078));
#2419=CARTESIAN_POINT('',(0.00105,0.01845,-0.0078));
#2420=CARTESIAN_POINT('',(0.00135,0.01815,-0.0078));
#2421=CARTESIAN_POINT('',(0.00135,0.01815,-0.0078));
#2422=CARTESIAN_POINT('',(0.01015,0.01015,-0.0078));
#2423=CARTESIAN_POINT('',(0.01145,0.00125,-0.0078));
#2424=CARTESIAN_POINT('',(0.01115,0.00125,-0.0078));
#2425=CARTESIAN_POINT('',(0.01115,0.00125,-0.0078));
#2426=CARTESIAN_POINT('',(0.01145,0.00125,-0.0078));
#2427=CARTESIAN_POINT('',(0.01175,0.00125,-0.0078));
#2428=CARTESIAN_POINT('',(0.01175,0.00125,-0.0078));
#2429=CARTESIAN_POINT('',(0.01115,0.00155,-0.0078));
#2430=CARTESIAN_POINT('',(0.01115,0.00185,-0.0078));
#2431=CARTESIAN_POINT('',(0.01115,0.00185,-0.0078));
#2432=CARTESIAN_POINT('',(0.01115,0.00155,-0.0078));
#2433=CARTESIAN_POINT('',(0.01145,0.00185,-0.0078));
#2434=CARTESIAN_POINT('',(0.01175,0.00185,-0.0078));
#2435=CARTESIAN_POINT('',(0.01175,0.00185,-0.0078));
#2436=CARTESIAN_POINT('',(0.01145,0.00185,-0.0078));
#2437=CARTESIAN_POINT('',(0.01175,0.00155,-0.0078));
#2438=CARTESIAN_POINT('',(0.01175,0.00155,-0.0078));
#2439=CARTESIAN_POINT('',(0.01015,0.01015,-0.0078));
#2440=CARTESIAN_POINT('',(0.00885,0.01785,-0.0078));
#2441=CARTESIAN_POINT('',(0.00855,0.01785,-0.0078));
#2442=CARTESIAN_POINT('',(0.00855,0.01785,-0.0078));
#2443=CARTESIAN_POINT('',(0.00885,0.01785,-0.0078));
#2444=CARTESIAN_POINT('',(0.00915,0.01785,-0.0078));
#2445=CARTESIAN_POINT('',(0.00915,0.01785,-0.0078));
#2446=CARTESIAN_POINT('',(0.00855,0.01815,-0.0078));
#2447=CARTESIAN_POINT('',(0.00855,0.01845,-0.0078));
#2448=CARTESIAN_POINT('',(0.00855,0.01845,-0.0078));
#2449=CARTESIAN_POINT('',(0.00855,0.01815,-0.0078));
#2450=CARTESIAN_POINT('',(0.00885,0.01845,-0.0078));
#2451=CARTESIAN_POINT('',(0.00915,0.01845,-0.0078));
#2452=CARTESIAN_POINT('',(0.00915,0.01845,-0.0078));
#2453=CARTESIAN_POINT('',(0.00885,0.01845,-0.0078));
#2454=CARTESIAN_POINT('',(0.00915,0.01815,-0.0078));
#2455=CARTESIAN_POINT('',(0.00915,0.01815,-0.0078));
#2456=CARTESIAN_POINT('',(0.01015,0.01015,-0.0078));
#2457=CARTESIAN_POINT('',(0.00885,0.00125,-0.0078));
#2458=CARTESIAN_POINT('',(0.00855,0.00125,-0.0078));
#2459=CARTESIAN_POINT('',(0.00855,0.00125,-0.0078));
#2460=CARTESIAN_POINT('',(0.00885,0.00125,-0.0078));
#2461=CARTESIAN_POINT('',(0.00915,0.00125,-0.0078));
#2462=CARTESIAN_POINT('',(0.00915,0.00125,-0.0078));
#2463=CARTESIAN_POINT('',(0.00855,0.00155,-0.0078));
#2464=CARTESIAN_POINT('',(0.00855,0.00185,-0.0078));
#2465=CARTESIAN_POINT('',(0.00855,0.00185,-0.0078));
#2466=CARTESIAN_POINT('',(0.00855,0.00155,-0.0078));
#2467=CARTESIAN_POINT('',(0.00885,0.00185,-0.0078));
#2468=CARTESIAN_POINT('',(0.00915,0.00185,-0.0078));
#2469=CARTESIAN_POINT('',(0.00915,0.00185,-0.0078));
#2470=CARTESIAN_POINT('',(0.00885,0.00185,-0.0078));
#2471=CARTESIAN_POINT('',(0.00915,0.00155,-0.0078));
#2472=CARTESIAN_POINT('',(0.00915,0.00155,-0.0078));
#2473=CARTESIAN_POINT('',(0.01015,0.01015,-0.0078));
#2474=CARTESIAN_POINT('',(0.00625,0.01785,-0.0078));
#2475=CARTESIAN_POINT('',(0.00595,0.01785,-0.0078));
#2476=CARTESIAN_POINT('',(0.00595,0.01785,-0.0078));
#2477=CARTESIAN_POINT('',(0.00625,0.01785,-0.0078));
#2478=CARTESIAN_POINT('',(0.00655,0.01785,-0.0078));
#2479=CARTESIAN_POINT('',(0.00655,0.01785,-0.0078));
#2480=CARTESIAN_POINT('',(0.00595,0.01815,-0.0078));
#2481=CARTESIAN_POINT('',(0.00595,0.01845,-0.0078));
#2482=CARTESIAN_POINT('',(0.00595,0.01845,-0.0078));
#2483=CARTESIAN_POINT('',(0.00595,0.01815,-0.0078));
#2484=CARTESIAN_POINT('',(0.00625,0.01845,-0.0078));
#2485=CARTESIAN_POINT('',(0.00655,0.01845,-0.0078));
#2486=CARTESIAN_POINT('',(0.00655,0.01845,-0.0078));
#2487=CARTESIAN_POINT('',(0.00625,0.01845,-0.0078));
#2488=CARTESIAN_POINT('',(0.00655,0.01815,-0.0078));
#2489=CARTESIAN_POINT('',(0.00655,0.01815,-0.0078));
#2490=CARTESIAN_POINT('',(0.01015,0.01015,-0.0078));
#2491=MECHANICAL_DESIGN_GEOMETRIC_PRESENTATION_REPRESENTATION('',(#1552,
#1458,#1459,#1460,#1461,#1462,#1463),#2492);
#2492=(
GEOMETRIC_REPRESENTATION_CONTEXT(3)
GLOBAL_UNCERTAINTY_ASSIGNED_CONTEXT((#2493))
GLOBAL_UNIT_ASSIGNED_CONTEXT((#2496,#2495,#2494))
REPRESENTATION_CONTEXT('motor controller','TOP_LEVEL_ASSEMBLY_PART')
);
#2493=UNCERTAINTY_MEASURE_WITH_UNIT(LENGTH_MEASURE(1.E-8),#2496,
'DISTANCE_ACCURACY_VALUE','Maximum Tolerance applied to model');
#2494=(
NAMED_UNIT(*)
SI_UNIT($,.STERADIAN.)
SOLID_ANGLE_UNIT()
);
#2495=(
NAMED_UNIT(*)
PLANE_ANGLE_UNIT()
SI_UNIT($,.RADIAN.)
);
#2496=(
LENGTH_UNIT()
NAMED_UNIT(*)
SI_UNIT($,.METRE.)
);
#2497=PRODUCT_DEFINITION_SHAPE('','',#2498);
#2498=PRODUCT_DEFINITION('','',#2500,#2499);
#2499=PRODUCT_DEFINITION_CONTEXT('',#2506,'design');
#2500=PRODUCT_DEFINITION_FORMATION_WITH_SPECIFIED_SOURCE('','',#2502,
 .NOT_KNOWN.);
#2501=PRODUCT_RELATED_PRODUCT_CATEGORY('','',(#2502));
#2502=PRODUCT('motor controller','motor controller','motor controller',
(#2504));
#2503=PRODUCT_CATEGORY('','');
#2504=PRODUCT_CONTEXT('',#2506,'mechanical');
#2505=APPLICATION_PROTOCOL_DEFINITION('international standard',
'ap242_managed_model_based_3d_engineering',2020,#2506);
#2506=APPLICATION_CONTEXT('managed model based 3d engineering');
ENDSEC;
END-ISO-10303-21;
