ISO-10303-21;
HEADER;
/* Generated by software containing ST-Developer
 * from STEP Tools, Inc. (www.steptools.com) 
 */
/* OPTION: using custom renumber hook */

FILE_DESCRIPTION(
/* description */ ('STEP AP242 Edition 2',
'CAx-IF Rec.Pracs.---Representation and Presentation of Product Manufa
cturing Information (PMI)---4.0---2014-10-13',
'CAx-IF Rec.Pracs.---3D Tessellated Geometry---0.4---2014-09-14','2;1',
'CAx-IF Rec.Pracs.---User Defined Attributes---1.5---2016-08-15'),
/* implementation_level */ '2;1');

FILE_NAME(
/* name */ 'plate - bevel plate',
/* time_stamp */ '2026-09-27T03:13:17Z',
/* author */ (''),
/* organization */ (''),
/* preprocessor_version */ 'ST-DEVELOPER v20',
/* originating_system */ 'ONSHAPE BY PTC INC, 1.221',
/* authorisation */ '  ');

FILE_SCHEMA (('AP242_MANAGED_MODEL_BASED_3D_ENGINEERING_MIM_LF { 1 0 10303 442 3 1 4 }'));
ENDSEC;

DATA;
#10=SHAPE_REPRESENTATION_RELATIONSHIP('','',#297,#11);
#11=ADVANCED_BREP_SHAPE_REPRESENTATION('',(#295),#481);
#12=CYLINDRICAL_SURFACE('',#313,0.014);
#13=CYLINDRICAL_SURFACE('',#316,0.0025);
#14=CYLINDRICAL_SURFACE('',#318,0.012);
#15=CYLINDRICAL_SURFACE('',#320,0.0027);
#16=CIRCLE('',#301,0.0027);
#17=CIRCLE('',#303,0.014);
#18=CIRCLE('',#304,0.012);
#19=CIRCLE('',#306,0.0027);
#20=CIRCLE('',#308,0.014);
#21=CIRCLE('',#309,0.0025);
#22=CIRCLE('',#311,0.0025);
#23=CIRCLE('',#312,0.012);
#24=CIRCLE('',#314,0.014);
#25=ORIENTED_EDGE('',*,*,#99,.T.);
#26=ORIENTED_EDGE('',*,*,#100,.T.);
#27=ORIENTED_EDGE('',*,*,#101,.F.);
#28=ORIENTED_EDGE('',*,*,#102,.T.);
#29=ORIENTED_EDGE('',*,*,#103,.F.);
#30=ORIENTED_EDGE('',*,*,#101,.T.);
#31=ORIENTED_EDGE('',*,*,#104,.T.);
#32=ORIENTED_EDGE('',*,*,#105,.F.);
#33=ORIENTED_EDGE('',*,*,#106,.F.);
#34=ORIENTED_EDGE('',*,*,#107,.F.);
#35=ORIENTED_EDGE('',*,*,#108,.T.);
#36=ORIENTED_EDGE('',*,*,#109,.F.);
#37=ORIENTED_EDGE('',*,*,#110,.F.);
#38=ORIENTED_EDGE('',*,*,#111,.F.);
#39=ORIENTED_EDGE('',*,*,#112,.T.);
#40=ORIENTED_EDGE('',*,*,#113,.F.);
#41=ORIENTED_EDGE('',*,*,#114,.F.);
#42=ORIENTED_EDGE('',*,*,#115,.T.);
#43=ORIENTED_EDGE('',*,*,#99,.F.);
#44=ORIENTED_EDGE('',*,*,#116,.T.);
#45=ORIENTED_EDGE('',*,*,#117,.T.);
#46=ORIENTED_EDGE('',*,*,#118,.F.);
#47=ORIENTED_EDGE('',*,*,#119,.F.);
#48=ORIENTED_EDGE('',*,*,#118,.T.);
#49=ORIENTED_EDGE('',*,*,#120,.F.);
#50=ORIENTED_EDGE('',*,*,#121,.T.);
#51=ORIENTED_EDGE('',*,*,#122,.F.);
#52=ORIENTED_EDGE('',*,*,#123,.T.);
#53=ORIENTED_EDGE('',*,*,#124,.F.);
#54=ORIENTED_EDGE('',*,*,#125,.T.);
#55=ORIENTED_EDGE('',*,*,#126,.F.);
#56=ORIENTED_EDGE('',*,*,#127,.T.);
#57=ORIENTED_EDGE('',*,*,#110,.T.);
#58=ORIENTED_EDGE('',*,*,#128,.T.);
#59=ORIENTED_EDGE('',*,*,#121,.F.);
#60=ORIENTED_EDGE('',*,*,#129,.T.);
#61=ORIENTED_EDGE('',*,*,#130,.F.);
#62=ORIENTED_EDGE('',*,*,#129,.F.);
#63=ORIENTED_EDGE('',*,*,#120,.T.);
#64=ORIENTED_EDGE('',*,*,#117,.F.);
#65=ORIENTED_EDGE('',*,*,#131,.T.);
#66=ORIENTED_EDGE('',*,*,#107,.T.);
#67=ORIENTED_EDGE('',*,*,#122,.T.);
#68=ORIENTED_EDGE('',*,*,#123,.F.);
#69=ORIENTED_EDGE('',*,*,#106,.T.);
#70=ORIENTED_EDGE('',*,*,#132,.T.);
#71=ORIENTED_EDGE('',*,*,#126,.T.);
#72=ORIENTED_EDGE('',*,*,#130,.T.);
#73=ORIENTED_EDGE('',*,*,#124,.T.);
#74=ORIENTED_EDGE('',*,*,#133,.T.);
#75=ORIENTED_EDGE('',*,*,#112,.F.);
#76=ORIENTED_EDGE('',*,*,#134,.T.);
#77=ORIENTED_EDGE('',*,*,#116,.F.);
#78=ORIENTED_EDGE('',*,*,#102,.F.);
#79=ORIENTED_EDGE('',*,*,#108,.F.);
#80=ORIENTED_EDGE('',*,*,#131,.F.);
#81=ORIENTED_EDGE('',*,*,#113,.T.);
#82=ORIENTED_EDGE('',*,*,#103,.T.);
#83=ORIENTED_EDGE('',*,*,#132,.F.);
#84=ORIENTED_EDGE('',*,*,#105,.T.);
#85=ORIENTED_EDGE('',*,*,#135,.F.);
#86=ORIENTED_EDGE('',*,*,#114,.T.);
#87=ORIENTED_EDGE('',*,*,#119,.T.);
#88=ORIENTED_EDGE('',*,*,#128,.F.);
#89=ORIENTED_EDGE('',*,*,#109,.T.);
#90=ORIENTED_EDGE('',*,*,#133,.F.);
#91=ORIENTED_EDGE('',*,*,#125,.F.);
#92=ORIENTED_EDGE('',*,*,#134,.F.);
#93=ORIENTED_EDGE('',*,*,#111,.T.);
#94=ORIENTED_EDGE('',*,*,#127,.F.);
#95=ORIENTED_EDGE('',*,*,#100,.F.);
#96=ORIENTED_EDGE('',*,*,#115,.F.);
#97=ORIENTED_EDGE('',*,*,#135,.T.);
#98=ORIENTED_EDGE('',*,*,#104,.F.);
#99=EDGE_CURVE('',#136,#137,#162,.T.);
#100=EDGE_CURVE('',#137,#138,#163,.T.);
#101=EDGE_CURVE('',#139,#138,#164,.T.);
#102=EDGE_CURVE('',#139,#136,#165,.T.);
#103=EDGE_CURVE('',#140,#140,#16,.T.);
#104=EDGE_CURVE('',#138,#141,#166,.T.);
#105=EDGE_CURVE('',#142,#141,#167,.T.);
#106=EDGE_CURVE('',#143,#142,#168,.T.);
#107=EDGE_CURVE('',#144,#143,#169,.T.);
#108=EDGE_CURVE('',#144,#139,#170,.T.);
#109=EDGE_CURVE('',#145,#146,#171,.T.);
#110=EDGE_CURVE('',#147,#145,#17,.T.);
#111=EDGE_CURVE('',#148,#147,#172,.T.);
#112=EDGE_CURVE('',#148,#146,#18,.T.);
#113=EDGE_CURVE('',#149,#149,#19,.T.);
#114=EDGE_CURVE('',#150,#151,#173,.T.);
#115=EDGE_CURVE('',#150,#137,#174,.T.);
#116=EDGE_CURVE('',#136,#152,#175,.T.);
#117=EDGE_CURVE('',#152,#153,#176,.T.);
#118=EDGE_CURVE('',#151,#153,#177,.T.);
#119=EDGE_CURVE('',#151,#154,#178,.T.);
#120=EDGE_CURVE('',#155,#153,#179,.T.);
#121=EDGE_CURVE('',#155,#154,#20,.T.);
#122=EDGE_CURVE('',#156,#156,#21,.T.);
#123=EDGE_CURVE('',#157,#157,#22,.T.);
#124=EDGE_CURVE('',#158,#159,#23,.T.);
#125=EDGE_CURVE('',#158,#159,#180,.T.);
#126=EDGE_CURVE('',#160,#161,#24,.T.);
#127=EDGE_CURVE('',#160,#147,#181,.T.);
#128=EDGE_CURVE('',#145,#154,#182,.F.);
#129=EDGE_CURVE('',#155,#161,#183,.T.);
#130=EDGE_CURVE('',#161,#143,#184,.T.);
#131=EDGE_CURVE('',#152,#144,#185,.T.);
#132=EDGE_CURVE('',#142,#160,#186,.T.);
#133=EDGE_CURVE('',#159,#146,#187,.F.);
#134=EDGE_CURVE('',#148,#158,#188,.T.);
#135=EDGE_CURVE('',#150,#141,#189,.T.);
#136=VERTEX_POINT('',#404);
#137=VERTEX_POINT('',#405);
#138=VERTEX_POINT('',#407);
#139=VERTEX_POINT('',#409);
#140=VERTEX_POINT('',#413);
#141=VERTEX_POINT('',#415);
#142=VERTEX_POINT('',#417);
#143=VERTEX_POINT('',#419);
#144=VERTEX_POINT('',#421);
#145=VERTEX_POINT('',#425);
#146=VERTEX_POINT('',#426);
#147=VERTEX_POINT('',#428);
#148=VERTEX_POINT('',#430);
#149=VERTEX_POINT('',#434);
#150=VERTEX_POINT('',#436);
#151=VERTEX_POINT('',#437);
#152=VERTEX_POINT('',#440);
#153=VERTEX_POINT('',#442);
#154=VERTEX_POINT('',#446);
#155=VERTEX_POINT('',#448);
#156=VERTEX_POINT('',#451);
#157=VERTEX_POINT('',#454);
#158=VERTEX_POINT('',#456);
#159=VERTEX_POINT('',#457);
#160=VERTEX_POINT('',#461);
#161=VERTEX_POINT('',#462);
#162=LINE('',#403,#190);
#163=LINE('',#406,#191);
#164=LINE('',#408,#192);
#165=LINE('',#410,#193);
#166=LINE('',#414,#194);
#167=LINE('',#416,#195);
#168=LINE('',#418,#196);
#169=LINE('',#420,#197);
#170=LINE('',#422,#198);
#171=LINE('',#424,#199);
#172=LINE('',#429,#200);
#173=LINE('',#435,#201);
#174=LINE('',#438,#202);
#175=LINE('',#439,#203);
#176=LINE('',#441,#204);
#177=LINE('',#443,#205);
#178=LINE('',#445,#206);
#179=LINE('',#447,#207);
#180=LINE('',#458,#208);
#181=LINE('',#463,#209);
#182=LINE('',#464,#210);
#183=LINE('',#465,#211);
#184=LINE('',#467,#212);
#185=LINE('',#468,#213);
#186=LINE('',#471,#214);
#187=LINE('',#473,#215);
#188=LINE('',#474,#216);
#189=LINE('',#478,#217);
#190=VECTOR('',#327,1.);
#191=VECTOR('',#328,1.);
#192=VECTOR('',#329,1.);
#193=VECTOR('',#330,1.);
#194=VECTOR('',#335,1.);
#195=VECTOR('',#336,1.);
#196=VECTOR('',#337,1.);
#197=VECTOR('',#338,1.);
#198=VECTOR('',#339,1.);
#199=VECTOR('',#342,1.);
#200=VECTOR('',#345,1.);
#201=VECTOR('',#352,1.);
#202=VECTOR('',#353,1.);
#203=VECTOR('',#354,1.);
#204=VECTOR('',#355,1.);
#205=VECTOR('',#356,1.);
#206=VECTOR('',#359,1.);
#207=VECTOR('',#360,1.);
#208=VECTOR('',#371,1.);
#209=VECTOR('',#376,1.);
#210=VECTOR('',#377,1.);
#211=VECTOR('',#378,1.);
#212=VECTOR('',#381,1.);
#213=VECTOR('',#382,1.);
#214=VECTOR('',#387,1.);
#215=VECTOR('',#390,1.);
#216=VECTOR('',#391,1.);
#217=VECTOR('',#398,1.);
#218=EDGE_LOOP('',(#25,#26,#27,#28));
#219=EDGE_LOOP('',(#29));
#220=EDGE_LOOP('',(#30,#31,#32,#33,#34,#35));
#221=EDGE_LOOP('',(#36,#37,#38,#39));
#222=EDGE_LOOP('',(#40));
#223=EDGE_LOOP('',(#41,#42,#43,#44,#45,#46));
#224=EDGE_LOOP('',(#47,#48,#49,#50));
#225=EDGE_LOOP('',(#51));
#226=EDGE_LOOP('',(#52));
#227=EDGE_LOOP('',(#53,#54));
#228=EDGE_LOOP('',(#55,#56,#57,#58,#59,#60));
#229=EDGE_LOOP('',(#61,#62,#63,#64,#65,#66));
#230=EDGE_LOOP('',(#67));
#231=EDGE_LOOP('',(#68));
#232=EDGE_LOOP('',(#69,#70,#71,#72));
#233=EDGE_LOOP('',(#73,#74,#75,#76));
#234=EDGE_LOOP('',(#77,#78,#79,#80));
#235=EDGE_LOOP('',(#81));
#236=EDGE_LOOP('',(#82));
#237=EDGE_LOOP('',(#83,#84,#85,#86,#87,#88,#89,#90,#91,#92,#93,#94));
#238=EDGE_LOOP('',(#95,#96,#97,#98));
#239=FACE_BOUND('',#218,.T.);
#240=FACE_BOUND('',#219,.T.);
#241=FACE_BOUND('',#220,.T.);
#242=FACE_BOUND('',#221,.T.);
#243=FACE_BOUND('',#222,.T.);
#244=FACE_BOUND('',#223,.T.);
#245=FACE_BOUND('',#224,.T.);
#246=FACE_BOUND('',#225,.T.);
#247=FACE_BOUND('',#226,.T.);
#248=FACE_BOUND('',#227,.T.);
#249=FACE_BOUND('',#228,.T.);
#250=FACE_BOUND('',#229,.T.);
#251=FACE_BOUND('',#230,.T.);
#252=FACE_BOUND('',#231,.T.);
#253=FACE_BOUND('',#232,.T.);
#254=FACE_BOUND('',#233,.T.);
#255=FACE_BOUND('',#234,.T.);
#256=FACE_BOUND('',#235,.T.);
#257=FACE_BOUND('',#236,.T.);
#258=FACE_BOUND('',#237,.T.);
#259=FACE_BOUND('',#238,.T.);
#260=PLANE('',#299);
#261=PLANE('',#300);
#262=PLANE('',#302);
#263=PLANE('',#305);
#264=PLANE('',#307);
#265=PLANE('',#310);
#266=PLANE('',#315);
#267=PLANE('',#317);
#268=PLANE('',#319);
#269=PLANE('',#321);
#270=PLANE('',#322);
#271=ADVANCED_FACE('',(#239),#260,.T.);
#272=ADVANCED_FACE('',(#240,#241),#261,.T.);
#273=ADVANCED_FACE('',(#242),#262,.F.);
#274=ADVANCED_FACE('',(#243,#244),#263,.T.);
#275=ADVANCED_FACE('',(#245,#246),#264,.T.);
#276=ADVANCED_FACE('',(#247,#248),#265,.F.);
#277=ADVANCED_FACE('',(#249),#12,.T.);
#278=ADVANCED_FACE('',(#250),#266,.T.);
#279=ADVANCED_FACE('',(#251,#252),#13,.F.);
#280=ADVANCED_FACE('',(#253),#267,.F.);
#281=ADVANCED_FACE('',(#254),#14,.F.);
#282=ADVANCED_FACE('',(#255),#268,.T.);
#283=ADVANCED_FACE('',(#256,#257),#15,.F.);
#284=ADVANCED_FACE('',(#258),#269,.F.);
#285=ADVANCED_FACE('',(#259),#270,.T.);
#286=CLOSED_SHELL('',(#271,#272,#273,#274,#275,#276,#277,#278,#279,#280,
#281,#282,#283,#284,#285));
#287=STYLED_ITEM('',(#288),#295);
#288=PRESENTATION_STYLE_ASSIGNMENT((#289));
#289=SURFACE_STYLE_USAGE(.BOTH.,#290);
#290=SURFACE_SIDE_STYLE('',(#291));
#291=SURFACE_STYLE_FILL_AREA(#292);
#292=FILL_AREA_STYLE('',(#293));
#293=FILL_AREA_STYLE_COLOUR('',#294);
#294=COLOUR_RGB('',0.615686274509804,0.811764705882353,0.929411764705882);
#295=MANIFOLD_SOLID_BREP('bevel plate',#286);
#296=SHAPE_DEFINITION_REPRESENTATION(#486,#297);
#297=SHAPE_REPRESENTATION('bevel plate',(#298),#481);
#298=AXIS2_PLACEMENT_3D('',#401,#323,#324);
#299=AXIS2_PLACEMENT_3D('',#402,#325,#326);
#300=AXIS2_PLACEMENT_3D('',#411,#331,#332);
#301=AXIS2_PLACEMENT_3D('',#412,#333,#334);
#302=AXIS2_PLACEMENT_3D('',#423,#340,#341);
#303=AXIS2_PLACEMENT_3D('',#427,#343,#344);
#304=AXIS2_PLACEMENT_3D('',#431,#346,#347);
#305=AXIS2_PLACEMENT_3D('',#432,#348,#349);
#306=AXIS2_PLACEMENT_3D('',#433,#350,#351);
#307=AXIS2_PLACEMENT_3D('',#444,#357,#358);
#308=AXIS2_PLACEMENT_3D('',#449,#361,#362);
#309=AXIS2_PLACEMENT_3D('',#450,#363,#364);
#310=AXIS2_PLACEMENT_3D('',#452,#365,#366);
#311=AXIS2_PLACEMENT_3D('',#453,#367,#368);
#312=AXIS2_PLACEMENT_3D('',#455,#369,#370);
#313=AXIS2_PLACEMENT_3D('',#459,#372,#373);
#314=AXIS2_PLACEMENT_3D('',#460,#374,#375);
#315=AXIS2_PLACEMENT_3D('',#466,#379,#380);
#316=AXIS2_PLACEMENT_3D('',#469,#383,#384);
#317=AXIS2_PLACEMENT_3D('',#470,#385,#386);
#318=AXIS2_PLACEMENT_3D('',#472,#388,#389);
#319=AXIS2_PLACEMENT_3D('',#475,#392,#393);
#320=AXIS2_PLACEMENT_3D('',#476,#394,#395);
#321=AXIS2_PLACEMENT_3D('',#477,#396,#397);
#322=AXIS2_PLACEMENT_3D('',#479,#399,#400);
#323=DIRECTION('',(0.,0.,1.));
#324=DIRECTION('',(1.,0.,0.));
#325=DIRECTION('',(1.,1.13380619344889E-16,0.));
#326=DIRECTION('',(-1.13380619344889E-16,1.,0.));
#327=DIRECTION('',(0.,0.,-1.));
#328=DIRECTION('',(-1.23908819712629E-16,1.,0.));
#329=DIRECTION('',(0.,0.,-1.));
#330=DIRECTION('',(1.13380619344889E-16,-1.,0.));
#331=DIRECTION('',(0.,1.,0.));
#332=DIRECTION('',(0.,0.,1.));
#333=DIRECTION('',(0.,1.,0.));
#334=DIRECTION('',(0.,0.,1.));
#335=DIRECTION('',(-1.,0.,0.));
#336=DIRECTION('',(-1.85863229568943E-16,0.,1.));
#337=DIRECTION('',(1.,0.,0.));
#338=DIRECTION('',(0.,0.,-1.));
#339=DIRECTION('',(1.,0.,0.));
#340=DIRECTION('',(0.,0.,1.));
#341=DIRECTION('',(1.,0.,0.));
#342=DIRECTION('',(-1.23908819712629E-16,1.,0.));
#343=DIRECTION('',(0.,0.,1.));
#344=DIRECTION('',(1.,0.,0.));
#345=DIRECTION('',(-1.23908819712629E-16,1.,0.));
#346=DIRECTION('',(0.,0.,1.));
#347=DIRECTION('',(1.,0.,0.));
#348=DIRECTION('',(1.23908819712629E-16,-1.,0.));
#349=DIRECTION('',(1.,1.23908819712629E-16,0.));
#350=DIRECTION('',(1.23908819712629E-16,-1.,0.));
#351=DIRECTION('',(1.,1.23908819712629E-16,0.));
#352=DIRECTION('',(1.85863229568943E-16,2.30300934038652E-32,-1.));
#353=DIRECTION('',(1.,1.23908819712629E-16,0.));
#354=DIRECTION('',(-1.,-1.23908819712629E-16,0.));
#355=DIRECTION('',(0.,0.,-1.));
#356=DIRECTION('',(-1.,-1.23908819712629E-16,0.));
#357=DIRECTION('',(0.,0.,1.));
#358=DIRECTION('',(1.,0.,0.));
#359=DIRECTION('',(1.23908819712629E-16,-1.,0.));
#360=DIRECTION('',(0.,1.,0.));
#361=DIRECTION('',(0.,0.,1.));
#362=DIRECTION('',(1.,0.,0.));
#363=DIRECTION('',(0.,0.,1.));
#364=DIRECTION('',(1.,0.,0.));
#365=DIRECTION('',(0.,0.,1.));
#366=DIRECTION('',(1.,0.,0.));
#367=DIRECTION('',(0.,0.,1.));
#368=DIRECTION('',(1.,0.,0.));
#369=DIRECTION('',(0.,0.,1.));
#370=DIRECTION('',(1.,0.,0.));
#371=DIRECTION('',(1.23908819712629E-16,-1.,0.));
#372=DIRECTION('',(0.,0.,-1.));
#373=DIRECTION('',(-1.,0.,0.));
#374=DIRECTION('',(0.,0.,1.));
#375=DIRECTION('',(1.,0.,0.));
#376=DIRECTION('',(0.,0.,-1.));
#377=DIRECTION('',(0.,0.,-1.));
#378=DIRECTION('',(0.,0.,-1.));
#379=DIRECTION('',(-1.,0.,0.));
#380=DIRECTION('',(0.,0.,1.));
#381=DIRECTION('',(0.,1.,0.));
#382=DIRECTION('',(0.,1.,0.));
#383=DIRECTION('',(0.,0.,-1.));
#384=DIRECTION('',(-1.,0.,0.));
#385=DIRECTION('',(0.,0.,1.));
#386=DIRECTION('',(1.,0.,0.));
#387=DIRECTION('',(1.23908819712629E-16,-1.,0.));
#388=DIRECTION('',(0.,0.,1.));
#389=DIRECTION('',(1.,0.,0.));
#390=DIRECTION('',(0.,0.,1.));
#391=DIRECTION('',(0.,0.,1.));
#392=DIRECTION('',(0.,0.,1.));
#393=DIRECTION('',(1.,0.,0.));
#394=DIRECTION('',(0.,1.,0.));
#395=DIRECTION('',(0.,0.,1.));
#396=DIRECTION('',(-1.,-1.23908819712629E-16,-1.85863229568943E-16));
#397=DIRECTION('',(-1.85863229568943E-16,0.,1.));
#398=DIRECTION('',(-1.23908819712629E-16,1.,0.));
#399=DIRECTION('',(0.,0.,-1.));
#400=DIRECTION('',(-1.,0.,0.));
#401=CARTESIAN_POINT('',(0.,0.,0.));
#402=CARTESIAN_POINT('',(0.002,-0.00465,0.002));
#403=CARTESIAN_POINT('',(0.002,0.001,0.027));
#404=CARTESIAN_POINT('',(0.002,0.001,0.027));
#405=CARTESIAN_POINT('',(0.002,0.001,0.012));
#406=CARTESIAN_POINT('',(0.002,-0.0488446265161083,0.012));
#407=CARTESIAN_POINT('',(0.002,0.003,0.012));
#408=CARTESIAN_POINT('',(0.002,0.003,0.002));
#409=CARTESIAN_POINT('',(0.002,0.003,0.027));
#410=CARTESIAN_POINT('',(0.002,-0.00465,0.027));
#411=CARTESIAN_POINT('',(-0.012,0.003,0.002));
#412=CARTESIAN_POINT('',(-0.012,0.003,0.0153));
#413=CARTESIAN_POINT('',(-0.012,0.003,0.018));
#414=CARTESIAN_POINT('',(-0.012,0.003,0.012));
#415=CARTESIAN_POINT('',(-0.005,0.003,0.012));
#416=CARTESIAN_POINT('',(-0.005,0.003,0.002));
#417=CARTESIAN_POINT('',(-0.005,0.003,0.));
#418=CARTESIAN_POINT('',(-0.012,0.003,0.));
#419=CARTESIAN_POINT('',(-0.026,0.003,0.));
#420=CARTESIAN_POINT('',(-0.026,0.003,0.002));
#421=CARTESIAN_POINT('',(-0.026,0.003,0.027));
#422=CARTESIAN_POINT('',(-0.012,0.003,0.027));
#423=CARTESIAN_POINT('',(-0.012,-0.01165,-0.002));
#424=CARTESIAN_POINT('',(-0.005,-0.0488446265161083,-0.002));
#425=CARTESIAN_POINT('',(-0.005,-0.0244243556529821,-0.002));
#426=CARTESIAN_POINT('',(-0.005,-0.022046794344809,-0.002));
#427=CARTESIAN_POINT('',(-0.012,-0.0123,-0.002));
#428=CARTESIAN_POINT('',(-0.005,-0.000175644347017861,-0.002));
#429=CARTESIAN_POINT('',(-0.005,-0.0488446265161083,-0.002));
#430=CARTESIAN_POINT('',(-0.005,-0.00255320565519103,-0.002));
#431=CARTESIAN_POINT('',(-0.012,-0.0123,-0.002));
#432=CARTESIAN_POINT('',(-0.012,0.001,0.027));
#433=CARTESIAN_POINT('',(-0.012,0.001,0.0153));
#434=CARTESIAN_POINT('',(-0.0093,0.001,0.0153));
#435=CARTESIAN_POINT('',(-0.005,0.001,0.027));
#436=CARTESIAN_POINT('',(-0.005,0.001,0.012));
#437=CARTESIAN_POINT('',(-0.005,0.001,0.002));
#438=CARTESIAN_POINT('',(-0.012,0.001,0.012));
#439=CARTESIAN_POINT('',(-0.012,0.001,0.027));
#440=CARTESIAN_POINT('',(-0.026,0.001,0.027));
#441=CARTESIAN_POINT('',(-0.026,0.001,0.027));
#442=CARTESIAN_POINT('',(-0.026,0.001,0.002));
#443=CARTESIAN_POINT('',(-0.012,0.001,0.002));
#444=CARTESIAN_POINT('',(-0.012,-0.01165,0.002));
#445=CARTESIAN_POINT('',(-0.005,-0.01165,0.002));
#446=CARTESIAN_POINT('',(-0.005,-0.0244243556529821,0.002));
#447=CARTESIAN_POINT('',(-0.026,-0.00465,0.002));
#448=CARTESIAN_POINT('',(-0.026,-0.0123,0.002));
#449=CARTESIAN_POINT('',(-0.012,-0.0123,0.002));
#450=CARTESIAN_POINT('',(-0.012,-0.0123,0.002));
#451=CARTESIAN_POINT('',(-0.0095,-0.0123,0.002));
#452=CARTESIAN_POINT('',(-0.012,-0.01165,0.));
#453=CARTESIAN_POINT('',(-0.012,-0.0123,0.));
#454=CARTESIAN_POINT('',(-0.0095,-0.0123,0.));
#455=CARTESIAN_POINT('',(-0.012,-0.0123,0.));
#456=CARTESIAN_POINT('',(-0.005,-0.00255320565519103,0.));
#457=CARTESIAN_POINT('',(-0.005,-0.022046794344809,0.));
#458=CARTESIAN_POINT('',(-0.005,-0.01165,0.));
#459=CARTESIAN_POINT('',(-0.012,-0.0123,0.002));
#460=CARTESIAN_POINT('',(-0.012,-0.0123,0.));
#461=CARTESIAN_POINT('',(-0.005,-0.000175644347017858,0.));
#462=CARTESIAN_POINT('',(-0.026,-0.0123,0.));
#463=CARTESIAN_POINT('',(-0.005,-0.000175644347017858,0.002));
#464=CARTESIAN_POINT('',(-0.005,-0.0244243556529821,0.002));
#465=CARTESIAN_POINT('',(-0.026,-0.0123,0.002));
#466=CARTESIAN_POINT('',(-0.026,-0.00465,0.002));
#467=CARTESIAN_POINT('',(-0.026,-0.00465,0.));
#468=CARTESIAN_POINT('',(-0.026,-0.00465,0.027));
#469=CARTESIAN_POINT('',(-0.012,-0.0123,0.002));
#470=CARTESIAN_POINT('',(-0.012,-0.01165,0.));
#471=CARTESIAN_POINT('',(-0.005,-0.01165,0.));
#472=CARTESIAN_POINT('',(-0.012,-0.0123,-0.002));
#473=CARTESIAN_POINT('',(-0.005,-0.022046794344809,-0.002));
#474=CARTESIAN_POINT('',(-0.005,-0.00255320565519103,-0.002));
#475=CARTESIAN_POINT('',(-0.012,-0.01165,0.027));
#476=CARTESIAN_POINT('',(-0.012,-0.0468446265161083,0.0153));
#477=CARTESIAN_POINT('',(-0.005,-0.0488446265161083,0.005));
#478=CARTESIAN_POINT('',(-0.005,-0.0488446265161083,0.012));
#479=CARTESIAN_POINT('',(-0.0015,-0.0488446265161083,0.012));
#480=MECHANICAL_DESIGN_GEOMETRIC_PRESENTATION_REPRESENTATION('',(#287),
#481);
#481=(
GEOMETRIC_REPRESENTATION_CONTEXT(3)
GLOBAL_UNCERTAINTY_ASSIGNED_CONTEXT((#482))
GLOBAL_UNIT_ASSIGNED_CONTEXT((#485,#484,#483))
REPRESENTATION_CONTEXT('bevel plate','TOP_LEVEL_ASSEMBLY_PART')
);
#482=UNCERTAINTY_MEASURE_WITH_UNIT(LENGTH_MEASURE(1.E-8),#485,
'DISTANCE_ACCURACY_VALUE','Maximum Tolerance applied to model');
#483=(
NAMED_UNIT(*)
SI_UNIT($,.STERADIAN.)
SOLID_ANGLE_UNIT()
);
#484=(
NAMED_UNIT(*)
PLANE_ANGLE_UNIT()
SI_UNIT($,.RADIAN.)
);
#485=(
LENGTH_UNIT()
NAMED_UNIT(*)
SI_UNIT($,.METRE.)
);
#486=PRODUCT_DEFINITION_SHAPE('','',#487);
#487=PRODUCT_DEFINITION('','',#489,#488);
#488=PRODUCT_DEFINITION_CONTEXT('',#495,'design');
#489=PRODUCT_DEFINITION_FORMATION_WITH_SPECIFIED_SOURCE('','',#491,
 .NOT_KNOWN.);
#490=PRODUCT_RELATED_PRODUCT_CATEGORY('','',(#491));
#491=PRODUCT('bevel plate','bevel plate','bevel plate',(#493));
#492=PRODUCT_CATEGORY('','');
#493=PRODUCT_CONTEXT('',#495,'mechanical');
#494=APPLICATION_PROTOCOL_DEFINITION('international standard',
'ap242_managed_model_based_3d_engineering',2020,#495);
#495=APPLICATION_CONTEXT('managed model based 3d engineering');
ENDSEC;
END-ISO-10303-21;
